<mxfile host="app.diagrams.net" modified="2023-12-11T15:59:00.974Z" agent="Mozilla/5.0 (Windows NT 10.0; Win64; x64; rv:120.0) Gecko/20100101 Firefox/120.0" etag="jsRUIobIa74GEGLK8mCD" version="22.1.7" type="device">
  <diagram id="2z9y-E5E7iP4-8aTBCHo" name="Strona-1">
    <mxGraphModel dx="1500" dy="3107" grid="1" gridSize="10" guides="1" tooltips="1" connect="1" arrows="1" fold="1" page="1" pageScale="1" pageWidth="827" pageHeight="1169" math="0" shadow="0">
      <root>
        <mxCell id="0" />
        <mxCell id="1" parent="0" />
        <mxCell id="-aEaPC-sBht90m_471vq-27" value="" style="shape=image;verticalLabelPosition=bottom;labelBackgroundColor=default;verticalAlign=top;aspect=fixed;imageAspect=0;image=data:image/png,iVBORw0KGgoAAAANSUhEUgAAAUEAAALmCAIAAABTnbGtAAAAAXNSR0IB2cksfwAAAAlwSFlzAAAOxAAADsQBlSsOGwAAbwpJREFUeJzsnXV0G8m2r8+/961117vv8JyBZMLMzJxMmJl5wszscGJmZmZmZiaZLcuSbFm2TLIDc/C+n9WJRmMnji3bkdreWd9o2qXq6up2fbV3tWTpd//1f/9AEAR7+d34ZdvGL9s6rguMXbRp7Lz1xIBm0aauDJV+zNilW8Yu3TxmyabRizaMWrB25fSFD0aOezB8zP1ho+8NHXlvyIi7Pw6XMaztcchwlKD8zrDRcybNHTpz2fDZK0fOW40dRy9cP2bxxrFLNqE1tDkOKNul342cspsgiK4yedeIyTtHTNoxfOK2oeM3Txiz+vzQKfd+HHdv8Ji7g0bf+WHUne9HgNvfDwfMNgrx1O1BY2YOXzBo1Kofx6wdMm4D9h02cevwSdvRFBpEsyOn7FKuS+QwQXQHBYeHTdgCG8ePWnl+yOR7g8e2ifrD6NvfjwQ3fhh5ddBocG3QmKuDxlwePP7KjxMu/Thx+sglg0evHjJ2/ZDxG7H7sInbhsPhnmlMDhNEt4DDbRojhA6bsHXo+E1Dxm0cO3r1jhHz946Yt2vkgo2jlqwas2L52JWLxq2eP27t3PHr5oxfP33CpmkTN8+cuGn6xM2jEXsxC8joSfiVQw4TRLfY9fFx10efP2yPkvH1u0QOEwS7IYcJgt2QwwTBbshhgmA35DBBsBtymCDYDTlMEOyGHCYIdkMOEwS7IYcJgt0MXIfHzdw/c/HxWUtPTJh1QOWdUYJRU/dMnnt4zrKTU+cfGT1tr8r7Q6iKAeowBN6+/56Jla+tY/CBE0/Gs1DjmUtOXLtr5OoZ+fCZ9YKVp1XeH0JV9I7DUGLu8p/nrzw9YfbBr9Dp6YuOrdx46actV+Ss2nR50eqzk+cdRnTqSgsrN15284p69+6XX375h39w4vodN3rYpbEz9s1acmLpugsAG/ixry/C+Wu6peXC//znP5X8miu3Db/CZSfUk15wuC2mHbjn7h0dHJ5y5PTzr5Ca3n1sUS2SwEA5DY3SpFTOnUfmmEfGTP9yYokpwNEtrLGppaXlLRzevPtWD7u0YNUZHSP3giIewAZ+7OuLcPaKNqew4t37Xyp41QjIfX04Qm3pqcOMwNDg7dv3rW/eIbghKvZ1px8+t4a0CEG//PL3lta34P0vf//3v/8NJy3tApasOSeviYXipDmHEBix7kWUVtR733ENT9+YgJCkU5c0x8/c/+sZzdg/beHR2UtPzlh0bJxCOQNaQDtoDW2iZWYhikckAs7u4W/evAPO7hFrt12fOOcgdp8099C0BUexC5rF7DZFtiFvCj+2HWjxcdRE6EY1VMYuiv38tT+Lj6MFeaKxePXZl9qOEdEZxpY+a7ZeU/yNoCbqo3G0iV3QJtbMHc+F6B/0yGFFgX/5+z8ys0vOXNYe1/dpJOPw+/d/T88qtnEMNrfxx1Cub2iG1eUVVRdu6I2UeTV94TEkyVfvGFnZB9o5hdx7bLF1312YyYi3adctjZe2zzQd9h9/DG1QMmH2gQWrTh88+URT38XRNczAzOvomecLfzrDLBAgD2TYuvcO2kFraBMtr9t+HeJhaXruqk5sQg6iIohPytUxcjt5/tXGnTfRmVe6zjcfmO458uj0Za3bj8zWbrvGNLVl7x0sZR1cQ40tvJG/bNt/9+YDE1TGLjjoyI8rFCzXmf7A1TOXtZavv4jZAc+iDtP4jfsmKGzr/6wDSEPQFBpEs2h858H7x86+eKblgDPF+ap8tBF9gfIOq0rgkR8dRsSzdwlduu48SqBWeFT6P/7xz/oG6YNnVpAEQ/yVrhOXV/2vf/37P7J/CNSCqlodQzc8hQrtGoGoh089QyOI6v/5+O/tu19i4rOPnnmBZ2csOv74pS2vUiRv8B///Bey2St3DHccuB8YmvT3f/zzfz/+wzZKnry2S04rQH1hdV1JmeDtu/fCqtrr94xnLj6u8cIG0w2eYuojpecU8QTCWpRgF0wruLyw2t07isk4mH+4zslpnNOXtJACoA7TOLL3ny++Rv19xzSwnEH/mTbxFE6/qKSSWWvgfFU+2oi+QEmHVSjwyA4OI66iMxHRbQ5L6pvuP7FElHumaS+qqcc4Rk34A7CBH1H4XMsB2Wm7RnYffhiTkP33v/8DgZQvFENOPGIbJbEJ2XuOPvr5omZ+YQUmgmbpm7JyIbeiurX13T//+S9Idf+pJSKzpL7537J/zc2tZVwhsnr0hNEM+qEmXCoq4SNsQuNybtW//922FhDXNvAFYkw90B7V5A4jwnv7x+Hy4qRq6xrR/6rqOlzqf/3rX6nphYd+for4rOjw+h3XfQLiME2gRCp9gzYxceDs/vXvtqOTw/0YZRyGM5v33PYLSsCIwdDMySs7e+XrCTzyo8MIkphEjpx+hnilb+qJGIvhi2iGMAXlEpLz0LcacYOeiceClacBNmpqG2SScCCJosOrNl9BjIWEMDYuMXfvUQ0cBY/Y/rsstiOkI7wjTiL2RsdlYXccFPktnIxLzDl54TVmAbTDrIfl2YE8VKInsNrTLxbtIJ1GtMSBfvnlH+gk9EMm/OCpFaeoAtUYh6HolduGmCYwI5SWC5GKT1907MT5VzhWjbi+sLgSjRw9/VzuMK7/rYemuALQFZOUmbXfig2XNu2+hSM2NbciJpPD/RhlHJ46/whSQcz0GGEYImbWvgtXneniizq9AqPf//72HwRApDIy9168+tyF67qyQPfv3PxyCLBm6zWAUZ7HKUch8uHLtwwUHcai0cMnBlG3WdpqZuO3cddN1Mejha2/tOUNoqVPQLy2oRuCM5wR1zUiQp66pLly46V5K04x9+E7d7hKJLmrYcFMc8fPvUQ3IBvTDeaMkBdg0YslPePwhet6RhbeCPgI3e7e0as2XUadyXMPo0swGb39afOVIwoOY35B2EdC/v79330D4xHDmWaRXSel5jPJCDncX1Eyl4YnsIVJVpGzvdRxnL305FfTmNGPSWsxiaAPSBgxp2Ctu2j1WVRAsoqVJ7MmbIt4vwWrREQ5RYchJLOgRTvIXdvVb33zDmJAHn0TD+yL/BbNglpJk39QIlbRk+Ye6txhJt1lOo8N/IgDZeaUwEP5ScFnZrGNXTDdMK0hLTcw9cT6ueNFUGz8ySu7D/WlbwzNvWYtOcHUwUyE2QdzEDncj1H+npYKNZbr5+wRYWrtWy2SoA9ZuaU/X3jNvLkCilbK0gRknkmpnLCoNIAcOCklPyWtAEIiWVV0GMkwlgbQFX5CiciYTNSPiMmIS8pF4h2flIsgjNC3ZO15zA5e/rE4Fk4cQQ/BPy2z6NDPz7ruMOaC/AIu4nCBLO1nrhi6fUfDHHkE4zDWzLZOwVhvIwswtfKdu/znkbLXohCu5688DbDgxynIG8e5WDsEtba+xXRj5xyCfjLHQjodEpGKWYkc7sf06LUlVWmsqN+5azrBYSkINa1tL8yGr9h4CRWOnX2JVTp6BVuQl06cfXDSnEM7Dz149MLmtZ4zIt7iNecUG9l95GFb2ix909L61sYxaNm6CxNmH1i69jz2xQoWUW7v0UfIS5++tn+h7ci84IQlaHpWEbPkxuoUldEO+vDm7XsXz0hksxPnHDx48mlHh/cceYhJATs2NrYgxi786SyERJLs5h315s17xuHTl7WQWjPr84joDBx98txDKzddxtHhpH9w4tU7hqgjb/zcVR2sbuokTfgxI6v4zGVtrJ8RvTEXlJQJ6J5W/6an7/FQ1FhQVYuRNGX+kb7u9G9uR226jJFaUSlCdopEF9vjZx1Ys/UqlICQWE/GJuRcvKGH+InBjWwZe3n6xa7ddr3dfelz13SLSwVtZyGsNbH0gRUOLqHIlhHMy8qFV+8Y3X9qJTvNfzFr7J8vakbGZGDuqK6pR+qLhbGZtR9SWViHyGxo5nXy/Kvz13Q7OowrhvkCAkOt2rpGL9mNrqDQZOY1JPl9aaToaAeqIxRD2lsPzRCZxbUNzGleumnQLsgfPfMiM7sE9dGBrJwSPRMPBPCCYt4/ZK94kcP9mF54ryWjMRJaSX2Tg+web193up1+MNbdJxo/YviGRqZt3XcXucDBk0/iEnMRFTHomZteba/3vn2fkJyHLLRjIzgLrCSRTUCD//xH4T6ZSMLcJ9u67w5cgqWwGuUALb+TvYDM3MeG9oXFlSjv+PqwosNg+/57weEpCNr/+XgkmIaW3777Re7wjEXHkDVg+vhH22tO/yt/yRfBFh1eveVKO4dR//FLW+jNdAD/0D0cQtryFiXkcD+md/7mAUMcaR4yw7XbrvVKg51z6aY+giriobaBK/PO5OPnXmK5W1ouRJqK7Jq5A7zz4H03ryh4hfkFIRRZJYLegRNPmGc7vlFkwcrT0CApNZ/Hr0GGjICclln4XMuBuU8GNuy8aesYXFjMQ4NYaXMrqgNCkhAwmQaxO7JurJ9xIBzU0i7g2l0jT9+YklJBSHgqlFM8hV2HH+ApdBgd4wvF6La9c0h4VDoqo3zbvruoAy2RPsQmZDP9wWo5J7/MwMxzpew2dcfFNtMBRG9hVR2aLS7lu3pGOrtH4ELhcuGiqXy0EX1B///bwznLTmK5C3Xb/R1CR4cZICTzyg3WqJPnHv5cg1B3scIbs5UDLRz8+ennDqTYH6TKiN6wWl7+yRtmI2Xmoyae/Qp/d0GoA/3f4Y5MnHMQy1dtQ7em5tZ2N3JZwdgZ+yAq0o3MnBIk9pzCipMXXvf1QQm1ZSA6jBiFfBVLRyw1G5taDM28EFpV3quug+iNDD81oxCdh8PpWcWHfn6m8l4RqmIgOoxlKvMms/fv/56ZXXLy/CuVd6lbrN9xIyA48Zdf2l6drpM0YYm+YsMllfeKUBUD0eHj516GR6Vn55b6ByeeuqTZyVpUPYGxxhY+SKSTUjkGpp6rt1xVeZcIFTIQHSaI/gQ5TBDshhwmCHZDDhMEuyGHCYLdkMMEwW7IYYJgN+QwQag3k3eN+MgnK5DDBKH2fHB4J+j4LDlMEGxAUePfBmRymCBYwkeNh0/aMYJBpvTvTl96duzMw0Mn7x48cYcgCHXmwPHb+4/d2nf05t4j17fvvbRl14VNO87+rri0IjMnPyUtKyk1IyklnSAI9SQxOQ0kJKXGJ6bExidFxyZERMWGhkf+Tiiqq+BXlVXwS7kEQag1JeWVoLiMV1TKLSguzy8szc0v+l19U2tdg7S2vlksaSIIQs2pqWsEotqGanE9ArCgWvy75tb3TS3vCIJgC43St6Ch+Q0CsKSx5XfSN78QBMEuEHoZoDQ5TBBshdGYHCYIdkMOEwS7IYcJgt2QwwTBbshhgmA35DBBsBtymCDYDTlMEOyGHCYIdkMOEwS7IYcJgt2QwwTBbshhgmA35DBBsBtymCDYDTlMEOyGHCYIdkMOEwS7IYcJgt2QwwTBbshhgmA35DBBsBtymCDYDTlMEOyGHG6jvqlVKKqrFNbU1DU2tbxDSUPzm6oaCU8gqhbXN0rfogSP2GZKUB81UR8/AkGVGD8y1Zpb34slTXgKu6MRpqSuQSqorm2rWV2LbZQoHkIR7IjdmQpymJqVsmfbeig7UHf7zJQAVBbXNfKrxGgQ9dFOu8P95qAf+yNpbBHKTkEOfkRhu/rys6iqqcOZMh37ZMttLYjqcPSOR5SfEWCOiyvMtKZ42XnyC/KpowwcyOE2CorLjUwtrt+64+rhjWGEklxOkb6hyeVrNy2s7coq+CjBI7ZRx87RJa+g2NPH/9ad+6gA7j18bGFll5CcDlUw1ELCou4/fGxsZllYUg5zynkCD2+/BxpPUBOP7l6+pVw+yvEs6jAtyMGO2F3uBuRBm1ExCa+1dK9ev3Xz9j0zC+vMnHwcpaC4rFt9rqisQmsY8elZuZY29rfvPUCDL15rB4aEo4fMdKMI0z15fzKy87V09BW7ih9R2K4+89S1G7dfvNbCmWZk56H/inMEtnPyCnUNjNta0EULefJnmRbQW0cXd8jJFDLHffbidVxiCmZAxcsOsI0SHELlQ0iFkMNtFJfxzpy7+M233506c66wuBzzuo9/0JJlK/7n93/YsHlrdFwSxllsQvKmLdtGjRmL0ZnDKXr87MXwkaP++rdvhwwbDv76t+/mzFtgZevArawyMbOcNGXqrj37UtOzS8p5MHz02HGDfhyKfX8Y/OOoMePuPtAoKquAS8dOnBo2YhQYOnzkdz8M+sOf/jx56jRTc6va+mamY4iBtg7OaPlv330/cvSYIcNGoBpajolLwrzTrT4j8GKsOzq7LV/5E/b6ftCPg4cMRf9Hjh579catzByOPFAzoPM4EE4Ep1MraQqLjFm9dt0f//xXnMKwESPR5x2792ByaVcfp/DdoMFDh49AtW++/X7x0mXmljYV/Gq5qJgO7J1cZ8+dh35OnznbysZefrJMCyhftmKVl28AM5Exx12waLGbp085T6h42dGHGbNmv9bWxampfAipEHK4DQxuXQOj8RMnbd2xE+EUwcrQxGzC5CkYT/MWLHR280Tc8/UPXrJ85fyFi1zcvcoqBMxgWrFq9StNHQTJLdt2wq7NW7eHRkQbm1owDienZQYEh6HOiFGjEfQQMGHL7Lnzd+zaExQaUcqtRJumFtZAU0cfhZBq8bLl7p4+8gwTAf/4ydMYsmgZQ19L1+CnNesgKuJVcVlFt/qM/Bk/QmBMB4uXLr9+886TZy/37Ds4Ztx4SH7vgUYJt1LxmnzS4fGTJl+4dAVHR5/dPHwwd7SrD6+OnvhZR9/o1t37OPHvBw2eNWcewj66x1TDWd+4fReS46Tw7LmLlxF+FVtA/7/9YdDJU2fTs/IwMX3SYeayow/IMqLjEjHTqXwIqRByuA1kkkh3Fy5eihGPgV5UWnH95m1Em79998OESZM1tfWQbZpb2U6dPgMuIalDpscMphM/ny4q5UI5J1ePufMXLl2+0sXNy9DYjHE4KSXD08dv0ZKlU6bN0DMwZr4DOjktKyk1o4wnkK/icPTgsMg16zYg0qJZRC15xzCO9+4/OGjwkHMXLqdn5iIfRiIdn5TKKSyFFd3qc2k5I8/I7Tt3I4w3StuOjhOBDGPHT1i6YpVvQLDiwvKTDmN2cHB2ReouljQiTnZSH4E3K4fz85lzmNp27t6bkp4lbW1LpHHojZu3jp84GeeLfq5euz40PIpph2nh93/805//+s3kqdORQqN7YRGfcPjIsZPZeQXoA2J4x1XAQIMc/gDE2Lp957QZsyysbDG1b9+1RxYw986cPffC5auw7uHjZ3AMgxJJrNxhCIbKWLNhwTZh0hSMS5hg9DEOY1DGJaTs3LPvL9/8DUkyFMLiE2FH8a4Vhm92XuGZ8xcRmg4fO4EEW7FXWNAioP04dNjwEaMOHj7m6OwOh4WiOmbQd6vP0HjT1u2IutAbLcgPEREdt3bDxomTp6DbigHt03F44uSLV66ZWdogAIZHxSouRNvVl8ruuiEdgPYI+96+gcjV0T66OmPWnK07dmFhv3vv/inTpmPKE9U2yFvAyS5cvGTSlGkrf1qD1QESmY4O4ylkLugDcoG8ghK6p6X6TqgDWLheunJt4pSpyDCxBF22ctWuvfsxUJC2bdux29nV8/DR4xjBugbGGLhyh4eNHLVg0RKkiz8ObVue3bxzLye/UHE9jEDh6ROAIYslMSLSD4OHbNyyFZltVc0Hi9AUAg6GMpJkv4DgdlEFoxMR7PzFK5OnTR88ZBjS4Flz5yF1Lyzh4qlu9Vkm4fqJk6ca/9ZVtI84iWz/6YtXigvLL66HL129XlLG+1x9qez2FZYMK35awxiIU+MUl529cGnUmHG37j5Iy8zRePJ89Njxx0+eyuMUK7Zw/+FjLD0mTZ2GpT4WCCs/ttBxPYzZx9svcICHYnL4A7IlsTFcOnDoyJ17DxctWYYAGBQauffAIWTIGFXrNm5avHSZl48/4oncYQxoWDF1+syly1doPHmWyylGgqfoMMYx6iMH9vELvHj56qw5c//yt2+xoMXIQznSUS/fAKxRp0ydjmRbUF3brlfMl0QjTCGKPn3+CqMZEwGWry9fawtFtd3qc0x8EqYPpM2YMpj72Ez7kTEJ6zduxlkYGJlyK6vkr4p9cT0cHBYlrPk1nnd0GGfn6OI+Z/4Cpg8IyyFhUZiqEGNfa+thaaBvaDJ95mx0FfEWPZS3gIwgJDxqx649uLBbtu1Anc+th5GYZOUWUBxWfSfUAYwhjDOMthmz2kYV8j8ke5yislt37iM1Xbt+I8YTElekr1JZ8GQGEwIdst8qUR3iLTOSMHzlDiPEoWZyWmZCUhqyYtRxdffCcGQGetvLPJm5J06dQYg+c+4iMuqOvULAzMrlRMcm5hUUY3cmZv6/P/zx5KkzWAB3q8+of+nK9cFDhu7ZfxA+o2U4hl5BaUi1fOUq5L2evv6YC/SNTHPyCrEKwL4fnKxvUry39Mm4xxiIucDIxFxUW1/b0IyeX71+E1cJfU5MTq+ukWjrGY6dMPHbHwZNmzkLHUb+gqU+QjGExPylOAtUCkXILOYuWIjl8f/8/g/tHGZuQ6h8zKgJ5PCvMMtLGIJBg5k+ICisWizBiMS4RMk3331/+er10vK2m7ft7mkpNqLocHJqJpJJZLBjxk24ffd+VEwCWps7f8GM2XNs7J3KKgRYmmJMI1IZmpinpGenZ+Xl5hdhNMtXy/mFJSdPn/32+x+gASI5VpWbt27Hj9du3Mbu3eozjHXz8F62YhUW3uibtZ0jcoE79x/Cc4h99catnPwi9Ap9mzNvPtJ1rPARAJmuShqljMOYLHT1DTGVoKsFxWUd18+Yj7CgCAyNcHL1+Pn0WSy/kRLr6BvipBAwjxw7ic5jiT5l2gwcF48jR4/9yzd/wxIgNSMn5beRvLiMd/vuA/S2o8O4GkEh4ehDdl4BT1Dd7lWxgQY5/CsY6xjxGPeY+5GOIsBicLS96Lq87UVXJsIwr5F00WEM69JyPlZ9EyZP+dNf/opG/vCnPw/6cciRYyeS07LkL6UoopiLAnF9s5OLB/OKLkQFWBIjHXX39GFePu16n4FAVIf8c/HS5UjImfj2579+M2rsOEwTCcnpyCOQMiCz+H7QYDyLY6EafkSh9OPrtIpdxY8olJ94u9PBmX77fVu8vfdQI6+gBKEbExAWEW0vNVnbVfCrsRaAfgi28xYsmrdwkYubF7IVRYfRH+QLyKjRyXYOy4+CbZTI3xAyMCGHf0Vc12jn4LxuwyYkpVhwMq/xYLI/e+ES4s++A4eCwyKZKR8yYM22cvWaew80mHgop65B6uzqsXHzViSuObL0GPEES02sORHWECofaDxJy4Rp7/As6qBlRbAjdkcj8gaxGPby9YdLbWN9wSLMGoEh4fIA2PU+MyAhj4yOv3T1+qKly9CfTVu3y15q5jGRHzUTU9Kv3byNZ3GsC5evJiSnMbsj4B8/eUqxq/iRydIZ2p0OAv65C5f9AoKZe9d4tLCyRUpy6sw5zF/yvZiuohzPwmG0oHgFcJqI55u2btu7/yAyGp5QxFx2+VGwjRKBwm32AQg5/JVAVEEs6knWh9178QYs09on3ynd68ci+hRymCDYDTlMEOyGHCYIdkMOEwS7IYcJgt2QwwTBbshhgmA35DBBsBtymCDYDTlMEOyGHCYIdkMOEwS76QWHm1vft31mem1DVY2kSlRHEERXqZFAnM99TP9Xcrih+Q1PUJ2SnuUfGOLq7uXi5kEQRBeBMhAH+kAipf9QrEcOY/7IyuXY2jvZ2DlGxyZk5uTn5BcSBNFFoAzEgT6QCCopfnPN13C4qeUdeuDs6hEz4D+kmyB6AvSBRFAJQinx+X7KO8wTiDy9/cIiopWbPAiCkAOJoBKEglbd3Vd5h5HE+wYEl3L5Kj9/gugHQCUI1faFGN3cUXmHwyJiAoJCFb+9kiAIpYFKEApadXdH5R0ODA4DKj9zgug3KOcUOUwQ6gI5TBDshhwmCHZDDhMEuyGHCYLdkMMEwW7IYYJgN2rtcFPLu7oGqVjShMcB/o3PBPE51Nfh+qbWolJueGSMt28AHrHd9bdYN7e+Z+hK5UbpW6GoDgzwL6QlWIqaOgydsnI5hsamN2/fZcA2SrqoGUI3TyDq4t9F8avEnj5+Xj7+2FD574MguouaOlxVI4FU9x9oyB3GNkpQ/sV9kXWnZ+W6unu1fTW27Ns0AWI4EnJMAQjOeMS2pLGFyc9r65tT07NTM7KxIZVNH3gW2xSWCVagpg5zeUJbe6dbHwUG2EYJyr+4r6LDguranLzCzOz8pNSMyOj47LyCSqGIU1gaHZsQn5iK1iA5ZOYUlQKoW1ffjI3I6LjwqNic/KKausaefNwJQXwF1NRhrE7b4vBDhTj8sC0OC7vw3e2KDudxii2sbF9r6Zhb2hgYmWjr6Fta21rbOpiaW2rr6js4uZaU8YSiWmdXD8DjV0N1Mwtrc0tra1t71ImIioPGKv8lEUQnqKnDyGMzsvJMzCzuP3h06849PGIbJV3Jb9s57ODkEhIehbUxlrtuHt5QOr+gBNl1WkaOk4tbcmpmpbCGcTiXUyT7cC/PohIut7IqKDQChQVFZSr/JRFEJ6ipw1LZ5+blF5ZAKgMjUzxiu4sf/9XOYTgZm5CMfaFxcGiEu6dPeYUA1ZBRM0/xBCLG4ZS0LBtbB4RrR2c3/Ihw7eTiDrHpZS1CnVFfh6Wyl4jgD2IvHru+LlXaYayWka6je0iqq2okWC1X8Kvp4woINUcdHYa08A0pbml5JSTMzMnHI7ZRgvIvptNKO1xWwccC2M7BmbnjZefg5OMXKKAXnAj1Rr0cRrAVSxpzOcWQR1tH/+69B/J7WthGiY9/EFazsLGTsAyHoW5gcDgei0q5AcFhqRnZcLiuvjk2PgmrXOYDxErKeMxTguragKBQIBLXI/yGhEVqautpauv6+geV84R0X5pQc9TL4WpxfWhE9IuXmjcVXlVqB55FHdTsoytSVFoBn5NTM+sapCQwof6okcOIn9m5BQZGpp0IzIA6qNlHt5qQaaOHvgHBBcVl9DYPQv1RL4ezcjim5paPnzzvHNRBzT5yGLG3tr4ZCTbzti2CUHPUyGHIw+NXp6ZnxSemdA7qoCYlugQhVSuHCYJQAnKYINgNOUwQ7IYcJgh2Qw4TBLshhwmC3ZDDBMFuyGGCYDfkMEGwG3KYINjN13Y4JCwSx6O/JSCIXgEqQSho1d0dlXc4PjHFPzCEX1Wj8pMniH4AVIJQ0Kq7OyrvcFEJ19c/KCUtk0IxQfQQSASVIBS06u6+yjuMo0bFJri4eeYXlHT9u1cIgmgH9IFEUAlCKRERlXdYKvsOB0R/OwfntIycSmGNUFRXRRBEl4EyEAf6QCKo1JUvP+llh6Wyr0dJTsu0tnUws7B2cnFzcfMgCKKLQBmIA30gkdKfVNFTh+XJQEVlVV5BcU5+IUEQXQTKQJweLkV7x2GCIFQFOUwQ7IYcJgh2Qw4TBLshhwmC3ZDDBMFuyGGCYDfkMEGwG3KYINgNOUwQ7IYcJgh2Qw4TBLshhwmC3ZDDBMFuesHhppZ3tfXNQlEdX1hTSRBEl+HLPjkD+kAilTksaWwpKq2IiIp1cnG3sLI1s7AmCKKLQBmIA30gEVRSgcM4akpalp2Dk6e3X1Yuh1tZpfKJjSBYBJSBONAHEkEl5TTu0WfipaRnuXl4Z+VwepIJEMQAB/pAIqgEob7qZ+KVVQi8fPwTktJUfgkIoh8AlSAUtOrujso7nJiS7hcQXFFZpfKTJ4h+AFSCUNCquzsq73BoeFRAUGhD8xuVnzxB9AOgEoSCVt3dkb4zjSDUBfreQ4JgN+QwQbAbcpgg2A05TBDshhwmCHZDDhMEuyGHCYLdqLXDTS3v6hqkYkkTHtXuzdWtqu4AQchQX4frm1qLSrnhkTHevgF4xHbXv6yxufU9Q7uSXrlkaKdW0sSvEuOxY5soqW9qUcdJh+inqKnDjdK3WbkcQ2PTm7fvMmAbJV38+wyEbm5lVVWNhBEJ8lfK/my6V7xCH1LTs5xd3VMzsjv2R9LYkpmdl5CcJqiuVe2vlhggqKnD0M/Lx//+Aw25w9hGCcq/uC9ETc/KNbOw9vELFMpEKq8QuHv6BIdGwG2pTELESciGjYbmN3jELtiA6gzYZsqZ6K24zexSXFoRn5RayuWjBPtKGqR1Dc2MzzgEDoTD4aDMvoCZO5jj1tY3K/GXYgTxOdTUYS5PaGvvdOujwADbKEH5F/dlHNY3NNbRM0A8hKu/OlzXCIXyOMVIzuMSkvMKirNzC0rKeUiMczlFiKvJqZmp6dmFJeWcwtKC4nIoV1PXwHzzem19E/bFUyVlvHKeECV8zCiNLfgxJj4pIjoOLYgljTV1jYzDMBwVsG9RCRdig/zCkoio2LCIaBSiWm/l9sQAR00dRt7bFocfKsThh21xGOVf3Jdx2NLaTs/A2MXNs6C4DDoxDmP3xJR0pOW6+kam5laGxmZ6BkYozy8oCQmLdHR2w48gOjYRpmEdXs4TcIpKEdItrW0LS7jFZTzE9rjElOS0TFd3r7TMHEwHNnaOJqYW1rYOAFNAVU0dGnTz8MrIygsICkWbcBvGRscmGJmYmZhZABw3MjqOSQoIooeoqcPINuEAhvv9B49u3bmHR2yjpCtZKOMwHIOW0B6Hy8zJd/PwhloQ0snF3cXNo4JfjRQ3KTXDzNyKybERFcsqBJ7eflC3orIqK4eDDaxsk1LSrWzsbewc4C0CtV9AcF5BSXpmW/tpGTkZ2XmYHeITU0q5legeIi2WwWjQ2tYe9to5OKekZyE5R+6N2QTlkBnHCg2PdnByQSRX+a+f6AeoqcNS2R9GQgmoYmBkikdsd/GvjuUOIyvOzM738PJF8IQzUAg/wiXkvUiSUbO0vNLV3ZPJsatEdUEh4bK4XS7zmQ9dwyJjkHXj/9jGjBAaHoUivrCGaR+PFfwqX/8gxFV7R5fouESeoFpU24AGn714BRCHReJ69AeTCNMfZu2NAM7sTveuiZ6jvg5LZa/TYJQz477rq0e5w3hE3IuMiccsoK2rz8RhBGQozROIoDEiJwImygXVYqycHZxc45NSESebpG+hYmhENGIpInliclpUbAL0Rpux8UlYFX9oPzMXlRF4sTzGjsi3IS2sRoPmljZWNnbYBVMP+o95AZMFpoNqcT1ajolLdHb1yM4rIIeJnqOODmPQw41KYQ3iJBacCGJ4xDZKUP7FdFrRYWzz+NXOru7PX76GWpVCUURUrLmFtY9/EBaoUJRxG5kzVrMQDyEa2S+3UogEOCUty8DIBMvdwuLynPxCc0trU3PLtte3mt8w7aMmsmuICjmRlqM1RHJk6bL1sDeiLjJzpO4QGJ7jrJGTI5gDrNXRAUGVWOW/fqIfoF4OI9iKJY25nGKESm0d/bv3HsjvaWEbJRj6+QUl4k+9uUIOvIXzgcHheMQ2yM0vglQIoXX1zfwqMRxDZEbYhHJY9KI8l1OEwKiprQvgKsxE3l5SxkMhsmik2Yjbnj5+ABuK7SOoIkpbWNno6BkiacdEgyiNBoNCI7iVVVjxwnBIixYwAWEDWTcOjX2RddN9aaJXUC+HkWoig33xUvOmwqtK7cCzqIOaPTntXnzblvRjzt+Vmsyc0ke/S2JgokYOY3Bn5xYgTHUiMAPqoCbJQBBSdXMY61KsOR8/ed45betS+oh5gpChRg4jI+Xxq1PTs+ITUzoHdVCT1pMEIVUrhwmCUAJymCDYDTlMEOyGHCYIdkMOEwS7IYcJgt2QwwTBbshhgmA35DBBsJuv7nBIODlMEL1Im8Mh4d3dS3mHQ8OjAoJCu/5J0QRBdAJUglDQqrs7Ku9wYkq6X0Awt7JK5SdPEP0AqAShoFV3d1Te4TJu2+dUJSSldfHDsQiC+ByQCCpBKGjV3X2Vdxi0fbCrh1dmTn5tfTP9/SBBKAHEgT5tn7Xo4QWhlGihRw7X1TfHxCU5OrtGxsQXlXIrBaJKYQ1BEF1FIII40AcSQSUI9bUdlsr+VLiguNzNw9vY1NzEzNLMwpogiC4CZSAO9GE+R1k5B3vqsBxJY4ugulb1ExtBsAcoA3F6qF6vOUwQhEoghwmC3ZDDBMFuyGGCYDfkMEGwG3KYINgNOUwQ7IYcJgh2Qw4TBLshhwmC3ZDDBMFuyGGCYDfkMEGwG3KYINhNLzjc0PxGVFtfKRRxK6u4lUKCILpMFcSBPj35QKueOlzX0JyTV+jtG2Bqbqmtq6+prUsQRBeBMhAH+kAiqKQCh8WSppi4RAcnl4joOB6/ulH6ti9SBYLor0AZiAN9IBFUglBKNKK8w4j+8Ykp7p4+BcXlKr8WBMFqIBFUglBKJNXKO1xUwkUOkJqerfLzJ4h+AFSCUNCquzsq73BcYopfQDC/qkblJ08Q/QCoBKGgVXd3VN7h4LDIwOAwWgMTRK8AlSAUtOrujvS9hwShLtB3lxIEuyGHCYLdkMMEwW7IYYJgN+QwQbAbcpgg2A05TBDsRq0dbmp5V9cgFUua8Ngn3zbeqvpfAEH0EPV1uL6ptaiUGx4Z4+0bgEdso6SLR2luff/r97K2/uZHZhvUSpr4VWI8fvIbXFEoaWwBSn+/K0F8HdTU4Ubp26xcjqGx6c3bdxmwjZKuvEkTdSBnpbCGcb62vrm8QlApELX9bUfrLzV1jTx+dVWNJCUty9nVPTUj+5Ntiusak1IzADZU/ksiiE5QU4fhmJeP//0HGnKHsY0SlH9xX1gaGBLu6u5VxuUjisJ8fUMTe0dnqAuNk1IynN08MrPzi0q48UmppbI6AMLDdgReJmkXiuqcXT0ANlCCHQHFZEINUVOHuTyhrb3TrY8CA2yjBOVf3BdxNTElHfpl5xVgIR0dm/haS8fU3CqPU4yldWh4lLuXD9TlV9XkFRTjsS1uC2tS0jLxFKwu5wmhq9xhVOBWCjERlHIre/7l6wTR66ipw1CoLQ4/VIjDD9viMMq7cpT8whI3D+/4xFSeQBQQFGpuaY04nJicDhs9vf38AkMQz9OzchGr0zNzy3kCFBqZmGOOMDY1t3d0KSgqE1TXQmAnF7fMnHx3Tx8XN4+SMh7FYUINUVOHERszsvJMzCzuP3h06849PGIbJV38o0Ushr19A5BRI376B4aEhEfB/6CQ8MzsPGwkJKUhojIOJ6dlIvY6OLniESEX9R2d3ULCosoq+HDY2MQcTzk6u+ZyivrkxjhB9Bg1dVgq+9QehFNoZmBkikdsd/0DR7CyDYuIRnRFegyHkVRHxcTD6uDQCDyiKQjJOAx1Q8IiDY1MrW0dIC10RSjGLsWlFfjx7r0Hmlq62Bc5ucp/VQTxSdTXYansBR7IhtiLx27lsaiflpnj5OJuaW2HaNwWYHM4cNLc0gZ+IkrLHUYcjk1IxgZCdLW4HjWRWss2xKivb2AMtzEXYP1McZhQT9TRYUgrljTBtNLyyjxOMVakeMQ2SlDexXQay1cI/OKVZlRsAjLnMi4fNj59/hLxGVFa7jDWw5yiMiyekWMnp2b6B4UiecZTOJbsnlbbi08ubp54tpwnJI0JNUS9HEawFUsacznFPn6B2jr6SGXl97SwjRKsavMLSsSfeWOGIiJxfVBoBISE/3CP+dHOwTk7twA/ApQHBofjsb6pFW3CWB1dAysbewRwOI/6AUGhAAEZJXg2Nj5ZuQ8BJYg+Rb0cRhIbGhH94qXmTYVXldqBZ1EHNXv3QjB5O915JliHGjkMhRAkDYxMOxGYAXWYcKryy0cQKke9HM7K4ZiaWz5+8rxzUAc1yWGCkKqVw8hjefzq1PSs+MSUzkEd1KS8lyCkauUwQRBKQA4TBLshhwmC3ZDDBMFuyGGCYDfkMEGwG3KYINgNOUwQ7IYcJgh289UdDgnH8egtVgTRK0ClNodDwru7o/IOh0VEBwSF0ofLEUSvAJUgFLTq7o7KO5ySnuXrH1TKrVT5yRNEPwAqQSho1d0dlXe4gl/tFxAcHZdIoZggeggkgkoQClp1d1/lHQZZORx3T5/k1ExRbQN98DpBdBcoA3GgDySCShBKiUZ65HBTy7uM7DxHZzfkAJk5+WVcPrdSSBBEF4EyEAf6QCKopNwf0vfIYQZE/9DwaEsrWx1dA01tXYIgugiUgTjQR4kUujcdJghChZDDBMFuyGGCYDfkMEGwG3KYINgNOUwQ7IYcJgh2Qw4TBLshhwmC3ZDDBMFuyGGCYDfkMEGwG3KYINgNOUwQ7IYcJgh2Qw4TBLshhwmC3ZDDBMFuyGGCYDdKOtzc+l4saSooLiMINlJUWlFVI1G5fqp0uL6pNTo28cDBwyd+PkUQLOPkqdNnzzm5uKtcPxU7nJXDiY5LVPkJEER3wehNTc8mh8lhgq2Qwx+uAjlMsBRy+MNVIIcJlkIOf7gK5DDBUsjhD1eBHCZYCjn84SqQwwRLIYc/XAVymGApvehwc+v7mrrGvIKSwhIumlXJ6ZDDxICjFx2WNLYEhkbMnjd/87btnKIylZwOOUwMOHrFYUTgugZpKbfS3sl12sxZa9ZtiI5PElTXNjS/+cqnQw4TA44eOgx7a+ubkT+7eXhfuHx1/qIl33z3/Y9Dh63buFnjyfOwiJhynuBrmkwOEwOOnjjc1PKuUihydfdavXb9H//8l8FDho6bMGnKtOmTp04bPXbcdz8M+n7Qj8dPnopNSIbnX+d0VOAwpjGg2t8iMZBR2mEIXFYh0NTRHzNuPALv8pU/PX3+Ki4hhcsTFpVyfQOCL1y6On3m7EE/Dlm8ZJmnj3+tpOkrnE4fOgxRG6VvGV3xiPPHj5LGlsKS8jxO8SeTDSZLqRTWqOoWHzEQUM5hDE5+lVhX33jEqNHjJ05+qPG0nCdsVwejOik18/DR4zB83sJFfoGhGPN9fTp95TCMxaogNj6pWlwvSz9qEpLTCorKCorLL1y8fODgITzbcS9JgzQsMub23fu5nCKV/6YJdoFh1sX8TjmH225BB4fPnjt/7PgJOvpGTKrcKH0nqm3A8IbeKGFiFaLU2QuXBv04dOeuvfkFJX194n3lsFjSaGZhPWjw4LiE5Ap+1Wstnbnz5tvaO+FU7RycjUzMP1yC5jdVNRJcArGkSfa5Ah/2ik9MkV2gt5gCKgWimrpG+a/nk4XEQIZ5kZZTWMoX1nRlSCjhMJot4/LPX7yMFe+5C5eYA2EMp2bkGJmaX7tx+879R44u7kWlFRifiMbxiakrV68dOnyEvpFpX9/f6mOHBw0OCYu0d3RZumz5K03tugYpXA2NiPYPDMH5Yxuuauno3b3/0N7RGecvqq3/YH5iiqRRmpaRo29ogrBsbmGdV1AsS8U/FN6598DCyhbh+uvfyifUDYyl6NhEfUNjNw9vQbX4i/WVcLihuTUqNmH+gkUTJk/x8QtECQZzUGjkshWr/uf3f2D49vsfjh4/mVtQDL0RmV5p6WBhvO/AISyh+/T0+9bhv/3tWx1dg337D169flNQXYtybmXVpctXUYK1BPRevmLlosVLtm7bPn3GzFOnz3KKShmH0XJyWuamzVumTZu+ecvWadNnHD5yFBNtcmrmxk1bUHn7jp0LFi7as3dfdl6ByscQoRIamlqFojpkdhgD5pY2foEhjs5uyPu+uGO3HEZujLwPAcbY1GLQkKHbd+0uLOWiMJdTvPfAQbnADIOHDH2o8UQsacYhQiKiZ86eM3X6jJDwKCbT7KPr0LcO/9d//Z8ZM2auXr0WlZlyucM5eYW3bt9dueqn8MjYzJx8XKBZs+c4OLkyDgeHRugbGM+bvwA5CdYhkdHxl69e9/Lx19bVnzhxkqe3X05+oYubx7LlKzD7UkY9AEFSVlhcbm1rb2Vjb2Bo8vjJcwMjUwMjk153uFossbZ1PHfx8qo1a7/7ftCZcxcQYzEmMWWMnzipncN//us3GzZtQShC95Bmr1q99tsfBu3auw+ZdkBQWB9dir51+L//+78RaecvWOjh5Vvf1CL96PDe/QeSUjPwCCF379m7d9+BzVu2LV26HL8GxmGkK9dv3t6xa3cFv1r68RY3t1J48dKVIZgLd+CyHMDjqlWrX77WwgVV+ZAivjIYD3mcYkMjU0zoOnoGGk+eQSrEgNDwKGR8iM+dxL1uOVwpFN28cw8rW9iI3PjO/YdI3QGOBWPbOfz//vDHqTNmpqRnIVAjzGzdvuv3f/wT9po+czaWfn10KfrW4R9++MHZ1f3s+Yvr1m/AckLm4Yc4nJ1bcOPmbaiYkZVXyuWnZ+YmJKWVlPMYhwODwzS1dBFm45NSkckUFJdh5ZxfUILF85q162Liksoq+OgAJl0uT0hxeADCOIyVmq6+IQS+d/8RAsBrTR1gaW1nY+cYGR3X9JnXdbrlMOaCwOBwfUOTQ0ePfffDIKx4mdc+w6Ni585f0M7hb779bu/+g8VlPHQvMTl9ybIVQ4YNv3H7LiJ5fFJaH12KPr8vHROXmJaRA1cRdbEL1veMw9DVwcll9py5+AXYOzofOHgYniempDN74ReAdBoOnz5zTs/AGM8imEfHJqBwxYpVV6/dcHJxO3P2PNbSqKny8UR8fT7EYWMzpGzQGLl0UEg4Yh2Wo24e3o7OrkEhEZ97bVaJe1p19c1odsSoMWvWb8DST3abWnD1xq1vv/9BLjBC7sTJU0zMLOub3tQ1SD19/CdNmbpw8ZKM7Lw+vRR95TCSDVd3ryVLl6Vl5iCLjoiK3b1nn6a2bnFZxbMXr67duIVFhbC6FsYuWbJs/ISJsBo21kqa5HuJ6xrdPX0QdceNG795y1ZkSviVKBZu2rwFedRXeA2dUEMYh/UMjLAefvlK68Gjx3YOzrr6RvcfPDKzsAK96zCaQoa8Zt2G4SNHWVjb4UeQlcs5eerM2PETUThi1OhZc+Y9ff4KaTwMx7rv+q07zAtRXblV3hNU/35prBw6eVcWLgeebZctf7KQGFAwDhsYmbi4eSI2PHr8FBO6sak5ZLZ3dLG2dehdhwG/Sqzx9PmgH4fu2LUH9jJvKamuqY+IjrOwsrNzdEnNQLhqe6UT6bePf9DsufMnTp7q4u7Z1wNV9Q4ThBLAz4LiMkssNJ3dkFFraetBZnNLm9daunYOTojJSOt61+GG5jcJSWlrN2z6ceiwC5ev5heWdHxvAvNuEyyVN23dhmqXrlznC2v6+lKQwwQrYd4mVVLOw+qsIyhH2PxcAFT6bx5wRE9v/7nzF8jevHE4PDIWOTOkhcxoE8tDTlGZvaPr0uUrvh/04849+9Iyc7/CpSCHiQFHT/72UFzX6ObhvWLValiKZfDxn09ZWNkGh0b6BQRraush/P7tu++xNj589HhaZs7XWe6Rw8SAo4efAYCom5aRc+7iZSx3h44Y+c233/3+j3/6w5/+/N2gwSNHj52/aPErTR1uZdVXOx1ymBhw9Mpn8aCRnLxCQxOzXXv3Dx46bNyEiecuXnF194K9X/luKzlMDDjoM/E+XAVymGApvehw25f4xift3LP37IVLJeWVKjkdcpgYcNBnxH+4CuQwwVLI4Q9XgRwmWAo5/OEqkMMESyGHP1wFcphgKeTwh6tADhMshRz+cBXIYYKlkMMfrkKbw7EJ2CAIdiGWNJLDbQ5n5uQHBofhWhAE64iJTxroDjc0v8nJK8RVIAiW4h8YonL9VOkwQRBqAjlMEOyGHCYIdkMOEwS7IYcJgt2QwwTBbshhgmA35DBBsBtymCDYDTlMEOyGHCYIdkMOEwS7IYcJgt2QwwTBbshhgmA35DBBsBtymCDYDTlMEOyGHCYIdtM7Dje3vq9rkIpqG6pEdTV1jQRBdBFY09D8RpUON7W8g7dlFfy4xBTfgGAHJ9fQiGiCIL5MeHRQSIS3X2BOfmG1uF7pbx7vkcMQuKSM5+jsaufgFBwaERoeFR4Vm5XLIQiiK6SkZfn6ByHyuXl4VQprlNNYeYchcCm30trWISQsUiiq62E8J4gBC4Kwl4+/s6uHoEqsxO7KOywS17t7+nh6+2ElrPKrQBCspra+OSwyxs3DW9LY0t19lXQYQZ/LE9raO3Erq1R+/gTRDxBU19rYOaZl5HR3RyUdxmyRkJyGBEDlZ04Q/YNaSVNEVGxoeFR3d1TS4bqG5tj4ZKyEVX7mBNE/QFxMTsv09Q/q7o5KOiyWNGHCIIcJoreQNErjE1OxJO7ujkrHYWliclpMfJLKz5wg+gcNzW+y8wr8AoK7uyM5TBBqATlMEOyGHCYIdkMOEwS7IYcJgt2Qwz2jVdUdIAY86uVwo/StWNIkljR2hdr65qaWd587UHPr+3b0+rWTNEgFVeKa2gZ0W9LYAvriKATROWrkcH1Ta35BiY9/kJdvwBfx9g0ICYvkVlZ9ThvMBWVcfmFxOcAGfuzdC4fj5nGKXdw8Y+KS+FXipNQMIK5rVPlvlBhoqIvDUKJSILK0trt99/7jp89fa+loaut+jpevtR5qPAE+foENTa0dj4L4nJ6Va2hs+vT5y1eaOjZ2jrmcok8GbRTiEgBEUfQNERU9wSO2MafIJwhs1De2IPKjJp7FI3bkCaoTktM4RaVw2NnVA9CfUhJfHzVyuKxCYGhs9uTZC5jJrRTWf0pOVENEzc0vsrVz1HjyDNp88g8YGYcRJNtio6QJfkK8T7bGr6rJzi3IzMlPSEqNionPKyipFIrQfiS6mJrBF9agqSbpW55AhAphEdGZ2fkIvzn5hVU1EpBXUIyuksOEClE7hx88evxKU9vSyjYlLataXK8YPNHXCn5VeGSMvqHxsxevvuiwk4t7bEIyLGWWrNgdDQqqaxmwokYJqpmYWeroGZhb2ujpG+noGiAXsLa1NzG10NLR8/T2Q3aAjN3d00dbV9/EzMLcwhobVjb2nMJSgGkCh4Dh5DChKtTLYTMLa0dnN2SncAYmu7p7YTWLXeAk9EvLyLa0ttXS0Q8Nj0IkROXOHTY1tzIwMoGQwaER0KyknIcIb23rwBAZHYdAimoOTi7xiSlIlUu5fFTGU2UVfPyITqIzGVl5eNbW3ikpJQMXi8evhrfwnBwm1AS1c5jRsu3PqVIzEfd09Y2Q4jL3urBIdnByLSnjQVHFyh2Pwjhsa+/o4eULx5Ati2obEHtRCCEZ0CbSbJRgpsAjdoGBchWZFvAUUuqQsEi4WlxagZbhdnRsAuqQw4SaoKYOSz8sVsUBQaGaWrqPnz43MjGHTvKnuuIwBENCjgoNTa2fu6H1RYeT0zJhKQJyWmYOmqoU1iCYY3Yghwk1QX0dZsA6tqiUi9DHF9Z8sbIceRzGghYhNz0zF6vijq9CdcVh7MspKkP8R2sRUXGBwWF6BkY4NDlMqAnq7vAn6YrDeZxiLGKZ16KwgR87hmKmWmBwOPOsSFyPsA9Esntp8qeQ2GflcmzsHHX0DLFQRwX/wBCk9CAgOCw1IxtZunxHlf9GiYFG/3S4L+ijN3sRRA8hhwmC3aiRw+U8obmltY2tAxbA3EphJ5RXCLBMNTIxw3qVHCYGOGrksFBUBycfP33++EmXeK2pEx4Z88k3YBHEwEFdHJbK7jBVCmvwrPwl3E5JTc/M6fW/ZCAI1qFGDhMEoQTkMEGwG3KYINgNOUwQ7IYcJgh2Qw4TBLshhwmC3ZDDBMFu2hzO/ZoO1zfHJSRHRMWp/MwJon8gaWxJTc/6et8/XFvfHB4Z4+TiTu+RJIheQVTb4Ont5/PVHAZCUa2js1thSbnKT54g2E5Ty7uS8korG7v0rNzu7qu8w7X1TaHhUQ5OrvRuZ4LoCRC4orLKy8ffPzBEid2VdxhUi+vdPX2CQsIF1bU1dY11DdI62cevEwTRFbAGRgqNCAyBQXWN5Gs7LJUl8R7evvaOLiFhkXEJKZEx8dl5BQRBfJncgtT0bKyBkUIjAisncC84LJXdE+cUlsbEJ3n7Bri4efoFBBME0RV8/YN8/IOUWAP3ssMEQagQcpgg2A05TBDshhwmCHZDDhMEuyGHCYLdkMMEwW7IYYJgN+QwQbAbcpgg2A05TBDshhwmCHZDDhMEuyGHCYLdkMMEwW7IYYJgN+QwQbAbcpgg2A05TBDshhwmCHZDDhMEuyGHCYLdkMMEwW7IYYJgN+QwQbAbcpgg2A05TBDshhwmCHZDDhMEuyGHCYLdDESHm1vf1ze1iCVNeMQ2U9jU8k7S2FIr+w7039ZsRc26BikqyMuxjRKxpPEjaKpV3pQijVKmJlPhk535hTmEYmcUDySua+RXiQEOxPQB1dBVxTblZ4Tyj3U+NCsvkXXmrai2oVJY09ZaXaPiGf22z29xHZhTlrfc4WR/aXc1sAt2lBfiMqKk3Ul1cjU+eabydhTPQvG3g9aE1bWVAlFVjeRzv4J+z0B0GGMiITnN3tElPDJWKKpjCqvF9eFRsW4ePnkFJfLhgppxiSk29o6+/kGlXL582PEE1YHBYRbWdgw29k6BIeGcwtJaSZPi0MSQKi7jefkG2jo4Jyan1zW0dOwMxmh6Zq6bhze6hMMpPoUBmpXLsbKxv33vAbCydcjOK2QcSEhKc3X3SknPxsBFTZRExyaiZmhEdFVN2xmhPDUj28XdKzYhuUamK840PjHVyMT85u17aM3Sxj49KxdPdRz3JeXocwBOEKfJXCv0X36yjs5u6LDiTMdcDeyCHZkSHA6X0ds3QPGkOrkanztTph38UvCrwS9IsZOwurCk3MvH//HTF1ev33rxWhu/gnKeQLFjA4SB6DAC0eNnL4aPHLV85U8+/kGMBkWl3BM/n16waLGbp498HGTlFhw5dvJPf/nrvIWLXNy8mJogNT17155933z73djxEyZPnTZ2/MQRo8ds2rLN3ctXcahhFNrYOc6YNQc1z164xCku69gZaG9iZrlsxSp0CR2Tl2P4xsYn791/cOToMRMnTx0/cdLQ4SN37z2AwmqxBCouWbbi4eNnPIEIlfMKig8dPf4/v//D7n370zLbvpAa0ezp81dLlq/QNTCG1WUVAh19o7nzF+CsJ06eMmHS5BGjxqxeux5CtnMDhEXGrF67DieI02Su1Zhx44ePHD1l2vSp02eu27DJ0cUdpyavz1wN7IIdmRJcQFzGzdu2K57U565GJ2cKUdEOfin41eAXJD8iymH14aPHx02YiF/BpClTR40dN2nKtGs3b2fm5CumAwOBAe3wtz8MOnP+Yk5+EUJER4cxFGD4qtVrfxj8IwbWo8fPKvjVTAvMqF3x02ofvyDElsjo+IePn86aMxeVEWcwwphqpeWVN27fHTVmHFpYt3FTSFhUx4Twcw5DLV0Do/kLF1+7cRtTSXxS2rmLl9es24BghbwRHYOf8Bb2ovPhkTFQ649//suylat8/YNl4avN6sVLlyMYolk9Q+OZs+euXrfewtoWraWkZ73S0kHjq9asU+wwQ0eHly5foaNniIlAKKqtEtXBRsXo3UWHP3c1OjlT5A4dHcZeCcnpew8cwoRy5doNyIxYjbM4dOT49Jmzbt99gJqfXLb0Vwauw4gtg34cMnvufEQq5IwdHRZUiV+80lyzfiOG1Nr1G7ft2B2flMqM3Y6jFi3o6hvOmjMPEaZAFmFQMzImftPW7eD0uQs/rVmnrWdYXSNp15nPOdwWSF+8Xrhk6bMXryEPtCkp4yWlZhSWcJEOJKdloQPrN26OiI5Dsorkc+VPa6bOmLl0+UpTC2ssLFGOZ1EnOS0T6TRyBDzl4xcoTzGQRZtZWM9bsEjeYTkdHUb3EPmxlsa8xiySFeszVwMnGBIehQoAvUWqv3nrrw53cjU6OVNcHMbh/YeOoARLBtTHFKapozdn3oLrt+4Ul1X82o2MHFRbvGw5VhDyjGkgMHAdxpg+f/Hyjt171m/a7B8Uml9YougwJvIUmScbN29Fhnzn/sMVq1YjFWRyyI4OA6iycctWmBMVmyBtk6QB4/6nNWufv9J0dvXALIC0HHGmXWc+5zDGK9aecGzO/AWPnz5HtMHyD20y/nArqxBwEFed3TxLyivvPdTYtXff/Yca23bsvHHrTmFxOcrxLOpgjYoxvWjJ0pOnzrRzFVZs27lb3mE5HR2ev2jxzTv3gsMi4SGSVfivWJ+5Ggik+kamqADQwrOXmqvWrJWfVCdX43NniskCIdrSxm7W3HmTp07HTBoV09ZPPHvqzPlFS5e5uHkquopdDI3NMJe90tRBvqDyYfbVGLgOQxt9QxMsCDdu2Xb+0pWg0IhjJ07JHZY0tjq7emJAXLl+E0q4eniv3bAJqSASQulnHG5XyCkqRaKOwYq8FxPEqbPn0Rq2263WPucw4PKEegbGWLQj/xw1ZuyGzVuQXpbzBBjciL0W1nbokqa2HuYOpM1HT/zs6e1/4NCRfQcOwaLX2rp4FnUQ5UzNrZavXKXx5DmzeJaTyyk6eOQY8v+Q8GjF8o4O4+jfDRo8bMTIYSNG4SplZOUp1mdO/E9//WbwkKGoIGMkEubRY8fJT6rzq/HJM8XcFBwauXPPPjSF1fjZ8xexBEDltMyc3Xv3I5KHRvym21gR2Dk4I2/SePq88rdn2r8Z0A5DnuLSihevtTAgsBjbsWuP3GEkdYi9qGNgbNY2mMKiEJARsiJjEhAJOzqMuI1F2rYdu7AuhULQLCAoFMMUoy0mPgmzwMvX2oj8L15pCarFaAEVmKS0E4elsrVfOU/o6eN/4dLV6TNnT5sxC7EO0Qk7hoZHb962A9EJS1yoi7PIyS/UePJsx849xqYWyJDxLOogcbB3dEUSce3GLeSo8pY7dhg6MUG+o8NYcWCOMDQ2R6KO9TaUU+wkczWwFkWsRgVgbGZ54dIVrNiZk+r8anzuTHX1jTAr7T94ZOjwkYrr4VxO8dHjJ3HFvHwDFCdEpPqYCJauWIlQj5lL5cPsqzHQHUYil5yaidg1Zdr0sRMmMg4jQ8NQQ2KMNfPefQevXLvx85lzs+bMnTx1GnZBJtnOYfggqm20sXNasGjJsZOnEN+EojpEyCnTZixdtuLMuYuXrlzfvnP3iFGjd+3dj2UbDpqd13ZjCUMNrRmZmi9buerJ85eKDmN08gTVCFmVQlGT9C2qmVpYYb197sIlRsXcgmJ4tW7jpjPnLmCgI2FGMmnv5ApPUIJyPJsru+OFtfGGzVvXbdiMXINJPuUdXrh46fGfT2flcjBPYe2AljF/Ib4h6UU7iHiK16pWthztyBfvaXV+NTo504Kiso73tPhVNc9faqLniLeYapl5p1H6LjOHc/L0WUwNDs5u7e7S9W8GusO1sndBuLp7LV66/Pd//BPjMGZ0ZoWG1A7hZcas2WDi5CnDR45iXhRhRu3S5SucXNwListz8oucXD02bd2+cPESSxt7jELZi1InhgwbPgkjV7Y7/jdi1Jgly1a4uHmhPiYFLCARr5JSM+8+eASH9QxNFF/mEVTXvtLSQX9u3bmXkZ2Ppay2nsG8hYuQL2DgogK/Wvz8lda8BQunTp9x6Mix+KRUFEJXuIf5aP7CRS81tdEICiv41Zggps2cdfjYCaxpOUVluflFWDCjw8tWrHRwckWOjdC9fMWqm7fvJqakYwm6eOmy4ydP5xWUMNcKi89nL15DdYTQ4rKKqhpJ1+9L84Sizq8G1vafO1NkSYzDBw8fxRSDfgpks15bDrJ1Oy4gAi96hV2QU9x9oIFzPHHqTHaHmw79G3K4LbZglGs8fYFRxTiMxdvV6zeR+2FGr/84oyNi7N1/ECs6aIDQjVE7aPAQhAtM/HgcPXY8tNHS1UdCiBGMnBCrO0YDZnfEXjMLa7T58PHTPE4xtufOXzhm3ISZc+aOHT9hC/LeiBgEE3knEZ2wGty6fSfGPTLePfsPYoBi7eru6cMEGTxCv9lz533z3feXr15nFupMcP7jn/+CMOXu5Su/C41Z49rN2+MnTh43cRKemjN3Ppadc+Yt0NLRQ4dx3LCIGBwFcxYEmzRlKhIKpMSYU5hrhQwFUxiUw0VDl5CcK74dpXOHmQy5k6tRyuV/7kyhK+MwkiDMepev3cRUEpeYUl1b7+rhjVUALiAu/sIlS9FnBHb8giKi4gba2zwGosMCUZ2RqcWho8edXT3k71VAZnv67HkMAiScCUlpp86cA8lpWfK9kPfqG5rsP3gY5sBhJIRMSAEYcIghWCozIxtD38LK9sDho4jJoo+hFYEL+TkWcucvXcnMzkdIsbKx37R1G0RCTSwy271JSyp7r1VsQjIGLsLgnHnzEYt8/APFCgktYu/xk6cwlO0cnMWye8XMqa1cvQb5Qvpv7zzhiI7O7lg1oCmkGMj5ffyD5JEf1yE0PAp5NfqDecrQxIxZ9MoblJ/sxs1bFa8byMkrxNVAT5hcQCqbgHAZz164iH0LS7hfvBqfO1OmHfxS5EdnfkEoh6j4Ldx7oIGlPtbP6DOCOaYqxXlwgDAQHVYfmlreYSx+7n3LclBH9nJXL7wZGI0wrX3+2bcq1ECJM2V8/uI17MeQwwTBbshhgmA35DBBsBtymCDYDTlMEOyGHCYIdkMOEwS7IYcJgt2QwwTBbshhgmA35DBBsBtymCDYTe843Ch9W9/UWtcgJQiiW0CcHn6Ybk8dbmh+wxNUp6Rn+QeGuLp7ubh5EATRRaAMxIE+kEjpP3vukcOYQrJyObb2TjZ2jtGxCZk5+Tn5hQRBdBEoA3GgDySCSsp9pK7yDje1vEMPnF09YuISxZ/5pCWCIL4I9IFEUAlCKfGH0Mo7zBOIPL39wiKiB9TncRNEXwCJoBKE4nX/U3WVdxhJvG9AcCmXr/LzJ4h+AFSCUMxnaHcL5R0Oi4gJCAodUB8CShB9B1SCUNCquzsq73BgcBhQ+ZkTRL9BOafIYYJQF8hhgmA35DBBsBtymCDYjbo73Nz6nkHlV4og1BP1dbhR+lYkri+rEBSVcPGI7R6+yZsg+iVq6nBD85uCojIXN8+Xr7Q0Hj/FI7ZRMtC+2Iro3yDBRGTq4VfGqKPDOLGiUq6tnaOWtp67p09kdDwesY0SlFNeTfQPMJKF1bW5+YVlXL48x5R/UzzzZfFdaUcdHa5rkEZExRoam4ZHxjDf64dHbKME5XUK353XydX5zSq69ZfuLqpRub6pBccayF+rRfQp9U2tkdFxz1+8sLSyKSgqbWhuFdU2FJdyczlFEJtTWFJaXgnJ6xtbOh+66uhwVU2dm6e3qZklTkZeiG2UoBzPfvEoYkkTDyvoj38XBRX5VTXd+jMpSWNLZnZeQnIa84XaBNEX8IU1Hp7ejx49srSyzs7lREXH6ejoPnnyFDx8+Oj+/QdGxiZxCcmCKnEnN4PUzmFMOZXCGicXN2MT85z8QsxVDNhGCcrxbOfTEiJnelauq7sXHpkoyiks9fELZH5kvoYTgR1h9sMXWMquDp6StH1CQjNzsSB8cGgEcvjyCoH0Q1huxV5wmyIz0VtgXCHempia3bx5Exrn5BUgDmfl5CelpAcGh1rb2L58+erBgwdW1rao9rmbQerlMDzhVgrjE1Ohq6aWrl9AcEJSKgO2UYJyPIs6nfzpYicOt93rrm3IzM4PjYhOTEnHFcvOLeDyhAjUJWW8mPikiOg4BHyxpLGmrhEOu3l4l3L5sk8dESWnZoSERcYnppTzhHRrjeg5EBgB1tPL55GGxsNHjx48eGhlbYNoHBkd+1pTS9/AMCEpBeq6uXs+eqQBz/M4RU0tn4jG6uVwQXG5lY394yfPn7149fzl646gHM+iDmp+rhHGYScX99iEZKTQSIZT07M9vHxRCIGxAtHVN9Q3NDG3tDEwMsEaOzY+KTuvwMbO0cTUwtrWAUBXfpU4ICgU22mZOXmcYkdnV30DYwsrGz0DI3tHl8LicorGRA9BWhcSFvH06TNEYAReVzeP+/fvf0iqY+JevdZ89fo1YgYGsJ9/oIaGhr2DI+JNx3bUyGHGPTMLK2SwCIbFZRUdQTmeRR15jP1cO6bmVlDU2tYeHiJ6W1japGfm5heW2Ds6I6RX1UhwBeEzqsXEJaZl5KBZXK9SbmVGVl5eQQm8tXNwfvLsBeK5r38QZgTsi5YLisvgcEBwGAK1ygcBwWqQBhoZmejo6mVk5SCvjIlLwDL4xo0b0BjjHMtgXV09D9kNoIrKKnsHp2fPniFEd8wB1c5hCytbJLG/3n+S3VLGI/Mjs0xFnS86bGvviNiLUAwzIa2jsxtERbmLm2dSagaz6M3lFDPhuqxCAFENjc3gZ3RcIreyChfR0trOwcklK5fj6e2HpBqRGbsIRbXOrh5oRCj68q01gvgcGKVIlV++em1jZ19eIZB9IkfUw4ePbt++fe/ePSapRjQODgnjC2vq6puDQsKePnvm7eOHXLJdU2rtMExDIlFaXolHxVtNXXH4k+thxFIYGBoehTiMpuKTUpGWI5cWietxCCx0UWJpbYssuoJfxdzTwr5hEdGQllNUKmmUIhfAdODtF1gtrlf5OCBYTTlPYGfv8Oz58/CIaHFdY3JqupaWtqaWtraOzp27dxGN8wuKmY+hzckrMDI20dLWSU3P6jjs1drhUi4fCe2DR4/xyHx8Tw8dhqiItyZmluhDRFQcBNbRM4xGIE7LhKXhkTEI0VA0KCS8gl/NOIzj5uYXoRChOComHo+IzsztMZUPAoLVYHDCSW0dXU1NrZjYhLIKvl9AENJpxGFE45s3b0HjgqJSJNJYKkP1gKCQjkFYqs4O40fksYZGprfu3MMjtlHSRYexmg0MDscjU6ekjAc/mR+Rt3j5+ENdzAtBoRGIqKkZ2QjLiclpFlY2KEcGjsiP1TLiMyrwBCLmw3SRZmvrGmB1nZGdR58lRPQKWNwmJach8D579tzHLwD5c1BwaFvI1dJ+8uTJnTt3mFtcsfGJ4ZHR/KqaTzaivg6jpFJYg6WsvqEJHrEt7Voc7gqffNsW8za3Tnbp+tvfCKKLIKHLzM4zM7d89EgD3lpa2fgHBmP1a21j9/DRo1u3brW9i6u4jB3v8fjkPS0UIgzK1eothwlCrcDAxnrYytrm1WvN5y9ePMd/L1/p6Rvo6ulraGjY2NoVlXI/p7H6OWxpExAcJhTVyd+hpQjK8WzbC0XkMNEfwajGOq6mtkEie5s0X1jj6eWjofHY0dnlcx8irV4OZ+bkm1tY29o7RccmyN+hpQjK8SzqKPfZ9gTBOqCxr1+Au6d3GZf/yaWcGjkMyisE7p4+r7V0PvkmLQY8K38bM0EMBJg39n/uXox6OSyV/cEQj1/9yTdpMeBZui1MEHLUzmGCILoFOUwQ7IYcJgh2Qw4TBLshhwmC3ZDDBMFuyGGCYDfkMEGwm6/tcEhYJI5Hf3xLEL0CVIJQ0Kq7OyrvcHxiin9gyOf+EpIgiG4BlSAUtOrujso7XFTC9f3/7Z2HWxvH2kf9Z9/k5iY2juPebXrvvffeO5jeBSr0LsDGLck90tj6FBCE4s/S5P54jvXIs7Ozs8uced9ZCamiurd/SKFYiGuCRKiEUGh12X2v7jBHbW7rzM0vGp+cPeczooUQ54M+SIRKCHWFiHh1h72+r2LZIvqnZ+b0D444PWue1c1lIcSFQRnEQR8kQiWEuoKG13LY6/907J7+oZS0zPjElOzc/Nz8QiHEBUEZxPF9mUH/kPlSwTA4HEgGFp3LY5MzI+NTQogLgjKIc82l6LdxWAgRLuSwEHYjh4WwGzkshN3IYSHsRg4LYTdyWAi7kcNC2I0cFsJu5LAQdiOHhbAbOSyE3chhIexGDgthN9/AYfNdyZ7VTZdnzSmEuDAu/ydnoM91voL7ug5v7R5Mzy02Nrdl5xYkJqfFJ6YIIS4IyiAO+iDRlb/H91oOc9Te/uH0zOyikvLh0QmHcznsE5sQFoEyiIM+SIRKV9P4Wp+J1zswnF9YMjwycZ1MQIj/cdAHiVAJob7rZ+LNL7qLSys6u/vDfgmE+AeASgiFVpfd8eoOd/UOlFfWLDqXw37yQvwDQCWEQqvL7nh1h+samiur63b2j8J+8kL8A0AlhEKry+6o70wTIlLQ9x4KYTdyWAi7kcNC2I0cFsJuIt3h/cNjQ9ivlBCRSeQ6vOt9u7q+Pb/onp518MhzfWWxEKeJUId39o8mp+dz84sePHxy+9ffeOQ5JXphWfyTIMEkMl3zTceR6DAnNj3nSEvPevL0RUFRaVNLB488p4TyCMmrleGLa8L48axsjI5PzTtcgRyTQpQ2XHCARaLDmzvexua21zFxDU2t5utVeeQ5JZSz9SJXJ5hve+nJBTyrm+7l9Ut9eSTd2No9gCv35/otiIiC8dPU0n7v/v2k5NTJ6bmd/cPVjZ2ZOcfoxDRiT0zNzi04kXz7737jkejw8tpmflFJXHwSJxMo5DkllLP1b4+yvrXH3DY1s8Ba2rHkWd/cvVq6wl5rm7sr69uBHJ4nNFtSVsmcwhL94k3Rh+6+QeDJ1S7d9VsQkYbLs1ZYVBIVFZWUnPJmdKK5pf3Zs+d37vwGt25F/fLLzeiY2PbOHgLGOTeDIs5hphynZy07Nz8mNmFkfIq5ysBzSihn6/nTEuINDI8StH+79+Dho6cvXkVzRKdn1cRkJCSqb+14fVYf+u6cUXLyOY34n2Mv++YVFM/ML+75LyIlnT393b0DK2tbpqZZ0lA5QKDPgdaA0J2TVwj0hFSCcBrYRAvMtfSK+n/pw8E7+rm5s29+f4EWePJlr71D37kENSXsgl8i8TY2Lv6HH35A45GxSeLw8Mg4A6yqpi4lNe3Bg4c3b95MTkmj2lk3gyLLYQalw+np6OpD18dPnpdX1nR29xl4TgnlbKXOOXmscTg3v4iQtby21d7Vm5aR3dU7wFh3r2wMDI3WNjS3tHWi5eb2/qJzeWxyFitocGZucWhk3OWf8+YXXeNTc+OTswickJRK/UXXCnWW3Ks9fYO19U0dXb0LSx4uK81OTM+x49Cb8eHRicnp+cE3Y30Db7p7B4dHJuiA6ZUxMDk1o7O7nwyKs6BB37LH+5Y2OcH6xhZaGJuYYbZiL441O7/U2tHd2NJODrK+tUtaRQvZuQXulXWOe7onYR+R4lIgMAG2qLg06vbtW1FRN2/eSk5JJRo3tbQ9evzk5avXnd29qJtfUBQVdRvPxyam9w5CROPIcnhyZoFR/uude3fvP7z34NFpKGcrdah5ViMBh3v7hwlTiMHQ7+jum3O4iksrXr6OTUhKITjziGxspXBweAx1efIqOhbbUb26tqGiqranbygpJf3J0xe08GZ0ElezcvJevopJTE6lhYysXPJqjGLr/YePKS8pr/L9PWdZBbPGo8fP2Hd6zmF6ZRy+c/c+x6X82YvXRSXlTveqw7lcUFT69PnL2PjEhMQUnnB241OzzCCp6VmxcYkpaZnAfISoWTn5iclpbJqYCtETRWO7YHDW1jf+9ttdIjCBNy+/8JdffvmSVLe2P3z0+OGjR0zQjMbyiqrbt29nZGaxMDzdTgQ5bNyLT0xmTBN5iJOnoZyt1KHmWUPWtJOemVNWUY261EceghtyEsT6h0YIWVwL0nI2YSbVmls7aDmvoOh1dFxdQwvhF4EJ4IhXU9dItYVFt7nTRgsIxiEmZ+Yxp7Kmfm7BSfvxCcm0YG440T6zQ05eQUtbl7kn5/3qcFqG79dA5kyARUjmjg5/mkDQ9oVW1wpTD4aTUhHSOS5b5xxOqo2OT9Pz6NiEBw+f1NQ3cQ1P92RN62Sr4LccHR377PkLEjbSrtb2TpbB//rXv9CYscQy+PnzF4X+G0BkixmZ2Xfv3iVEn064Is5h4gzarG/tfSk/9KUcPJr/Us5W6vytwyTA8YkpKFFV0zA1u7C6vk2yml9YgnJe//0hIm1+UQnXkXS0rLIGjWkZdXnEPTqJIWSwAYfJb4mctEDE9vqc9GW2tE8ADF6mcnQOxwTB1GBKDMGrWdNDsnSmGI5OI6Tx1MFtknbqEGYJ0bTwOiYeP1vauxaW3OTnL15GMzXQfsieBB9ORDiMAVLlBw8fpaZnMLpwuL6x+datqH//+98///yzSaqJxjW19S7PGou+6tr63+7eLSktX93YOdFURDvMupREAut4NPd1Lu4whgTXYfZizZmdV0CEJKIuupbJnAuLy0hQeweG/bG6gGVq/+CbkrJKImRtfbPTs8bhcCyvsBjHuHbYjSpk1Fu7XpICqpE8sykgp2+Fs7JRWV1HNTJefjGn72kFO9zTP9TW2UM7xFh6xRFLy6uI1Uwf/Jem6B6eJ6Wk0ebswpJpYX7RXR+qJyuXuU8uwg7zcnpG5t179xoaWwgqPX0DT548ffzk6dNnz376z3+IxuOTMwwD3w3dscnomNgnT5/1DQyfHvYR7TArWFLim1G/8shz7zUchtn5JcZ9ZnYerqIKi0yyZbJfytMzs1lVktA6nB7i2+Onzxua2kiDuXxks5nZuQ1NrZhD4o0tVCBo88heHALxAnLu7h+RscclJJOWI+fpe1onHB4YImmap0t429jczpWhG6QPlJolPcdlJcxByRpm/Uk7sAIntT7dE70X1S4YBjj59Nnzx4+ftLZ1zi+6yiurSaeJw0TjH374EY0np+dIpFkqo3plde3pIOyNZId9H9s3OsEC9ceffuaR55Rc0OGxiRlSaB6D65ilI+Y8e/EqMTm1q6ffvNBKml1d15ibXzg168Dbto5urAjsi9Vk2jjWN/iGrXSD5Pbp81dMAYR0pgB2J0jCqv9lZKolJKUwCwC+MUGYowdXC+4hLdBmanrWsxevSQeoQD7PXvSNHtJPyskXSEZW1rcCLTC5nO5J2AeluCwMmO6efgLv3bv3SssryZ+ra+p8IffJ0zt37vz000/mFldbR1dDU4treS1kI5HrMCWEuPLKmpevY3nkufdicfh8Au9lu/IpmBa+7Zulzno/mTnW9+yJ+M6QPQ29GYtPSIqKuo23ScmpFVU1rH5TUtNvRUX9+OOPvndxzczb8R6PkPe0KAxeVV7fYSEiEAY26+HklNSHjx7fu3//Hv8ePHzx8tXzFy9v376dmuZ7kfIsjSPP4aTUypp686aL01DOVurIYfGPxHwP2drGjnmd0uVZKyouvX3716yc3CX3ashdIsvhoZHxhMSUtIzslrbOwDu0gqGcrdShphwW/wugcVl5ZUFRybzDFXLdFEEOw8Kiu6Co9NGTZyHfpGVgq3nBNuwXV4jvg3kX/Vk3PiLLYa//G9WWXCsh36RlYKvuwQoRIOIcFkJcCjkshN3IYSHsRg4LYTdyWAi7kcNC2I0cFsJuvrvDtQ1yWIhviM/h2obL7nV1h+samiur6y71ycxCiLNAJYRCq8vueHWHu3oHyitrHM7lsJ+8EP8AUAmh0OqyO17d4XmHy/+Js/36LFUhron/E6b6EWre/yk3l+LqDkNP/1BeYfHQyPjG9r7+9kiIK2D+RBGJUAmhrtDCtRze3N5vbe/Oyslrau2YnnM43atOz5oQ4qK4VxEHfZAIlTa/fv7x93PY6/8QmcmZhfzCkpi4hNj4pPjEFCHEBUEZxEEfJLryJzFd12Gv/7OUPasbjiUPkXhuQQhxYRxOxEGf7Wv8Ee43cFgIEUbksBB2I4eFsBs5LITdyGEh7EYOC2E3clgIu5HDQtiNHBbCbuSwEHYjh4WwGzkshN3IYSHsRg4LYTdyWAi7kcNC2I0cFsJu5LAQdiOHhbAbOSyE3chhIexGDgthN3JYCLuRw0LYjRwWwm7ksBB2I4eFsBs5LITdyGEh7EYOC2E3clgIu5HDQtiNHBbCbuSwEHYjh4WwGzkshN3IYSHsRg4LYTdyWAi7kcNC2I0cFsJu5LAQdiOHhbAbOSyE3chhIexGDgthN3JYCLuRw0LYjRwWwm7ksBB2I4eFsBs5LITdyGEh7EYOC2E3clgIu5HDQtiNHBbCbuSwEHYjh4WwGzkshN3IYSHsRg4LYTdyWAi7kcNC2I0cFsJu5LAQdiOHhbAbOSyE3chhIexGDgthN3JYCLuRw0LYjRwWwm7ksBB2I4eFsBs5LITdyGEh7EYOC2E3clgIu5HDQtiNHBbCbuSwEHYjh4WwGzkshN3IYSHsRg4LYTdyWAi7kcNC2I0cFsJu5LAQdiOHhbAbOSyE3chhIexGDgthN3JYCLuRw0LYjRwWwm7+z+H9w+Nd79vtvUMhhBUgLNr6HN47eLextTc962ht7yqvqi0pqxRCRDioirBoe2PP+9ax5Kmtb0pMTnsdEy+EsAi0veFwLpeWV4W9K0KIq3Gjpb0rNj4p7P0QQlyNG3kFxWHvhBDiytzQMlgIq7kRHZsQ9k4IIa7MjbD3QAhxHeSwEHYjh4WwGzkshN3IYSHsRg4LYTdyWAi7kcNC2I0cFsJu5LAQdiOHhbAbOSyE3chhIexGDgthN3JYCLuRw0LYjRwWwm7ksBB2I4eFsBs5LITdyGEh7EYOC2E3clgIu5HDQtiNHBbCbuSwEHYjh4WwGzkshN3I4RDEJSSlpmdmZuVmZv+FjKyc5JT0mLgv3zIXG5+YkpaRmZXjK09Nj41LDLTg+3r2jKy/7JvprxPvq0MLtMNe5zRuSEhMSc/M5hAciH1PNwuUUG76wyHodnZOfnZOHjsmJqVGxyYE+nliR/DVSU472ZmsnLR0X5vRsX85zcCBzio8sYnG6X+oy5tM+1nZedm5+TzynJLgy2J2DNltLiO/nLCPkIhCDoegsKhkZnZud29vb38/mM2trb7+AcacqZaXXzgxObW7u7uzszMyOoY2gRbKyisXF5eC993Y3BwdGy8pq/CNzPQs2qG1cxo3VNfUeZaXd3Z3R/3tn24WKKGceae4pGx8fIJOf/jw4fj4/frGRld3L0rk5BWwO42c2BFovL2j80RnOCOn09Xc0oafTEwc1+xuDmQ6FrLwxCYap/8nrm1CUkptXcPSkvPo6Ojjx4888pwSygOXxewYaCe4w+vrGw2NzWEfIRGFHA5BcWk5A+v4/fsP5ufjx8+ff//zzz/fv3//ZmSUkU0dYlRNbf3W1vaf/p+Njc2q6tpAC1U1dYzFP/74g2H69u07fj59+vT7779TWN/QxOgcG59gEyXIduT/wb3BwWHTeICm5hbvwcHnz5/n5xdy8wv/2uxbs6PL7S6vqCopLXe53NT8+PETh6PrVDs+PqbDFZXV4xOTXu/B0dHbD/7ywHHX1te7e3qDO0OznDfPOdmJiSlCJcfl6LTMoau+Ohmy8MQmek7/gzfFxic1NrUwR/ja//CBfnJc+kMJ5aQPpidmx0A7/Lw7PjYnu729c6JNIYdDQOwiCg0NvxkaHsGBufkFr9fLsNve2SEImJyZuNHbN4Akf/h/GI6dXT2MUdOCkY3B53S5W1rb29o7HYtLGPLp8+fZuXm2msF6eHg4/GYE+aGyqgZhghPy12c4bJqlh2ZHZpy09MyOzq63/pmCwNjS2kZegLT8d21tva6+Ma+gqLK6pqGxiXMJPi4hlN2DO8MUMzw8sr29zfkS9zjfb+gwm+bm5tnEvMZB6ef8wsKxf7KcnpmlPyEd3tnZ7e3rNydbXllNph32ERJRyOG/gRFDDmyCBkM8MICKSspIOBlhh4e++MCTBYcjv7DYbA3IZtyjpLyyCp0QY3l5pbmlNXiwnnP0sxwONGtITcukb8RYgifDnWUwWwcGhxyORbL90rIKU4256fRxTxeS1fYPDGLWu3fHzD7f0GHmC7IGLgJaEnjJ/+kbPaSf9PYsh08fQgQjh8+DQUas2N/fZyQtLjmLiktNeUxsAgGKBfPHT5/IupGZiEdeTXZt7gMFZFtYcLBXcko69Tc3txi+LreH4fsl9B0d9fT2EX4Bl+JP3QEK6TCNEIera+t894Ry8lLSMmLiEgnLBFJfsrC9093TV1BYbO42mf4Yznf44OCgta0jMTmNZpm2mBHIq1vb2r+hw/R2cmqaY3G5yPxJEDKzc+l/nD9/OdG9QDtk2kwl5iqlZ2THJySf9fv630QOn0lMXEJZRZXHs8wwCs6iITXdF/dIAdGmq7sHDxnu5IRk1+TYr786jFGra2vk5CixsbnJwDXBnOBjBitJONn1J/8PUZp090QfQjrM8puWzV4kpWT7ZAeFRSWkqbTPJv9K+L3b7UFsBr25Gf767xzmFGbn5gYGfNGb56bzFVXV33I9HJdYW9ewurpmzp1DUGdmZpYTT0xOPcth31Xy/3z4+NHpcrHyD/vYiCjk8Jn4sujRcUQlpQzOogEJPcsrvlG+ulZeUcVSdn1jw79MdZFjv/7qMLKZWzJmzXx09HZ6eqagqCQwWGmBPHxndxdIxQNJb4CzHCZI7nu97LWxsUnybO5mE+V47lle3t/3klSjMtWmpmcCWff5DtNDDkSXaB9haJmVfFJy2jd0+LVfYyQcn5ikfZYh5rjU7OjsZtF+1j0t5kpOlpmUC8hsFfaxEVHI4dCQRTe1tJItGzOLg+Z+k7h6vQcmwa6uqSO2kCH7bgLt7ZMnE8ADcZgEm2hmbnCz8Mvyv/4U0iXDl1eAv74gfMH1MLk9a2CyAxbGBLT8giImHUxGD/99qSZT7XyHieErq6vmpjHdJtGN8ecdvhtRfpcoDLxWhG8sE3wOb26xggh+Xffc+9KJ1KSfyam+RxbAtHx8fMwR3UFLDK2HL4UcDgESlpZXutxu/2Jsr7G5Jfh2MYN1fHziw4ePxKs/gn5MeBwbm8jIzA6WrbunF419Ymxv1zc0MY7Pcbi0vMKxuETMIVLhCZHw4ODws+9u9lxOXsFZDielpDHjUEg6XVvfwASUlZ3rX3l+8q9pOwI9P/+eFmGczB+p+K9vxsnOpQKrUKIfkXl/f5/+oCHtox/Cm0ykqbmVHenY8soK5hMnycbZxCRy4rXcnNz8/oHBxcUljkg05jqTxaysrnH1CMvtHZ1y+ArI4RAQCf3L3fcMXIxivOIPMJoJdPzXOEmOvb29w+AD0jwTT5aXV8rKK4NlY5gycM0LP/yXIBnQhkSa0R/cOHsaN7a3t9kLD+kGi1vU8h36a3h3udxEP7OjebMUM4W5Pe72LCMSuP0reeYgJg5zXhe5L83kRTZuXlhqbmmNjU8iwnd19x76G+fE0ZhpgiBsXjufmJgsLikbGBzi9E3q7nufhu/u3R+s8Csqq4MvbG5e4czsHDMLJzXu37Gjs2vPn+wsOV0If9Y9LfT+cpVy8kjvwz5CIgo5HALWpahoQmvwj4lO6I0txOGxsfGMr4tkc8cVSxl/vlFe1xAcMEvKykm2WWyyta29g3BkBuuJxinE/zcjo2/fvgscnb3W1zdMEhtYDwf/mDBVWFw6v+Awb+0ILMKZZSYnpxj6ppMXcRhDenr7zHRAOCWoRsfGs4afm59HvECvzPtM3B5PWUUVjVRUVROQ2SWwlcx8dGw80x/JA5DOMLkw5ZmFt3k0axDWw/mFxSEdDj5Z83JX2EdIRCGHQ8DAJXsktJq7TQEYfHjLONvY3PR4lomEgV0YnYSRlZVVc5Opoal5weFgAYmQ6E0oa2lrJ8CSTrM7wZY61DzRuLk7hXLsRSjzer3EKFbjLBRN8GFyodkTvQrcDMM0phh2JIkFOjkyOpYXlHLTuDkui8/AyvZ0Ie0QTkkxCMj1DY1mHUE79IrZhIyajnFq0zOzzDhmKwk2NZ1O1+7enn/r1ujoePChA1ATjUmnubj+E9xnukRglscnesKF4IgcKPhkmSkCaYUwyOEIhbFOdn3irZcXAaky/H+GceItX98KukTHTvydQwASfuagi6S71KEm9cN+qW1HDgthN3JYCLuRw0LYjRwWwm7ksBB2I4eFsBs5LITdyGEh7EYOC2E3clgIu5HDQtiNHBbCbuSwEHYjh4WwGzkshN3IYSHsRg4LYTdyWAi7kcNC2I0cFsJu5LAQdiOHhbAbOSyE3chhIexGDgthN3JYCLuRw0LYzY3o2PB3QghxZW7EJYT+8ishhBXcyMzOC3snhBBX5kZNXWPM/8+XXAohvgM3Jqbnc/OLYuISwt4VIcQVuLGzfzQyNpVXUByfkKz7W0JYBMKi7X8BeJfK1rvCrOMAAAAASUVORK5CYII=;" parent="1" vertex="1">
          <mxGeometry x="1170" y="-1980" width="358.02" height="827.5" as="geometry" />
        </mxCell>
        <mxCell id="-aEaPC-sBht90m_471vq-26" value="" style="shape=image;verticalLabelPosition=bottom;labelBackgroundColor=default;verticalAlign=top;aspect=fixed;imageAspect=0;image=data:image/png,iVBORw0KGgoAAAANSUhEUgAAAUUAAALnCAIAAACRKsJyAAAAAXNSR0IB2cksfwAAAAlwSFlzAAAOxAAADsQBlSsOGwAAb49JREFUeJzsnXV0W1e6t7vWXev+e+ebaWemmBSTNMzM2ECbpGFmZnbQiZM4iZmZmZmZmWW2LLJlmS070Jk7M/f7WadVVdtxHMuJ5OM366l6vLXPPvsc72e/7z6SpQ8mLN/6/RKw5fvFb824eRvHzVpPDAPmbRzE73c4sWjLuAVbx87ZPnbWjjHTd46ZvmvMtJHIB2tPPly27uxSsPbMEoIYbixYfXLmkiOT5uz/fuYeleukcj5Yc/S+yjtBEMSQ8MHqw/dU3gmCIIaED1YduqvyThAEMSSQzwTBHshngmAPH6zap6HyThAEMSR8sHL9AZV3giCIIYF8Jgj2QD4TBHsgnwmCPZDPBMEeyGeCYA/kM0GwhxHt84TZ+2YvPTZn+fFJc/arvDODYOz03VPnH5q34sT0hYfHzaC/LiJGsM+Qedu+u5b2QU5uEfuPP5o4DJWevez4tTvmXn5x97UdFq0+rfL+ECpnyHyGHvNXnly4+vSkue9jgpi55OjqjZd++PmKnDWbLi9Ze3bqgkOIWgNpYfXGy97+8S9f/vLLL/8MiUj7cfsNJbs0ftbeOcuOL99wAWADP77ri3D+mlFVjeg///kPX9Bw5ZbZe7jshJozND53x7r9d30CEiJiMg+ffvIe0tc7D23rxc2wUU5rmzQ9i3P7gQ3mlIH8aTumAzfv6Lb2zs7OF/B5866bSnZp0ZozhuY+peU8gA38+K4vwtkrBpyy2pevfqnl1SNQv+vDEerPEPjMyAwlXrx41fX8JYIeouW77vf9Jw4QGKHpl1/+0dn1Arz65R///ve/4aedc+iydefkNbGwnDLvIAIm1smI3oqq7z2m5ReUGBqZfuqS3sTZ+34/o1n7Ziw+Mnf5iVlLjk5QKGdAC2gHraFNtMwsXPGIBMHDJ+b585fAwyd2/dbrk+cdwO5T5h+csegIdkGzmOmmyTbkTeHH7gMtPYaaCOmohsrYRbGfv/dn6TG0IE9Alq49+8zALTYh18IucN2Wa4q/EdREfTSONrEL2sQau/e5ECxDWZ8VZf7lH//MK6g8c9lgwrtPNRmfX736R05+haNbhI1jCIZ1S2sHDK+prbtww3iMzLGZi48ikb5629zeJczZPfLuQ9ste+/AUkbCTTtvaj1z0tZz3XfsIRRCyaS5+xetOX3gxCM9E083r2hTa/8jZ54s/uEMs4iASBBjy57baAetoU20vGHbdUiIpey5q4ZJqYWIliAlvcjQ3PvEeZ2NOzTQGR0jDw1Nq92HH5y+rH/rgfX6rdeYpn7ecxtLX1evKAvbAOQ1W/fd0dC0RGXsgoOO+W0Vg+U90x94e+ay/sofL2KmwLOowzR+454lCrv7P2c/0hM0hQbRLBrfceDe0bNPtfVdcaY4X5UPOOKdopTPqpJ5zG8+IxK6eEYt33AeJdAsJj7nn//835ZWqaa2PYTBcNcxcufy6v/1r3//R/YPAVxY12ho5o2nUKFHI5D20CltNIJo/5/f/r14+UtiSsGRM0/x7Kwlxx4+c+LxxfIG//m//0LGe+W22fb998Ki0v/xz//9v9/+YRslj3SdM7JLUV9U31RZLXzx8pWorvH6XYvZS49pPXXE1IOnmPpI+znlPKGoESXYBVMMLi8M9wmIZzIR5h+uc0Y25/QlfaQGqMM0jgz/5EVd1N97VAtLHvSfaRNP4fTLK/nMegTnq/IBR7xTBu+zCmUe08tnxFt0Jjah2+fmlvZ7j+wQ/bT1XMQNLRjTqAmXADbwIwqf6Lsig+3RyK5D9xNTC/7xj38iwApEEoiKR2yjJCm1YPeRBycv6pWU1WJS6JA+r64RcWvru7pe/u///guC3Xtsh4jd3NLxb9m/jo6uaq4ImT96wigHFVETXpVXChBOoXQNt+7f/+5eL0gaWwVCCaYhTAGoJvcZkT8gJBmXFyfV2NSG/tfVN+FS/+tf/8rKKTt48jHitqLPP26/HhiajCkDJVLpc7SJSQRn969/dx+dfB4JDNJn+LN5963g8FSMHgzTwuLqs1fen8xjfvMZwRMTyuHT2ohjJlZ+iL0YyohyCF/QLzWjGH1rkLQaW/ouWn0aYKOhsVUmDAfCKPq8ZvMVxF4ICXuT04r2HNHCUfCI7X/IYj5CPcI+4idickJyPnbHQZEDw8/ktMITF3QxI6AdZv0szxrkIRQ9geF+wUloByk3oigO9Msv/0QnoSKyZc3H9pzyWlRjfIauV26ZYcrA7FBVI0K6PnPJ0ePndXCsBklLWQUfjRw5/UTuM67/zftWuAJQFxOWtUPwqp8ubdp1E0ds7+hCrCafRwKD9Hn6wsNIFxEBMNowXKwdghavOTPAF4qGBEbF//vjP8iACGZuE7B07bkL141kAfDfRSU1kGHdlmsAI76YU4NC5MyXb5oq+oxFpm9gIqJxh7TL2jF4404N1MejrVOItPM5omhgaIqBmTeCNvyRNLUhcp66pLd646UFq04x9/P797lO3HxHy5aZ8o6de4ZuQDymG8wZIV/AIrmltYPx+cJ1Y3PbACQCCOk+AQlrNl1GnanzD6FLsBq9/WHzlcMKPmOuQTqApP3Vq38EhaUgtjPNIgNPzyphkhTymfUMPt+GMzCHSWiR1z0zdJu7/MR7U5pRkUl9MaGgD0gqMb9gbbxk7VlUQEKLlSqzhuyOhH8Eq0pEP0WfISezAEY7yG971O96/hKSQCQTS1/sixwYzYLG5vaQ8DSsuqfMP9i/z0xKzHQeG/gRB8orrIST8pOC28ziHLtg6mFaQ+puauWH9Xbvi6DY+CMd51/rS5+b2fjPWXacqYNZCTMR5iPyeSSg1P0wFSotV9HDN9bKIahe3Iw+5BdVnbygy7yRA7ryZekDstP0LE50fDZAnpyeWZKZXQo5kdAq+oyEGcsHqAtXoUdcYh7qxybmJqcXITlPSS9CcEZIXLb+PGYK/5AkHAsnjmCIpCA7r/zgSe2B+4x5oaSUi/hcKlsaMFcM3b6tZYP8gvEZa2wn9wisz5EdWNkHzV95cozs9S2E8YWrT4MZi47gFOSN41wcXMO7ul5g6nH2iEQ/mWMh5Y6MzcIMRT6PBJR9vUpVSiuqeO6aYUR0JkJQV/cLvzGrNl5ChaNnn2FVj17BHOSuk+cemDLv4I6Dmg+eOuoaeyASLl13TrGRXYfvd6fW0uedXS8c3cJXbLgwae7+5evPY1+seBH99hx5gNz1sa7LUwM35kUsLFlz8suZJTpWs6iMdtCH5y9eefrFIeOdPO/AgROPe/u8+/B9TBDYsa2tE7F38Q9nIScSae+A+OfPXzE+n76sj/SbWc/HJuTi6FPnH1y96TKODj9DItKu3jZDHXnj564aYgXU1NyOH3PzK85cNsB6G1Ed80JltZDuh40QhuD9JIpKC+saMaqmLTz8rvv9h1tZmy5j1NbyxchgkQxje+Kc/eu2XIUekBPrz6TUwos3jBFXMdCRUWMvv+Ck9Vuv97i/fe6aUUWVsPssRI2WdoEwxNUzChk1gnx1jejqbfN7j+1lp/kvZk1+8qJeXGIu5pH6hhakx1hIWzsEI92FgYjYZtb+J87rnL9m1NtnXDHMHZAZmjU2tfnLbpKFR2Uwr0vJ728jjUc70B4hGgLfvG+NiC1pbGVO85KGaY/gf+TM07yCStRHB/ILK40tfRHYSyt4/5S9ikY+jwSG5v2ejNJIeptb2l1l94rfdb97qAh7fQIT8COGclRc9pa9d5AjHDjxKDmtCNESAjA3zLpfT37xKjWjGJlq70ZwFlh5IsuAEv/5j8I9NnEzc49ty97b8ArGwnCUA7T8UvYCNXM/HFNAWQUf5b1ff1b0GWzbdzciJhPB/D+/HQnWoeUXL3+R+zxryVFkE5hK/tn9Otb/yV9SRhBGh9f+fKWHz6j/8JkTVGc6gH/oHg4h7XyBEvJ5JDBkf4+B4Y5UENnj+q3XhqTB/rmkYYJgizhpYOrFvFP62LlnWB5X1YiQyiIDZ+4k7zhwz9s/Ho5hrkFoReaJYLj/+CPm2d5vSlm0+jSUSM8q4QkakEUjUGfnlT3Rd2XusYGfdmg4uUWUVfDQIFbm3Nr60Mh0BFKmQeyOzBzrbRwIB7VzDr12x9wvKLGyShgZkwX9FE9h5yFNPIUOo2MCkQTddvGIjInPQWWUb917B3WgKNKKpNQCpj9YXReWVJta+62W3e7uvThnOoCoLqprQrMVVQIvvzgPn1hcKFwuXDSVDzjinTIi/l5y3ooTWB5D4x5/I9HbZwbIybwahDXt1PmHXtcgNF6q8EbxwYEWDpx8/LoDKfYH6TSiOgyXl/d5s22MbBZATTz7Hv4mhFArRoTPvZk87wCWuwZm3u0dXT1uCA8Lxs/aC2mRhuQVViL555TVnrig+64PSqg/I9RnxC7ktFhqYmna1t5pZu2PkKvyXg0cRHWsArJyy9B5+JyTX3HwpLbKe0WonBHqM5a1zJvbXr36R15B5YnzOirv0lvx4/YboRFpv/zS/ep3U3M7lvSrfrqk8l4RKmeE+nzs3LOY+JyCoqqQiLRTl/T6WbuqJ7DXwjYQyXZ6FsfUym/tz1dV3iVCHRihPhMEKyGfCYI9kM8EwR7IZ4JgD+QzQbAH8pkg2AP5TBDsgXwmCPZAPhMEeyCfCWKYMHXnd93skLGzzzrkM0EMH35T+tsp279jYNzu1nvn2Gk7P9i846jmIyuNu8ZXb+lfual3RYMgCPVEF1y+oXPpus7Fa0/PX9E+fV7r2GnNg8dvbd19edOOi5s3nvzg6Mnzufmc5LSc+KT02IRUgiDUlpj4FBnJUbFJkTEJYZFxwWHRAcERfoFhPn7BLu4+H5y5eFUkbqoV1FVzBVU1fIIg1JnKah6oqKotr6wpLa8uKa0sKikrKCrNLShOScv64Pzl6y3tXU2tUklzu6SpjSAINaehsRWIJS31Dc2i+kZhXYNA1MATiuH2BxeuarR3vmRok74gCEL9ae14DhCJm9s6EYwbWzoam9u5/Lpun6XPfyEIYnjR0fWKQR6J+aIG8pkghjGKVgvrG8lnghj2MEqLxE3kM0GwhLqGZvKZIFgC+UwQ7IF8Jgj2QD4TBHsgnwmCPZDPBMEeyGeCYA/kM0GwB/KZINgD+UwQ7IF8Jgj2QD4TBHsgnwmCPZDPBMEeyGeCYA/kM0GwB/KZINgD+UwQ7IF8Jgj2QD4TBHsgnwmCPZDPBMEeyOffaWnvEomb+KKGhqa29s6XKGnteI4LxBOK6yUtbdIXKMEjtpkS1EdNvux7g4CwToIfmWodXa8kze14CrujEaakqVUqrG/srlnfiG2UKB5CEeyI3ZkKcpiafNmz3T2UHeht+8yUAFSWNLUJ6iRoEPXRTo/D/eGgv/Wnua1TJDsFOfgRhT3qy8+irqEJZ8p0rM+Wu1sQN+HovY8oPyPAHBdXmGlN8bLz5Bekr6OMNMjn3ymtqDG3sr1+87aXbwCuC0qKOOUmZpaXr2nYOjhX1wpQgkdso46zm2dxaYVfYMjN2/dQAdy9/9DW3jk1IwfaYNhFRsffu//QwtqurLIGFtXwhL4BwZpaj1ATjz7+QVVcAcrxLOowLcjBjthd7glEQpvxiam6+kZXr9/UuHXX2tYhr7AERymtqH6rPtfy69AaRn9OfpGdo8utu5po8KmuQVhkDHrITD2KMN2T9ye3oETf0ESxq/gRhT3qM09du3Hrqa4+zjS3oBj9V5wvsF1YXGZkatHdghFaKJY/y7SA3rp5+kBUppA5rvZT3eS0TMyGipcdYBslOITKh5DKIZ9/p6Kad+bcxY8//ezUmXNlFTWY7wNDwpetWPWnP//lp81bEpLTMeaSUjM2/bx17PfjMVILOeUPtZ9+O2bs3z/59KtvvgV//+SzeQsW2Tu5cvl1ltZ2U6ZN37l7b1ZOQWUND7aPGz9h1JdfY98vRn859vsJdzS1yqtr4dXR46e++W4s+PrbMZ99MeovH/116vQZVjb2jS0dTMcQG51cPdDyJ599Pmbc91998x2qoeXE5HTMQW/VZwRkjHs3D++Vq3/AXp+P+nL0V1+j/2PGjb9642ZeIUcewBnQeRwIJ4LTaWxuj45LXLt+w4d//TtO4ZvvxqDP23ftxkTToz5O4bNRo7/+9jtU+/jTz5cuX2Fj51grqJdLi6nBxd1r7vwF6OfM2XPtHV3kJ8u0gPIVq9b4B4Uykxpz3EVLlnr7BdbwRIqXHX2YNWeuroERTk3lQ0jlkM+/g4FuZGo+cfKULdt3IMwiiJlZWk+aOg1ja8GixR7efoiHQSERy1auXrh4iaePf3WtkBlYq9as1dEzRPD8eesOmLZ5y7ao2AQLK1vG54zsvNCIaNT5buw4BEMEUpgzd/7C7Tt3h0fFVnH5aNPK1gHoGZqgEIItXbHSxy9QnoUiETh24jSGL1qGBvpGpj+s2wBpEccqqmvfqs/IsfEjZMbUsHT5yusatx9pP9u998D3EyZC+LuaWpVcvuI16dPniVOmXrh0BUdHn719AzGP9KgPx44cP2loYn7zzj2c+OejRs+ZtwDpALrHVMNZ37h1B8LjpPDsuYuXEZYVW0D/P/1i1IlTZ3PyizFJ9ekzc9nRB2QfCclpmPVUPoRUDvn8O8g2kRIvXrocox+Dvryq9rrGLUShTz77YtKUqXoGxshIbeydps+cBa+Q+CEbZAbW8ZOny6u40M/dy3f+wsXLV6729PY3s7BmfE7PzPULDF6ybPm0GbOMTS2QZlfW8DOy89Ozcqt5QvmqD0ePiI5bt+EnRGA0i2gm7xjG9J59B0aN/urchcs5eUXImZFsp6RnccqqYMhb9bmqhhFpzLYduxDe26TdR8eJQIzxEyctX7UmKDRCcSHap8+YKVw9vDB0JM1tiJ/91EdAzi/knDxzDtPcjl17MnPypV3dyTYOvXHzlomTp+J80c+163+Mioln2mFa+POHH/317x9PnT4TaTa6Fx3bh8+Hj54oKC5FHxDbe68URibk8x+AJFu27Zgxa46tvROm/G07d8sC6Z7Zc+dfuHwVBt5/qA3fMECR6Mp9hmyojDUeFniTpkzDGIUV5r/FZwzQ5NTMHbv3/u3jT5BIQycsVhGOFO94YSgXFJedOX8RIevQ0eNIwhV7hQUwAt2XX3/z7XdjDxw66ubhA59F4iZGgLfqM5TetGUbojFURwvyQ8QmJK//aePkqdPQbcVA13d8njz14pVr1naOCIwx8UmKC9ce9aWyO3ZIEzAFIB0ICApDPo/20dVZc+Zt2b7T2tZh155902bMxPQnbmyVt4CTXbx02ZRpM1b/sA4rCCQ4vX3GU8ho0AfkCMWllXQ/TEo+9wAL3UtXrk2eNh1ZKJasK1av2blnHwYNUrut23d5ePkdOnIMo9nI1AKDWO7zN2PGLlqyDCnll193L+c0bt8tLClTXD8jgPgFhmL4YgmNSPXF6K82/rwF2W9dw69GoSkEIgxrJNLBoRE9og1GKiLb+YtXps6YOfqrb5Aqz5m/AOl9WSUXT71Vn2VC/jh56nSLP3qL9hE/sSJ4/FRHcSH6xvXzpavXK6t5r6svld36wrJi1Q/rGBtxapyK6rMXLo39fsLNO5rZeYVaj56MGz/x2IlTxZwKxRbu3X+I5cmU6TNOnTmHRcTq31rovX7GTBQQHEYhWko+90C2hLaAV/sPHr599/6SZSsQGMOj4vbsP4gsGiNsw8ZNS5ev8A8MYb47mxlYGNwwZPrM2ctXrtJ6pF3EqUASqOgzxjTqI08ODA67ePnqnHnz//bJp1gAYxSiHCmrf1Ao1rTTps9EQi6sb+zRK+arfRG+EF0fP9HByMakgOXuM10DkbjxrfqcmJKOqQSpNaYP5n44035cYuqPGzfjLEzNrbj8OvkrbW9cP0dEx4safo/zvX3G2bl5+sxbuIjpA8J1ZHQ8pi3EXl0DYywfTMwsZ86ei64iDqOH8haQKUTGxG/fuRsX9uet21HndetnJCz5RaUUn6Xkcw8wnjDmMPJmzekeYcgRkRByyqtv3r6H9HX9jxsxtpDcIsWVyoIqM7AQAJEh14mbEIeZUYWhLPcZoQ81M7LzUtOzkTmjjpePP4YmM+i7XzrKKzp+6gxC95lzF5F19+4VAml+ESchKa24tAK7M7H0//3lwxOnzmDB/FZ9Rv1LV66P/urr3fsOwG20DN/QK+gNwVauXoPc2C8oBPOCiblVYXEZVgrY91c/W9oV70v1GQ8ZGzEvmFvaiBtbGls70POr1zVwldDntIyc+oZmA2Oz8ZMmf/rFqBmz56DDyGtGjf4KIRpyYi5TnBH4IjEyjvmLFmM5/ac//6WHz8xtC5WPGbWCfO4JsxyFLRhAiACh4dH1kmaMToxRlHz82eeXr16vqum+CdzjfphiI4o+Z2TlIeFElvv9hEm37tyLT0xFa/MXLpo1d56ji3t1rRBLWYxvRDAzS5vMnIKc/OKiknKMbPnquqSs8sTps59+/gWUQITHKnTzlm348dqNW9j9rfoMe719A1asWoOFOvrm4OyGHOH2vftwHpJfvXGzsKQcvULf5i1YiJRe+6kuAiPT1eY2KeMzJg4jEzNMK+hqaUV17/U25iYsOsKiYt29fE+ePovlOtJmQxMznBQC6eGjJ9B5LOmnzZiF4+JxzLjxf/v4EywTsnILM/8Y4SuqebfuaKK3vX3G1QiPjEEfCopLecL6Hq+0jUzI555g3GP0wwHEBKSsCLwYKN0v6q7sflGXiTzM6y4D9BlDvKpGgFXipKnTPvrb39HIXz7666gvvzp89HhGdr785RlFFPNVIGnpcPf0ZV4xhrQAS2ikrD5+gczLswPvMxCKm5CjLl2+Ekk7E/f++vePx46fgCkjNSMH+QVSCWQcn48ajWdxLFTDjyiU/vY6sGJX8SMK5Sfe43Rwpp9+3h2H797XKi6tREjHZISFRvfLVw7OtYJ6rBegIoLwgkVLFixe4untjyxG0Wf0B3kEsm50sofP8qNgGyXyN5+MZMjnnkia2pxdPTb8tAmJKxaozOtGCAJnL1xCXNq7/2BEdBwTCiAG1nir1667q6nFxEk5Ta1SDy/fjZu3ILktlKXQiDNYmmKNinCHEKqp9Sg7D9a9xLOog5YVwY7YHY3IG8Ti2T8oBF51j/tFSzCDhEXGyAPjwPvMgKQ9LiHl0tXrS5avQH82bdkmeymbx2QEqJmWmXNN4xaexbEuXL6ampHN7I5E4NiJU4pdxY9MJs/Q43SQCJy7cDk4NIK5B45HW3snpCqnzpzDXCbfi+kqyvEsfEYLilcAp4k4v2nL1j37DiDT4YnEzGWXHwXbKBEq3K4fsZDP7xVEG8QoZTJD7D6EN3KZ1vp85/aQH4t4D5DPBMEeyGeCYA/kM0GwB/KZINgD+UwQ7IF8Jgj2QD4TBHsgnwmCPZDPBMEeyGeCYA/kM0GwB/KZINjDkPnc0fWq+/PlG1vRYp24iSCIgdLQDHFe95UGKvC5teM5T1ifmZMfEhbp5ePv6e1LEMQAgTIQB/pAIiX/oG0IfMa8kl/EcXJxd3R2S0hKzSssKSwpIwhigEAZiAN9IBFUUvz2n/ftc3vnS/TGw8s3kT7QnCCUAPpAIqgEoQb92YbK+swTiv0CgqNjE5SZVAiCkMpSXagEoaDV4FpQ1mck/UGhEVVcgcqvBUGwAKgEobq/SGRQuyvrc3RsYmh4lOI3hhIEMWigEoSCVoPbXVmfwyKigcqvAkGwBmWcIp8JQr0gnwmCPZDPBMEeyGeCYA/kM0GwB/KZINgD+UwQ7GHY+Nze+bKpVSppbscjffs2QfTJ8PC5pb2rvIobE5cYEBSKR2wP/C3fHV2vGAZSuU36QiRuAvSFwMRwZBj4DLXyizhmFlYat+4wYBslA1QOIZ0nFA/w77cEdRK/wGD/wBBsqPx3QxBvyzDwGYeBYPc0teQ+YxslKH/jvsjMc/KLvHz8u7+mXPYNpgCxHUk7pgMEbTxiu7mtk8nhG1s6snIKsnILsCGVTSV4FtsUrolhwTDwmcsTObm43/xNZoBtlKD8jfsq+iysbywsLssrKEnPyo1LSCkoLuWLxJyyqoSk1JS0LLQG4SE2p7wKQOOmlg5sxCUkx8QnFZaUNzS1Kf+RLgTxThkGPmM12x2f7yvE5/vd8Rnlb9xX0ediToWtvZOuvqGNnaOpuaWBoYmdg5ODk6uVjZ2BkYmru1dlNU8kbvTw8gU8QT20t7Z1sLFzcHByQZ3Y+GQorfJfGEH0wzDwGblubn6xpbXtPc0HN2/fxSO2UTKQHLiHz67unpEx8VhLY3ns7RsAvUtKK5GBZ+cWunt6Z2Tl8UUNjM9FnHLZh5n5lVdyufy68KhYFJaWV6v8F0YQ/TAMfJbKPjOwpKwSgpmaW+ER2wP86LMePsPPpNQM7AulI6JiffwCa2qFqIasm3mKJxQzPmdm5zs6uSKMu3l440eEcXdPH0hOL5UR6szw8Fkqe9kJLiEm43Hg69hB+4zVNVJ6dA+JN84Tq+taQT199AKh5qi7zxAY7iENrqrhQ8i8whI8YhslKH9jyj1on6trBVgwO7t6MHfLnF3dA4PDhPQiFqHeqK/PCMKS5rYiTgVEMjA0uXNXU34/DNsoCQwJx+oXZvYTruEzNA6LiMFjeRU3NCI6K7cAPje1dCSlpGNVzHx4WmU1j3lKWN8YGh4FxJIWnF5kdJyegbGegVFQSHgNT0T3twk1R319rpe0RMUmPH2mp6HwSlUP8CzqoOY7ujrlVbVwOyMrr6lVSjIT6o+a+oy4WlBUampu1Y/MDKiDmu/oNhWycfQwKDSitKKa3lJCqD/q63N+IcfKxu7hoyf9gzqo+Y58RkxubOlAEs68XYwg1Bw19Rki8QT1WTn5KWmZ/YM6qEnJMEFI1dZngiAGAflMEOyBfCYI9kA+EwR7IJ8Jgj2QzwTBHshngmAP5DNBsAfymSDYA/lMEOxBlT5HRsfh2PR3DgQxJEAlCAWtBre7sj6npGWGhEUK6hpUfiEIggVAJQgFrQa3u7I+l1dyg0LCM7PzKEQThJJAIqgEoaDV4FpQ1mf0ID4p1dPbr6S0cuDfX0MQRA+gDySCShBq0NFRWZ+ZJpAhOLt6ZOcW8kUNInFTHUEQAwbKQBzoA4mg0kC+NOYd+iyVfcVMRnaeg5Orta2Du6e3p7cvQRADBMpAHOgDiZT81I2h8VmeMNTy64pLKwpLygiCGCBQBuIMyXJ1KH0mCEK1kM8EwR7IZ4JgD+QzQbAH8pkg2AP5TBDsgXwmCPZAPhMEeyCfCYI9kM8EwR7IZ4JgD+QzQbAH8pkg2AP5TBDsYch8bu982djSIRI3CUQNfIIgBoxA9ikg0AcSqYXPzW2d5VW1sfFJ7p4+tvZO1rYOBEEMECgDcaAPJIJKKvYZPcjMznd2dfcLCM4v4nD5dSqf8AhiGAFlIA70gURQSRmlh+DzADNz8r19A/ILOcpnCwQxYoE+kAgqQSiVfR5gda3QPzAkNT1b5ZeDIFgAVIJQ0Gpwuyvrc1pmTnBoRC2/TuUXgiBYAFSCUNBqcLsr63NUTHxoeFRrx3OVXwiCYAFQCUJBq8HtTt9HRxDqBX2/JEGwB/KZINgD+UwQ7IF8Jgj2QD4TBHsgnwmCPZDPBMEeho3P7Z0vm1qlkuZ2PKrdm727VN0BgpAxPHxuae8qr+LGxCUGBIXiEdsD/4LMjq5XDD1KhuTyoZ3G5nZBnQSPvdtESUt7pzpOQARLGQY+t0lf5BdxzCysNG7dYcA2Sgb4dyQI6Vx+HfrKSIWJgC/7E/AhcQx9yMrJ9/Dyycot6N2f5rbOvILi1IxsYX2jqn7BxIhiGPiMw/gHhtzT1JL7jG2UoPyN+0LanPwia1uHwOAwkUyqmlqhj19gRFQsPJfKhET8hHjYaO14jkfsgg1oz4BtppyJ6orbzC4VVbUp6VlVXAFKsG9zq7SptYNxG4fAgXA4HJTZFzDzCHPcxpaOQf91G0H0Zhj4zOWJnFzcb/4mM8A2SlD+xn0Zn03MLAyNTREn4e3vPje1QadiTgUS+OTUjOLSioKi0soaHpLnIk454m1GVl5WTkFZZQ2nrKq0ogb6NTS1FpaUoWZjSzv2xVOV1bwangglAlyMtk78mJiSHpuQjBYkzW0NTW2Mz7AdFbBveSUXkoOSssrY+KTo2AQUotpQ5f/ECGcY+IzcuDs+31eIz/e74zPK37gv47Odg7OxqYWnt19pRTXUYnzG7mmZOUjdjUzMrWzszSysjU3NUV5SWhkZHefm4Y0fQUJSGqzDur2GJ+SUVyHU2zk4lVVyK6p5iPnJaZkZ2XlePv7ZeYWYGhyd3SytbB2cXAGmg7qGJjTo7eufm18cGh6FNuE57E1ISjW3tLa0tgU4blxCMpMsEISSDAOfkZHCBwz9e5oPbt6+i0dso2QgmSrjM3yDopgCcLi8whJv3wBoBjndPX08vX1rBfVIg9Ozcq1t7Jk8HNGyulboFxAMjWv5dfmFHGxgJZyemWPv6OLo7AqHEcCDQyOKSytz8rrbz84tzC0oxkyRkpZZxeWje4jAWDajQQcnF5js7OqRmZOPBB75OWYWlENsHCsqJsHV3RMRXuVDgWABw8BnqewPO6EHtDE1t8Ijtgf4V9Nyn5E55xWU+PoHIajCH+iEH+EVcmMk0qhZVcP38vFj8vA6cVN4ZIwsntfI3BZA3ei4RGTm+D+2MTtExcSjSCBqYNrHY62gLigkHPHWxc0zITmNJ6wXN7aiQe2nOgDxWSxpQX8woTD9YdbqCOzM7nQPnFCe4eGzVPbaD0Y848DAV5tyn/GIeBiXmIIZwcDIhInPCNTQmycUQ2lEVARSlAvrJVhpu7p7paRnIX62S19Ay6jYBMRYRPi0jOz4pFSojjaTUtKxiv61/bwiVEZAxnIaOyInh8AwHA3a2DnaOzpjF0xD6D/mCEwcmBrqJS1oOTE5zcPLt6C4lHwmlEfdfYYA8IQvakD8xAIVwQ2P2EYJyt+Yciv6jG2eoN7Dy+fJM11oxheJY+OTbGwdAkPCsaCFroznyK6x+oWECN3IkLl8EZLkzOx8U3NLLI/LKmoKS8ps7BysbOy6XzPreM60j5rIwCEtREXqjtYQ4ZHJy9bPAYjGyN6R3kNmOI+zRt6OIA+wtkcHhHUSlQ8FggWor88IwpLmtiJOBUKogaHJnbua8vth2EYJNCgprZT09UYOOXAY/odFxOAR26CopByCIbQ2tXQI6iTwDREb4RT6YZGM8iJOOQKmnoERgLewFLl9ZTUPhci0kYojnvsFBgNsKLaPYIvobWvvaGhshsQekw6iNxoMj4rl8uuwQobtEBgtYDLCBjJzHBr7IjOn+9vEkKC+PiMdRZb79JmehsIrVT3As6iDmspcgiF8u5j0t3XBQGoy88uQ/0aJkYya+oyBXlBUivDVj8wMqIOaJAZBSNXZZ6xjsUZ9+OhJ/3SvY+nj+AlChpr6jKyVJ6jPyslPScvsH9RBTVp/EoRUbX0mCGIQkM8EwR7IZ4JgD+QzQbAH8pkg2AP5TBDsgXwmCPZAPhMEeyCfCYI9qNTnyBjymSCGkG6fI2MGt6+yPkfFxIeGRw38k7QJgugHqAShoNXgdlfW57TMnODQCC6/TuUXgiBYAFSCUNBqcLsr63M1t/tzuVLTswf4YWAEQbwOSASVIBS0GlwLyvoMuj/s1tc/r7CksaWD/uaRIAYBxIE+3Z8z6esPoQbdzhD43NTSkZic7ubhFZeYUl7F5QvFfFEDQRADRSiGONAHEkElCKVKn6WyP3Uurajx9g2wsLKxtLaztnUgCGKAQBmIA32Yz5ZWxsSh8VlOc1unsL5R9RMeQQwfoAzEGRIBh9hngiBUCPlMEOyBfCYI9kA+EwR7IJ8Jgj2QzwTBHshngmAP5DNBsAfymSDYA/lMEOyBfCYI9kA+EwR7IJ8Jgj2QzwTBHobM59aO5+LGFr5IzOXXcfkigiAGTB3EgT7Kf2jX0Pjc1NpRWFwWEBRqZWNnYGSiZ2BEEMQAgTIQB/pAIqikYp8lze2JyWmu7p6xCck8QX2b9MVQJQ8EMRKAMhAH+kAiqAShBt2Usj4jQ0hJy/TxCyytqFH5dSGIYQ0kgkoQatCJt7I+l1dykSdk5RSo/FoQBAuAShAKWg1ud2V9Tk7LDA6NENQ1qPxCEAQLgEoQCloNbndlfY6IjguLiKY1M0EMCVAJQkGrwe1O3y9JEOoFfV8sQbAH8pkg2AP5TBDsgXwmCPZAPhMEeyCfCYI9kM8EwR6Gjc/tnS+bWqWS5nY8vpNvfu9S/S+DIJRkePjc0t5VXsWNiUsMCArFI7ZRMsCjdHS9+v17cbv+8COzDRqb2wV1Ejz2+Q26KGxu6wRKfr8uQbxrhoHPbdIX+UUcMwsrjVt3GLCNkoG8URR1ICpf1MD439jSUVMr5AvF3X+D0vVLQ1MbT1CP08jMzvfw8snKLeizTUlTW3pWLsCGyn9hBNEPw8BnHMY/MOSeppbcZ2yjBOVv3BfGhkXGePn4V3MFiK6YBUzMLF3cPKAxlE7PzPXw9s0rKCmv5KakZ1XJ6gDID/MRkJnEXiRu8vDyBdhACXYEFKsJNWQY+MzliZxc3G/+JjPANkpQ/sZ9EW/TMnOgYkFxKRbeCUlpuvqGVjb2xZwKLMWjYuJ9/AOhsaCuobi0Ao/d8VzUkJmdh6dgeA1PBHXlPqMCly/CpFDF5cN2lf/yCKIHw8Bn6NQdn+8rxOf73fEZ5QM5SklZpbdvQEpaFk8oDg2PsrFzQHxOy8iBmX4BwcFhkTiNnPwixPCcvKIanhCF5pY2mC8srGxc3DxLy6uF9Y2Q2d3TO6+wxMcv0NPbt7KaR/GZUEOGgc+Imbn5xZbWtvc0H9y8fReP2EbJAP/QEovngKBQZN2IqyFhkZEx8ZgLwiNj8gqKsZGano1Iy/ickZ2HmOzq7oVHhGLUd/PwjoyOr64VwGcLSxs85ebhVcQpfyc32AlCaYaBz1LZJxMhzEI5U3MrPGJ74B+qgpVwdGwCoi5SaPiMxDs+MQWGR0TF4hFNQU7GZ2gcGR1nZm7l4OQKgaEuQjR2qaiqxY937mrq6RthX+TtKv+1EUSfDA+fpbIXjSAeYjIe3yrXRf3svEJ3Tx87B2dE6e7AW8iBnzZ2jnAV0VvuM+JzUmoGNhC66yUtqIn0W7YhQX0TUwt4jnkB622Kz4R6ou4+Q2BJczusq6rhF3MqsILFI7ZRgvIBptxY7kLmpzp68UmpyK6ruQKY+fjJM8RtRG+5z1g/c8qrsdhGHp6RlRcSHoUEG0/hWLL7Yd0vaHl6++HZGp6IlCbUEPX1GUFY0txWxKkIDA4zMDRBuiu/H4ZtlGAVXFJaKXnNm0AUEUtawqNiISfmAnjI/Ojs6lFQVIofAcrDImLw2NLehTZhr6GRqb2jCwI7/Ef90PAogECNEjyblJKhzAejEsQ7Qn19RqIbFZvw9JmehsIrVT3As6iDmkN7UZjcnu5gE8MONfUZOiF4mppb9SMzA+owYVbll5IgVI76+pxfyLGysXv46En/oA5qks8EIVVbn5Hr8gT1WTn5KWmZ/YM6qEm5MUFI1dZngiAGAflMEOyBfCYI9kA+EwR7IJ8Jgj2QzwTBHshngmAP5DNBsAfymSDYg0p9jozBsemtXQQxJEClbp8jYwa3u7I+R8cmhIZH0QfrEcSQAJUgFLQa3O7K+pyZkx8UEl7F5av8QhAEC4BKEApaDW53ZX2uFdQHh0YkJKdRiCYIJYFEUAlCQavBtaCszyC/kOPjF5iRlSdubKUPqSeItwXKQBzoA4mgEoQadFND4HN758vcgmI3D2/kCXmFJdVcAZcvIghigEAZiAN9IBFUUuaDAIbAZwZkCFExCXb2ToZGpnoGRgRBDBAoA3Ggz6DT7KH3mSAIlUM+EwR7IJ8Jgj2QzwTBHshngmAP5DNBsAfymSDYA/lMEOyBfCYI9kA+EwR7IJ8Jgj2QzwTBHshngmAP5DNBsAfymSDYA/lMEOyBfCYI9kA+EwR7IJ8Jgj0o5XNH1ytJc3tpRTVBDEfKq2ohgMolVBefW9q7EpLS9h84dPzkKYIYZpw4dfrsOXdPH5VLqEY+5xdyEpLTVH4aBPG2YPRm5RSQz3+4IuQzMUwhn/u4IuQzMUwhn/u4IuQzMUwhn/u4IuQzMUwhn/u4IuQzMUwhn/u4IuQzMUwhn/u4IuQzMUwZQp87ul41NLUVl1aWVXLRrApPinwmRihD6HNzW2dYVOzcBQs3b93GKa9W4UmRz8QIZUh8RmRuapVWcfku7l4zZs9Zt+GnhJR0YX1ja8dzlZwU+UyMUJT0GSY3tnQgx/b2Dbhw+erCJcs+/uzzL7/+ZsPGzVqPnkTHJtbwhO/favKZGKEo43N750u+SOzl4792/Y8f/vVvo7/6esKkKdNmzJw6fca48RM++2LU56O+PHbiVFJqBpx/nyelep8xz4H3/LskiEH7DJmra4V6hibfT5iIgLxy9Q+Pn+gkp2ZyeaLyKm5QaMSFS1dnzp476suvli5b4RcY0tjc/t5O6p37DFfbpC96GMsU4rpg7VHMqSiv5GJb5b9gYkQxOJ8xdAV1EiMTi+/Gjps4eep9rcc1PFGPOkiz07PyDh05BtsXLF4SHBaF0f5+Turd+gxLsYqIT0ypqKqVK42zLS2vxl5cfl1+EWf33n1Xrl5vaGob+AUVN7aWlFXWS1rezzUihhEYcgNM9wbnc/et7IiYufMXjp84ydDEnEmn26QvMSb5ogaojhJ0AN0oq6w5e+HSqC+/3rFzT0lp5fs5/Xfrs6S5zdrW4U9/+pPM2FapzMbKGt7R4yc++eRTLD9qBXUmphYeXr5MDEcVQV0DRIXzyFJa2jtlF+uFWNKCiyVpbmduQvj6By1cuMjFzZO5dgBXGZdSWN+o2lf/CBXCvAjMKasSiBoGovQgfEaz1VzB+YuXsUI+d+EScyAMwqzcQnMrm2s3bt2+98DN06e8qhaDFmM4JS1r9dr1X3/7nYm51fu5N/Y+fP7v//7v+fMXpGfmdu/S1hkeFTtx4iTGZ5G4KSQsMi4hGU3BbW/fgFt37plZWMclpOBCp2XmQNScvCJzC2vN+w/dPLwxF/CFYh1dgwkTJ16/cRNN4RBYzPgFBGs+ePjwkXZYRDTLPnGCGCDwKiEpzcTMAqNIWC95Y/1B+Nza0RWflLpw0ZJJU6cFBoehBBEoPCpuxao1f/rzXxg+/fyLI8dOFJVWQHUMRR19Qyyk9+4/iFH6Hi7C+/D5v/7rv7759ls9AyNMUQiz9x88/J//+dPoL7/09PbD4vng4SM3NG7hbA2MTMaMHTt79pzVa36YO2/++PETsEthSdmOnbtnz5m7fcfOpcuWP3r8tLi04uz5i5988snadeufPtMr4pTfvnNv7Nhxq1avWbJk6dSp06xt7DELqHx4Ee+H1vYuRAVkZwXFpTZ2jsFhkZj3k1Mz3rjjW/mM/BlpIwKvhZXtqK++3rZzV1lV902fIk7Fnv0H5DIzjP7q6/tajyTNHThEZGzC7Lnzps+cFRkTz+SY7/RqvA+fP/zoo4uXruzZuw+L3qyc/F279x49dmLxkqVyn69e10hMSV+/4UeIipkVfdI3NPluzBhdfUPU37Jt+6PHT7JyC3z8AvGrQnwOCo3A7l6+/uhAdGzi8hUrDY1N4XAVV4Cmli5dVlhcpvJxRrwHkNaWVdQ4OLnYO7qYmlk+fPTE1NzK1NxyyH2ulzQ7OLmdu3h5zbr1n30+6sy5CxilGHKYPiZOntLD57/+/eOfNv3MKa9C95CKr1m7/tMvRu3csxfZeGh49Du9IO/D588//8LOwenwkWM2dg52Ds7bd+xCoaLPl69cCwwJX7Z8ha29k1R2wywxOW31mrX6hsY8Yf3Dx0+mz5gJ25FRp6ZnS5ra5D5jje3s6j5h4qTYhGTsiOWTlY3dl19+hXWLyoca8R6AMBhCZuZWWHBhTtd6pA3BXN29omLihfWNiNv9xMO38pkvEmvcvouVMMxE/nz73n2k9wDHgr09fP5/f/lw+qzZmTn5COBIMLds2/nnDz/CXjNnz2VG+Lvjffg8avRoLGuNTMw2/7zlwMHDsDQgOKx3fP7xp01YPCP81grqHZxc4TBq4veBOtl5hbjuW7dt37lrd3klNzQ8asnSZTAZvUfLmAigMbaRDmk91J4xcxbqq3yoEe8BxmdDI1OMLsh8994DxGddPUOAyOHo7BaXkNz+mteK3spnjMOwiBgTM8uDR45+9sUorJCRPKOFmPik+QsX9fD5408/27PvQEU1D91Ly8hZtmLVV998e+PWHUT4lPTsd3pB3pPP8UmpcQkp8+YvWLR4SXpmLhNgFdfPZZU11zVuzZw1+/ZdTfwyfvxpI6K6jq5Bclrmlq3bILyXj//ps+cOHjpSWcNLTc+C/GfOnUc7WDWdOXv+h7XrUBn7rli5CstpcWOryoca8R74NT5bWAcGh0Fp5NvhkTGIgVi+evsGuHl4hUfGvu6130HcD2tq6UCz3439ft2PP+UVlshudwuv3rj56edfyGVGKJ48dZqltV1L+/OmVqlfYMiUadMXL12WW1D8Hi7Iu/UZCQk8RPxEwKwV1Gk/1XnyVLe+oTk2PmnvvgOhEdHlVVyNW3ewTsb8V1BUeuLUme/HT1i1es0zHf1Dh48iSiO7xrJ53foNEyZM/HnLVuRRuIjC7hf0zVHt2o2bgjpJXkEJlJ4ydRoiM36jCO8qH2fE+4Hx2djUHOtnjBmsyJxdPTA27mk+sLa1B0PrM5pCFr1uw0/fjhlr6+CMH0F+EQfjdvzEySj8buy4OfMWPH6ig1QfA5XLF12/eZt5cWsgt9yVR/Xv91SkzzeTMeU4Vj8vKjIVVPVHLYSqYHw2NbdErqdnYPTg4WMspC2sbCC2i5sn4sHQ+gwQP7QePxn15dfbd+6GyczbV+obWmITkm3tnZ3dPLNyCxGZpbIUPTAkfO78hZOnTvf08Xs/b2pWL58J4q2Aq6UV1XZYmHp4I+vWNzCG2DZ2jrr6Rs6u7ojVWD8Prc+IGanp2et/2vTl199cuHy1pKyydxRh3tmCpfWmLVtR7dKV6wJRw/u5IOQzMYxh3p5VWcOrqK7tDcoRTl8XGAf99xg4ol9AyPyFi2RvFDkUE5eEvBoCQ2y0CaM45dUubl7LV676fNSXO3bvzc4rem8XhHwmRijK/L2kpKnN2zdg1Zq1MBbL5mMnT9naO0VExQWHRugZGCMsf/LZ51hLHzpyLDuv8H3++SD5TIxQlPw8A0Tj7NzCcxcvY3n89XdjPv70sz9/+NFfPvrrZ6NGjxk3fuGSpTp6hlx+3Xs+KfKZGKEMyecNoZHC4jIzS+ude/aN/vqbCZMmn7t4xcvHHyar5K/6yWdihEKfB9jHFSGfiWHKEPrc/cXJKek7du85e+FSZQ1fhSdFPhMjFPo8/T6uCPlMDFPI5z6uCPlMDFPI5z6uCPlMDFPI5z6uCPlMDFPI5z6uCPlMDFPI5z6uCPlMDFPI5z6uSLfPSanYIIjhhaS5jXzu6XNeYUlYRDSuC0EMOxJT0snn32nteF5YXIYrQhDDlJCwSJVLqC4+EwShVpDPBMEeyGeCYA/kM0GwB/KZINgD+UwQ7IF8Jgj2QD4TBHsgnwmCPZDPBMEeyGeCYA/kM0GwB/KZINgD+UwQ7IF8Jgj2QD4TBHsgnwmCPZDPBMEeyGeCYA9D6XNH16umVqm4sbVO3NTQ1EYQxACBNa0dz9XF5/bOl3C4ulaQnJYZFBrh6u4VFZtAEMSbiUkIj4wNCA4rLCmrl7Qo+S3wQ+AzZK6s5rl5eDm7ukdExUbFxMfEJ+UXcQiCGAiZ2flBIeGIgt6+/nxRgzJKK+szZK7i8h2cXCOj40TiJuUTBoIYmSA4+weGeHj5Cuskg25EWZ/FkhYfv0C/gGCsnFV+RQhiWNPY0hEdl+jtG9Dc1jm4FpTyGYkBlydycnHn8utUfi0IggUI6xsdnd2ycwsHt7tSPmMWSc3IRpKg8qtAEOygsbk9Nj4pKiZ+cLsr5XNTa0dSSgZWziq/CgTBDhAjM7LzgkLCB7e7Uj5LmtsxkZDPBDFUNLdJU9KysIQe3O5KxmdpWkZ2Ykq6yq8CQbCD1o7nBcWlwaERg9udfCYINYJ8Jgj2QD4TBHsgnwmCPZDPBMEeyOeho0vVHSBGPOrrc5v0haS5XdLcNhAaWzraO1++7kAdXa96MOTXsblVKqyTNDS2otvNbZ3gXRyFIPpHTX1uae8qKa0MDAn3Dwp9IwFBoZHRcVx+3esUwrxQzRWUVdQAbODHob2IOG4xp8LT2y8xOV1QJ0nPygWSpjaV/3aJkYY6+gw9+EKxnYPzrTv3Hj5+oqtvqGdg9Dqe6erf13oEAoPDWtu7eh8FcTsnv8jMwurxk2c6eoaOzm5FnPI+gzkKcTkAoiv6hkiLnuAR25hf5JMFNlraOpERoCaexSN25AnrUzOyOeVV8NnDyxfQn38S7x819bm6VmhmYf1I+yks5fJFLX2JimqItEUl5U7OblqPtKFQn390yfiM4NkdM5vb4Sok7LM1QV1DQVFpXmFJanpWfGJKcWklXyRG+3HoYlauQNSAptqlL3hCMSpExybkFZQgLBeWlOEqgOLSCnSVfCZUiFr7rPngoY6egZ29U2Z2fr2kRTGoot+1grqYuEQTMwvtpzpv9Nnd0ycpNQPGMktc7I4GhfWNDFiBowTVLK3tDI1NbewcjU3MDY1MkSM4OLlYWtnqGxr7BQQja0BW7+MXaGBkYmlta2PrgA17RxdOWRXAlIFDwHbymVAV6uuzta2Dm4c3Mlj4A6u9fPyx+sUu8BMqZucW2Dk46RuaRMXEI0Kicv8+W9nYm5pbQs6IqFgoV1nDQ+R3cHJliEtIxpmgmqu7Z0paJtLpKq4AlfFUda0AP6KT6ExufjGedXJxT8/MxYXjCerhMJwnnwk1Qa19ZhTt/hOwrDzEQyMTc6TBzH0yLKpd3b0qq3nQVbFy76MwPju5uPn6B8E3ZNTixlbEZBRCTga0iVQcJZg18IhdYKNcS6YFPIW0OzI6Dt5WVNWiZXiekJSKOuQzoSYMA5+lvy5uJaHhUXr6Rg8fPzG3tIFa8qcG4jNkQ9KOCq3tXa+7GfZGnzOy82AsAnV2XiGa4osaEOQxU5DPhJowPHxmwLq3vIqLkCgQNbyxshx5fMYCGKE4J68Iq+jer2wNxGfsyymvRl6A1mLjk8Mioo1NzXFo8plQE4aTz30yEJ+LORVY9DKvb2EDP/YO0Uy1sIgY5lmxpAXpABDL7sPJn0Lyn1/EcXR2MzQ2w8IeFULCIpH2g9CI6KzcAmTy8h1V/tslRhrs9/ld8I7eZEYQSkI+EwR7UFOfa3giGzsHRydXLJi5fFE/1NQKsaw1t7TG+pZ8JkY4auqzSNwEPx8+fvLw0YDQ1TOMiUvs841fBDFyUEefpbK7U3xRA56Vv0TcL1k5eYVD/lcWBDHsUFOfCYIYBOQzQbAH8pkg2AP5TBDsgXwmCPZAPhMEeyCfCYI9kM8EwR66fS5Slc8tHcmpGbHxySq/CgTBDprbOrNy8lXz/c+NLR0xcYnunj70Pk2CGBLEja1+AcGBKvEZiMSNbh7eZZU1Kr8QBDHcae98WVnDt3d0zskvGlwLyvrc2NIeFRPv6u5F774mCGWAzLX8Ov/AkJCwyEE3oqzPoF7S4uMXGB4ZI6xvbGhqa2qVNsk+qp4giIGANTPSbERmyAzqG5pV6bNUlvT7BgS5uHlGRsclp2bGJaYUFJcSBPFmikqzcgqwZkaajcisjMxD5rNUdp+dU1aVmJIeEBTq6e0XHBpBEMRACAoJDwwJH/Sa+Z34TBCEyiGfCYI9kM8EwR7IZ4JgD+QzQbAH8pkg2AP5TBDsgXwmCPZAPhMEeyCfCYI9kM8EwR7IZ4JgD+QzQbAH8pkg2AP5TBDsgXwmCPZAPhMEeyCfCYI9kM8EwR7IZ4JgD+QzQbAH8pkg2AP5TBDsgXwmCPZAPhMEeyCfCYI9kM8EwR7IZ4JgD+QzQbAH8pkg2MPI9bmj61VLe6ekuR2P2GYK2ztfNrd1Nsq+j/6PNbtQs6lVigrycmyjRNLc9htoqkvelCJtUqYmU6HPzvzCHEKxM4oHkjS1CeokAAdi+oBq6Kpim/IzQvlvdX5tVl4i68wLcWMrX9TQ3VpTm+IZ/bHPL3AdmFOWt9zrZH/pcTWwC3aUF+IyoqTHSfVzNfo8U3k7imeh+NtBa6L6Rr5QjNH8ul/BCGHk+ozxkZqR7eLmGROXJBI3MYX1kpaY+CRv38Di0kr50EHN5LRMRxe3oJDwKq5APgR5wvqwiGhbB2cGRxf3sMgYTllVY3O74jDF8Kqo5vkHhTm5eqRl5DS1dvbuDMZrTl6Rt28AuoTDKT6FwZpfxLF3dLl1VxPYO7kWFJcxPqSmZ3v5+GfmFGAQoyZKEpLSUDMqNqGuofuMUJ6VW+Dp45+UmtEgUxdnmpKWZW5po3HrLlqzc3TJyS/CU70dqKxBn0NxgjhN5lqh//KTdfPwRocVZz3mamAX7MiU4HC4jAFBoYon1c/VeN2ZMu3gl4JfDX5Bip2E4WWVNf6BIQ8fP716/eZTXQP8Cmp4QsWOjShGrs8IUA+1n347ZuzK1T8EhoQzSpRXcY+fPL1oyVJvv0D5mMgvKj189MRHf/v7gsVLPL39mZogK6dg5+69H3/62fiJk6ZOnzF+4uTvxn2/6eetPv5BisMOI9LR2W3WnHmoefbCJU5Fde/OYAqwtLZbsWoNuoSOycsxlJNSMvbsOzBm3PeTp06fOHnK19+O2bVnPwrrJc3QctmKVfcfavOEYlQuLq04eOTYn/78l11792XndX85OKLc4yc6y1auMjK1gOHVtUJDE/P5CxfhrCdPnTZpytTvxn6/dv2PkLOHJyA6LnHt+g04QZwmc62+nzDx2zHjps2YOX3m7A0/bXLz9MGpyeszVwO7YEemBBcQl3Hz1m2KJ/W6q9HPmUJatINfCn41+AXJj4hyGH7oyLEJkybjVzBl2vSx4ydMmTbjmsatvMISxTRh5EA+j/30i1Fnzl8sLClH6OjtM4YFbF+zdv0Xo7/EIHvwULtWUM+0wIzgVT+sDQwOR8yJS0i5//DxnHnzURnxB6ONqVZVw79x687Y7yeghQ0bN0VGx/dOGl/nMzQzMjVfuHjptRu3MK2kpGefu3h53YafEMTwm0PH4CochsnofExcIjT78K9/W7F6TVBIhCysdRu+dPlKBEk0a2xmMXvu/LUbfrR1cEJrmTn5OvqGaHzNug2KHWbo7fPylasMjc0wKYjEjXXiJpipGNUH6PPrrkY/Z4qcorfP2Cs1I2fP/oOYXK5cuwGxEcNxFgcPH5s5e86tO5qo2efSht2MdJ8Rc0Z9+dXc+QsRwZBX9vZZWCd5qqO37seNGF7rf9y4dfuulPQsZhz3HsFowcjEbM68BYg8pbLIg5pxiSmbtmwDp89d+GHdBgNjs/qG5h6deZ3P3QH2qe7iZcu1n+pCJChUWc1Lz8otq+QiTcjIzkcHfty4OTYhGQktEtTVP6ybPmv28pWrrWwdsBBFOZ5FnYzsPKTcyB3wVGBwmDz1QKZtbeuwYNESeYfl9PYZ3UNGgLU35jhmUa1Yn7kaOMHImHhUAOgtlgObt/zucz9Xo58zxcVhfN538DBKsKxgBq6eofG8BYuu37xdUV37ezdyC1Ft6YqVWGXIM6mRw0j3GeP7/MXL23ft/nHT5pDwqJKySkWfMcFnypzZuHkLsujb9+6vWrMW6SKTZ/b2GUCbjT9vgUXxSanSbmFa4cAP69Y/0dHz8PLFjIDUHfGnR2de5zPGLtaq8G3ewkUPHz9BFMJyEW0yLnH5dQhEiLce3n6VNfy797V27tl7777W1u07bty8XVZRg3I8izpY02J8L1m2/MSpMz28hSFbd+ySd1hOb58XLlmqcftuRHQcnERCi7lAsT5zNRBgTcytUAGgBe1nemvWrZefVD9X43VniokDodvO0XnO/AVTp8/ErBqf2N1PPHvqzPkly1d4evspeotdzCysMa/p6Bkij1D5MHvPjHSfoZCJmSUWkBt/3nr+0pXwqNijx0/JfW5u6/Lw8sPguHJdA3p4+Qas/2kT0kUkjdLX+NyjkFNehWQeAxe5MSaLU2fPozVs91jdvc5nwOWJjE0tsMhHjjr2+/E/bf4ZKWgNT4iBjphs6+CMLukZGGMeQWp95PhJv4CQ/QcP791/EEbpGhjhWdRB9LOysV+5eo3WoyfMYltOEaf8wOGjWCNExiQolvf2GUf/bNTob74b8813Y3GVcvOLFeszJ/7R3z8e/dXXqCBjDJLqceMnyE+q/6vR55linoqIituxey+awur97PmLWCagcnZe4a49+xDho2L/0G2sGpxdPZBPaT1+wv/jmY4EyOc1EKmiqvaprj4GBxZv23fulvuMxA8xGXVMLay7B1Z0PAI1QllcYioiZG+fEc+xqNu6fSfWsdAJyoWGR2HIYuQlpqRjRnima4CM4KmOvrBeghZQgUlc+/FZKlsr1vBEfoEhFy5dnTl77oxZcxADEbWwY1RMwuat2xG1sCSGxjiLwpIyrUfa23fstrCyRRaNZ1EHCYWLmxeSi2s3biKPlbfcu8NQiwn+vX3GqgTzhZmFDZJ5rM+hn2InmauBtStiOCoAC2u7C5euYIXPnFT/V+N1Z2pkYo4Zat+Bw19/O0Zx/VzEqThy7ASumH9QqOLkiOUAJoXlq1YjBcAspvJh9p4hn7t9RrKXkZWHmDZtxszxkyYzPiOLw7BD8ow19p69B65cu3HyzLk58+ZPnT4DuyDb7OEz3BA3tjk6uy9asuzoiVOIeyJxEyLntBmzlq9YdebcxUtXrm/bseu7seN27tmHZR4OWlDcfVMKww6tmVvZrFi95tGTZ4o+Y6TyhPUIZXyRuF36AtWsbO2xPj934RKjZVFpBRzbsHHTmXMXMOiRVCPhdHH3gjMoQTmeLZLdLcNa+qfNWzb8tBk5CJOgyju8eOnyYydP5xdxMGdhfYGWMZch7iExRjuIhIrXqlG2fO3NG++H9X81+jnT0vLq3vfDBHUNT57poeeIw5h2mTmoTfoyr5Bz4vRZTBOuHt497vCNBMjnX8cofvdePv5Ll6/884cfMT5jpmdWdEj/EHZmzZkLJk+d9u2YscwLLcwIXr5ylbunT2lFTWFJubuX76Yt2xYvXWbn6IIRKXuh6/hX33w7BaNYtjv+993Y75etWOXp7Y/6mCCw4EQcS8/Ku6P5AD4bm1kqvnQkrG/U0TdEf27evptbUIKlr4Gx6YLFS5BHYBCjgqBe8kRHf8GixdNnzjp4+GhKehYKoS48xNy0cPGSZ3oGaASFtYJ6TBYzZs85dPQ41sCc8uqiknIssNHhFatWu7p7IQ9HSF+5ao3GrTtpmTlYsi5dvuLYidPFpZXMtcJiVfupLrRHaK2orsXQGfj9bZ5I3P/V4PLrXnemyJ4Ynw8cOoLpBv0UymbA7txkyzZcQARk9Aq7INe4o6mFczx+6kxBr5sUIwHy+feYgxGv9fgpRhjjMxZ7V69rID/ETN/y20yPSLJn3wGsAKEEQjpG8KjRXyGMICDgcdz4iVBI38gESSNGM/JGrAYZJZjdEZOtbR3Q5v2Hj4s5Fdiev3Dx9xMmzZ43f/zEST8jN45NRJCRdxJRC6vHLdt2wAFkxbv3HcBgxVrXxy+QCT54hIpz5y/4+LPPL1+9zizsmaD94V//hvDl4x8kv5uNGeSaxq2Jk6dOmDwFT82bvxDL1HkLFukbGqPDOG50bCKOgvkLsk2ZNh2JBtJmzC/MtULmgukM+uGioUtI4BXf+tK/z0wW3c/VqOIKXnemUJfxGckRZsDL1zQwrSSnZdY3tnj5BmClgAuIi7942XL0GQEfv6DY+OSR+ZaSkeuzUNxkbmV78MgxDy9f+fsikP2ePnseAwJJaWp69qkz50BGdr58L+TGJmaW+w4cgkXwGUkjE2oABh9iC5bWzCiHBrb2TvsPHUGsFv8WchHQkMNj4Xf+0pW8ghKEGntHl01btkIq1MSitMebw6Sy93glpWZgECM8zluwEDEqMCRMopD0IiYfO3EKw9rZ1UMiu+fMnNrqteuQR+T88a4Vjujm4YOVBZpC6oF1QWBIuDwjwHWIiolH7o3+YM4ys7RmFsnyBuUnu3HzFsXrBgqLy3A10BMmR5DKJiNcxrMXLmLfskruG6/G686UaQe/FPnRmV8QyiEtfgt3NbVWrVmL9Tb6jCCPaUtxThxRjFyf1Yf2zpcYl697H7Uc1JG9hDYEb05GI0xrr3/2hQqVGMSZMm6/8RqyHvKZINgD+UwQ7IF8Jgj2QD4TBHsgnwmCPZDPBMEeyGeCYA/kM0GwB/KZINgD+UwQ7IF8Jgj2QD4TBHsYSp/bpC9a2ruaWqUEQbwVEGdIPmB4aHxu7XjOE9Zn5uSHhEV6+fh7evsSBDFAoAzEgT6QSMk/2x4CnzG15BdxnFzcHZ3dEpJS8wpLCkvKCIIYIFAG4kAfSASVlPmYYWV9bu98id54ePkmJqdJXvPJUgRBvBHoA4mgEoQa9B9yK+szTyj2CwiOjk0YgZ9dThBDCySCShCKN9hPGlbWZyT9QaERVVyByq8FQbAAqAShmM8YHwTK+hwdmxgaHjUCPxiVIN4FUAlCQavB7a6sz2ER0UDlV4EgWIMyTpHPBKFekM8EwR7IZ4JgD+QzQbCH4eRzR9crBpVfNYJQT4aHz23SF2JJS3WtsLySi0dsD8kb0AmCZQwDn1s7npeWV3t6+z3T0dd6+BiP2EbJyPzSMIKtIPFElFLya3fU3WecZHkV18nZTd/A2McvMC4hBY/YRgnKKfcm2AFGsqi+saikrJorkOeeKITeDAMc6uruc1OrNDY+yczCKiYukfn+RDxiGyUob1L4jsJ+rtQfVt1dv7ztIhyVW9o7cSz6yjLiHdHS3hWXkPzk6VM7e8fS8qrWji5xY2tFFbeIUw7JOWWVVTV8CN/S1tn/0FV3n+samrz9Aqys7XBi8kJsowTlePaNR5E0t/Ow4v7t77egpaCu4a3+nKu5rTOvoDg1I5v5cnOCeBcIRA2+fgEPHjyws3coKOLEJyQbGho9evQY3L//4N49TXMLy+TUDGGdpJ+bR2rtM6YivqjB3dPbwtKmsKQMcxgDtlGCcjzb/3SFiJqTX+Tl449HJrpyyqoCg8OYH5mvPkXAR/j99UtDZVcKTzV3f/JDB3PhIH9EVCzy/JpaofTXcN2FveA5RWxiqMC4Qhy2tLLW0NCA0oXFpYjP+YUl6Zk5YRFRDo5Oz57paGpq2js4odrrbh6pr89whssXpaRlQV09faPg0IjU9CwGbKME5XgWdfr5c8t+fO6+Z97YmldQEhWbkJaZg6tXUFTK5YkQwCureYkp6bEJyUgEJM1tDU1t8NnbN6CKK5B9moo4Iys3MjouJS2zhiei23KE8kBmBF4//8AHWlr3HzzQ1Lxv7+CIKB2XkKSrp29iapaangmNvX38HjzQgvPFnPL2zj6itPr6XFpRY+/o8vDRE+2nOk+e6fYG5XgWdVDzdY0wPrt7+iSlZiDNRsKclVPg6x+EQsiMFYuRiZmJmaWNnaOpuSXW5Ekp6QXFpY7ObpZWtg5OrgDqCuokoeFR2M7OKyzmVLh5eJmYWtjaOxqbmru4eZZV1FCUJpQE6V5kdOzjx9qIzAjIXt6+9+7d+zXxTkzW0dXT0dVF/MAADg4J09LScnF1Q+zp3Y6a+sx4aG1rjywXQbKiurY3KMezqCOPva9rx8rGHro6OLnASUR1WzvHnLyikrJKFzcPhHqcBq4m3Ea1xOS07NxCNItrV8Xl5+YXF5dWwmFnV49H2k8R54NCwjE7YF+0XFpRDZ9DI6IRwFU+IIhhDdJDc3NLQyPj3PxC5JuJyalYNt+4cQNKY5xj2WxkZOwru2FUy69zcXXX1tZG6O6dG6q1z7b2Tkh0f793Jbs1jUfmR2ZZizpv9NnJxQ0xGSEalkJgNw9vSItyT2+/9KxcZpFcxKlgwnh1rRDSmllYw9WE5DQuvw4X1M7B2dXdM7+I4xcQjMQbERu7iMSNHl6+aEQkfvNtOYJ4HRilSKef6eg6OrvU1AplnzQSf//+g1u3bt29e5dJvBGlIyKjBaKGppaO8Mjox9raAYHByDF7NDVsfIZ1SDaqavh4VLxNNRCf+1w/I8bCxqiYeJwGmkpJz0LqjnxbLGnBIbAwRomdgxMy7VpBHXM/DPtGxyZAYE55VXObFDkCpoaA4LB6SYvKxwQxrKnhCZ1dXLWfPImJTZA0tWVk5ejrG+jpGxgYGt6+cwdRuqS0gvlo3sLiUnMLS30Dw6yc/N7Dftj4XMUVIOnVfPAQj8xHFCnpM6RFHLa0tkMfYuOTIbOhsVkCAnR2HoyNiUtE6Iau4ZExtYJ6xmcct6ikHIUI0fGJKXhE1GZural8QBDDGgxO+GlgaKSnp5+YlFpdKwgODUfKjfiMKK2hcRNKl5ZXIdnG0hrah4ZH9g7O0uHiM35ErmtmbnXz9l08YhslA/QZq9+wiBg8MnUqq3lwlfkRuY1/YAg0xhwRHhWLSJuVW4CzSsvItrV3RDmydGQEWF0jbqMCTyhmPmAYqbiBkSlW47kFxfR5ScSQgMVwekY2ArK29pPA4FDk2OERUd2hWN/g0aNHt2/fZm6PJaWkxcQlCOoa+mxkePiMEr6oAUtfEzNLPGJbOrD4PBD6fLsY81a7fnYZ+FvwCGKAINHLKyi2trF78EALDtvZO4aERWC17ODofP/Bg5s3b3a/e6yievi9n6TP+2EoRHiUazZUPhOEWoGBjfWzvYOjjq7ek6dPn+C/ZzrGJqZGxiZaWlqOTs7lVdzXKa3ePts5hkZEi8RN8neGKYJyPNv94hP5TLARjGqs9RoaW5tlb9sWiBr8/AO1tB66eXi+7kO21dfnvMISG1sHJxf3hKRU+TvDFEE5nkUdZb4TgCCGEVA6KDjUxy+gmivoc7mnpj6Dmlqhj1+grr5hn28OY8Cz8rdVE8RIgPlDg9fdu1Ffn6WyP2ziCer7fHMYA56l28sEIUetfSYI4q0gnwmCPZDPBMEeyGeCYA/kM0GwB/KZINgD+UwQ7IF8Jgj2oEqfI6PjcGz642GCGBKgEoSCVoPbXVmfU9IyQ8IiX/eXnARBvBVQCUJBq8HtrqzP5ZXcoJDwzOw8CtEEoSSQCCpBKGg1uBaU9Rk9iE9K9fT2Kymt7OcztAmC6B/oA4mg0v9v7zyc2zrWO6r/M5Nk8uYlk2SSTObNJPPs59gyZVmd6uy9995776TYO0gU9g6KEtVs5wArITCLRJOMAe77cY4w0N69e/de7tnv2wsQQKhzR8eL+myaIENIy8juGxh2elY9KxtLQogzgzKIgz5IhEoIdREZL+qz1/9J4t19g8mpGXEJyVk5eTl5BUKIM4IyiOP74oe+QfOFjSH2OZAwLDiXRiemh8cmhRBnBGUQ51KWq5fpsxAitMhnIexBPgthD/JZCHuQz0LYg3wWwh7ksxD2IJ+FsAf5LIQ9yGch7EE+C2EP8lkIe5DPQtiDfBbCHi7NZ/O91Z6VDZdn1SmEODMu/6eAoM/FvwL9cnze3Nmfml1oaGrNyslPSEqNS0gWQpwRlEEc9EGiC3538iX4TA96+obSMrIKi8uGRsYdzqWQT3hCXCFQBnHQB4lQ6SJKX8LnAfb0D+UVFA8Nj188WxDirxb0QSJUQqiQfR7g3IK7qKS8o6sv5JdDCAtAJYRCq/PtflGfO3v6yyqqF5xLIb8QQlgAKiEUWp1v94v6XFvfVFFVu713EPILIYQFoBJCodX5dtf30QkRXuj7JYWwB/kshD3IZyHsQT4LYQ9Xyee9l4eGkF81IcKTq+HzjvfVytrW3IJ7asbBI8/1ldFCHOcK+Ly9dzAxNZeTV3j3XuSNH37kkeeU6IVrYRMknkSpC77xOdx95iSnZh2paZmRD5/kF5Y0NrfzyHNKKA+T3FurAHFBGD+e5fWRsck5hyuQe1KI3oYzDrBw93lj29vQ1Po8Ora+scV8vS2PPKeEcrae5UoFc7m/BnIEz8qGe2ntN31hJ93Y3NmHc/fn4i2IsILx09jcdvvOncSklImp2e29lyvr29OzjpHxKSQfn5yZnXci/NaXfuPh7vPS6kZeYXFsXCInFijkOSWUs/WLR1nb3GXOm5yeZ+3tWPSsbeycL6Vhr9WNneW1rUCezxOaLS6tYH5hSX/2puhDV+8A8OR8l+7iLYhww+VZLSgsjoiISExKfjEy3tTc9ujR45s3f4Tvv4/47rvrUdExbR3dBI/P3DwKa5+Zipye1aycvOiY+OGxSeYwA88poZytn5+ukLB/aIRg/uPtu/fuP3zyLIojOj0rJlYjJNF+c9vrM/yl764bJUef04j/OSazb25+0fTcwq7/glLS0d3X1dO/vLppapolEJUDBPocaA0I6dm5BUBPSDEIs4FNtMAcTK+o/6s+7L+mnxvbe+Z3GWiBJx/32n3pO5egpsTVgl8icTgmNu6rr75C6eHRCeLz0PAYA6yyujY5JfXu3XvXr19PSk6l2mk3j8LXZwaow+lp7+xF3QeRj8sqqju6eg08p4RytlLnM7mu8Tknr5BQRnfbOntS07M6e/oZ9+7l9f7BkZr6pubWDhTd2NpbcC6NTsxgCA1Ozy4MDo+5/HPh3IJrbHJ2bGIGmeMTU6i/4FqmzqJ7pbt3oKausb2zZ37RwyWm2fGpWXYcfDE2NDI+MTU38GK0t/9FV8/A0PA4HTC9MjYmpaR3dPWRZXEWNOhbJnlf0SYnWNfQTAuj49PMXOzFsWbmFlvauxqa28hN1jZ3SL1oISsn3728xnGP9yTko1P8JpCZwFtYVBJx48b3ERHXr3+flJxClG5sbr3/IPLps+cdXT1onJdfGBFxA+dHx6d290+I0uHr88T0PCP+h5u3b925d/vu/eNQzlbqUPO0RgI+9/QNEb6QBA3au3pnHa6ikvKnz2PiE5MJ2jwiHlspHBgaRWOePIuKwXy0r6qpL6+s6e4dTExOi3z4hBZejEzgbWZ27tNn0QlJKbSQnplD7o1dbL1z7wHlxWWVvr9HLS1nBrn/4BH7Ts06TK+Mzzdv3eG4lD968rywuMzpXnE4l/ILSx4+fhoTlxCfkMwTzm5scobZJCUtMyY2ITk1A5ibkDYzOy8hKZVN45Mn9ERR+mrB4Kypa/jxx1tEZgJybl7Bd9999zHxbmm7d//Bvfv3mawZjWXllTdu3EjPyGTxeLydMPXZeBiXkMT4JiIRP49DOVupQ83Thq9pJy0ju7S8Co2pj0gEPUQluPUNDhPKuC6k7mzCUqo1tbTTcm5+4fOo2Nr6ZsIyMhPYkbC6toFq8wtuc5eOFpCNQ0xMz2FRRXXd7LyT9uPik2jB3KyifWaK7Nz85tZOcz/P+8nn1HTfr4TsmsCLnMwj7f70gWDuC7muZaYhbCftItRzXLbOOpxUGxmboudRMfF370VW1zVyDY/3ZFXr6isFv+WoqJhHj5+QyJGOtbR1sGz+85//jNKMJZbNjx8/KfDfMCKLTM/IunXrFqH7eCIW1j4Tf1BobXP3Y/lLX1rCo/kv5Wylzhd9JkmOS0hGj8rq+smZ+ZW1LRLavIJi9PP67y0RgfMKi7mmpKylFdUoTctozCMe0klsIcsN+MyZE1FpgUju9fnpy35pn8AYvKzl6ByOyYJpwpQYgle/podk8kw3HJ1GSPWpg+ck9tQh/BK6aeF5dByuNrd1zi+6yeGfPI1imqD9E3sSfDgR5jAGSKfv3rufkpbO6MLnuoam77+P+Mtf/vLtt9+axJsoXV1T5/KssjCsqqn78dat4pKylfXtI01dGZ9Zx5JsYCCP5p7Q2X3GluA6zGqsUbNy84mcRNoF1xLZdUFRKUlsT/+QP4bns6ztG3hRXFpB5Kypa3J6VjkcvuUWFOEb1xHT0Yase3PHS7JANRJsNgVE9a2IltcrqmqpRlbML+n4/bBgn7v7Bls7ummH2EuvOGJJWSUxnKmE/9IU3cP5xORU2pyZXzQtzC24607qyfJvud8uQg5zdFp6xq3bt+sbmgkw3b39kZEPH0Q+fPjo0Tf/8z9E6bGJaYaB72bw6ERUdEzkw0e9/UPHh/2V8ZkVL2nz9YgfeOS59wI+w8zcIg5kZOXiLdqwKCWjJkOmPC0ji1UoSa/D6SHuPXj4uL6xlVSZS0nGm5GVU9/YgkUk55hDBYI5j+zFIZAwIOrO3gFZfWx8Eqk7oh6/H3bE5/5BEqs5uoTDDU1tXBm6QVpBqbkFwHFZOXNQsokZf2IPrNhJv4/3RO+HvVowDPDz4aPHDx5EtrR2zC24yiqqSLmJz0Tpr776GqUnpmZJtllao31FVc3x4Oy9Kj77Pr5wZJwF7dfffMsjzyk5o8+j49Ok2TwG1zFLTSx69ORZQlJKZ3efeSGXVLyqtiEnr2ByxoHDre1dGBLYF8PJxvGtd+AFW+kGCfDDx8+YDgj1TAfsTvCEFf/L1FSLT0xmRgDcY7IwRw+uFtxDWqDNlLTMR0+ekyZQgZyfvegbPaSflJNHkKQsr20GWmCiOd6TkA9Q8VthwHR19xGQb926XVJWQY5dVV3rC8WRD2/evPnNN9+Y22Ot7Z31jc2updUTG7kaPlNC6CurqH76PIZHnnvPFp8/T+D9dOc+BdPC5b5J67T3sZlj/Z49Eb8zZFWDL0bj4hMjIm7gcGJSSnllNavl5JS07yMivv76a9+7x6bnrt77SU68H0Zh8Cr04j4LEYYwsFk/JyWn3Lv/4PadO7f5d/fek6fPHj95euPGjZRU3wufpykd3j4nplRU15k3eByHcrZSRz4LKzHf67a6vm1e+3R5VguLSm7c+CEzO2fRvXLiLuHr8+DwWHxCcmp6VnNrR+CdYcFQzlbqUFM+i78GULq0rCK/sHjO4TpxbRWmPsP8gju/sOR+5KMT3xxmYKt5QTjkF1qI3wfzrv7TbpSEr89e/7fVLbqWT3xzmIGtupcrRICw9lkI8ZuQz0LYg3wWwh7ksxD2IJ+FsAf5LIQ9yGch7CGkPtfUy2chLhGfzzX159v3oj7X1jdVVNX+pk+uFkKcBiohFFqdb/eL+tzZ019WUe1wLoX8QghhAaiEUGh1vt0v6vOcw+X/FN4+fb6sEBfE/ylafQg15//0nnNwUZ+hu28wt6BocHhsfWtPfyMlxDkwf1aJRKiEUOdu5xJ83tjaa2nryszObWxpn5p1ON0rTs+qEOKsuFcQB32QCJU2Pn0mdGh89vo/KGdiej6voDg6Nj4mLjEuIVkIcUZQBnHQB4ku+GlTl+Oz1/9Z056Vdceihwg9Oy+EODMOJ+Kgz9aF/3D40nwWQoQc+SyEPchnIexBPgthD/JZCHuQz0LYg3wWwh7ksxD2IJ+FsAf5LIQ9yGch7EE+C2EP8lkIe5DPQtiDfBbCHuSzEPYgn4WwB/kshD3IZyHsQT4LYQ/yWQh7kM9C2IN8FsIe5LMQ9iCfhbAH+SyEPchnIexBPgthD/JZCHuQz0LYg3wWwh7ksxD2IJ+FsAf5LIQ9yGch7EE+C2EP8lkIe5DPQtiDfBbCHuSzEPYgn4WwB/kshD3IZyHsQT4LYQ/yWQh7kM9C2IN8FsIe5LMQ9iCfhbAH+SyEPchnIexBPgthD/JZCHuQz0LYg3wWwh7ksxD2IJ+FsAf5LIQ9yGch7EE+C2EP8lkIe5DPQtiDfBbCHuSzEPYgn4WwB/kshD3IZyHsQT4LYQ/yWQh7kM9C2IN8FsIe5LMQ9iCfhbAH+SyEPchnIexBPgthD/JZCHuQz0LYg3wWwh7ksxD2IJ+FsAf5LIQ9yGch7EE+C2EP8lkIe5DPQtiDfBbCHuSzEPYgn4WwB/kshD3IZyHsQT4LYQ/yWQh7kM9C2IN8FsIe5LMQ9iCfhbCHoz7vvTzc8b7a2n0phLgSICzaHvV5d//1+ubu1Iyjpa2zrLKmuLRCCBHmoCrCoi3yovBHn3e9rxyLnpq6xoSk1OfRcUKIKwTaIi8Ku5fXfT47nEslZZUh75YQ4tyg8Mj49LV//9N/N7d1xsQlhrxDQohzg8KV1XXX/vjP/5abXxTy3gghLkhKWua1v/vDP2rZLIQFPIuKufY3f/+HqJj4kHdFCHFBIh898fkc8n4IIS7Og4fyWQhbkM9C2IN8FsIe5LMQ9iCfhbAH+SyEPchnIexBPgthD/JZCHuQz0LYg3wWwh7ksxD2IJ+FsAf5LIQ9yGch7EE+C2EP8lkIe5DPQtiDfBbCHuSzEPYgn4WwB/kshD3IZyHsQT4LYQ/yWQh7kM9C2IN8FsIe5POpxMYnpqRlZGTmZGT9ivTM7KTktOjYj9/gFxOXkJyanpGZ7StPSYuJTQi0EJeQlJqe+at9M/x14nx1aIF22OszjRviE5LTMrI4BAdi3+PNAiWUm/5wCLqdlZ2XlZ3LjgmJKVEx8YF+HtkRfHWSUo92JjM7Nc3XZlTMr04zcKDTCo9sonH6f9LlTaL9zKzcrJw8HnlOSfBlMTue2G0uI7+ckI+QMEQ+n0pBYfH0zOzO7u7u3l4wG5ubvX39jD9TLTevYHxicmdnZ3t7e3hkFIUCLZSWVSwsLAbvu76xMTI6Vlxa7hulaZm0Q2ufadxQVV3rWVra3tkZ8bd/vFmghHLmoKLi0rGxcTr99u3bw8M3a+vrnV096JGdm8/uNHJkR6DxtvaOI53hjJxOV1NzK64ySXFcs7s5kOnYiYVHNtE4/T9ybeMTk2tq6xcXnQcHB+/eveOR55RQHrgsZsdAO8EdXltbr29oCvkICUPk86kUlZQxyA7fvHlrft69+/Dhp19++eXNmzcvhkcY5dQhdlXX1G1ubv3i/1lf36isqgm0UFldy7j8+eefGbKvXr3m5/379z/99BOFdfWNjNTRsXE2UYJ4B/4fPBwYGDKNB2hsavbu73/48GFubj4nr+DXzb4yO7rc7rLyyuKSMpfLTc13795zOLpOtcPDQzpcXlE1Nj7h9e4fHLx66y8PHHd1ba2ruye4MzTLefOckx0fnySEclyOTsscuvKTnycWHtlEz+l/8KaYuMSGxmbmC1/7b9/ST45LfyihnLTC9MTsGGiHn9eHh+Zkt7a2j7QpDPL5VIhpRKfBoReDQ8P4MDs37/V6GYJb29sEB5NXE096evsR5mf/D0Ozo7Ob8WpaMOIxEJ0ud3NLW2tbh2NhEVvef/gwMzvHVjNwX758OfRimIkAKiqrkSc4aX9+is+mWXpodmT2SU3LaO/ofOWfNQiYzS2t5AsIzH9XV9dq6xpy8wsrqqrrGxo5l+DjElrZPbgzTDdDQ8NbW1ucL/GQ871En9k0OzvHJuY4Dko/5+bnD/0T59T0DP050eft7Z2e3j5zsmUVVWTjIR8hYYh8PhOMHvJkE0wY7oHBVFhcSlLKaHv50hc3eDLvcOQVFJmtAfGMh5SUVVSiFpIsLS03NbcED9zPHP00nwPNGlJSM+gbsZegytBn2czW/oFBh2OBFUFJabmpxjx1/LjHC8l8+/oHsOz160Nmokv0mbmDbIKLgKIEZNYI9I0e0k96e5rPxw8hjiOfvwwDjhiyt7fHqFpYdBYWlZjy6Jh4AhcL7Hfv35OZIzaRkNybDNzcQwqINz/vYK+k5DTqb2xsMpRdbg9D+WNIPDjo7uklLANexR27e3SizzRCfK6qqfXdT8rOTU5Nj45NIFwTYH1JxNZ2V3dvfkGRuVNl+mP4vM/7+/stre0JSak0yxTG7EDu3dLadok+09uJySmOxeVidUDikJGVQ/9j/XnNke4F2iEbZ1oxVyktPSsuPum039dfM/L5C0THxpeWV3o8Swyp4EwbUtJ88ZA0EYU6u7pxkqFP3kgGTh7+/JPP2LWyukrejh7rGxsMYhPkCUpm4JKok4G/9/8QvUmJj/ThRJ9ZrtOy2YvElRUBWUNBYTGpLO2zyb9yfuN2e5AcAcxN9edf8plTmJmd7e/3RXWem86XV1Zd5vo5NqGmtn5lZdWcO4egzvT0DCeekJRyms++q+T/efvundPlKi4pC/nYCEPk8xfwZdojY0hL2hmcaQNCepaWfSN+ZbWsvJKl79r6un9Z6yIPf/7JZ8Qzt3PMGvvg4NXU1HR+YXFg4NICufr2zg6QrgcS4wCn+Uzw3PN62Wt9fYME29wVJ/rx3LO0tLfnJfFGa6pNTk0HMvPP+0wPORBdon3koWVW/olJqZfo83O/0gg5Nj5B+yxVzHGp2d7RxSL/tPthzJucLLMqF5CZK+RjIwyRz5+DTLuxuYWM2lhaFBQTTHLr9e6bJLyqupaYQxbtu4G0u0cuTWAPxGeScKKcuVHOQjHT/5rWiV4ZPr7C/OkF5zOun8n/WTOTNbCQJtDl5RcyAWE1qvjvaTWaap/3mdi+vLJibj7TbZLhaH8+4ruJ5feKwsDrT7jHUsLn88Ymq4zg140/e387gZr0MynF98iCmZYPDw85ojtoGaL18zmQz6eCkCVlFS632794221oag6+7czAHRsbf/v2HXHs56AfEzZHR8fTM7KCxevq7kFpnyRbW3X1jYzpz/hcUlbuWFgkFhHBcIYIub//8oPvrvhsdm7+aT4nJqcy+1BIyl1TV89klJmV41+pvvevgdsDPf/8/TDCO6sDBOO/vtknK4cKrFqJikTsvb09+oOStI+KyG8ylMamFnakY0vLy8wCxE8ydjYxoRx5rTg7J6+vf2BhYZEjEqW5zmQ3yyurXD3CdVt7h3w+N/L5VIiQ/uXxGwYxdjF2cQkY2QRA/mv8JA/f2tpmIAKpoIkzS0vLpWUVweIxZBnE5sUk/kvwDChEso0JwY2zp/Fka2uLvXCSbrAYRjPfoT+FfZfLTVQ0O5o3aTFrmNvsbs8SUoHbv/JnPmISMed1lvvbTGRk7ObFqqbmlpi4RCJ/Z1fPS3/jnDhKM2UQnM1r8+PjE0XFpf0Dg5y+Se997wnx3fn7eXV1rbyiKvjC5uQWTM/MMstwUmP+Hds7Onf9SdCi04X8p90PQ/WPVyk7lyVAyEdIGCKfT4V1LFqakBv8Y6IWqmMO8Xl0dCz906La3LnFWMaib8TX1gcH0uLSMhJyFqdsbW1rJ0yZgXukcQqZC14Mj7x69TpwdPZaW1s3iW5g/Rz8Y8JXQVHJ3LzDvI0ksGhnxpmYmEQD08mz+Iwt3T29ZmogzBJso2LiWPPPzs0hYaBX5j0tbo+ntLySRsorqwjU7BLYSvY+MjqW4Y/wAUhzmGiY/sxC3TyadQrr57yCohN9Dj5Z8xJayEdIGCKfT4VBTIZJyDV3qgIwEHGYMbe+seHxLBEhA7swUgkvy8sr5gZVfWPTvMPBghM5UZ0Q19zaRuAl5WZ3gjB1qHmkcXNnC/3YixDn9XqJXazeWViaoMREQ7NHehW4kYZ1TDfsSKILdHJ4ZDQ3KC2ncXNcFquBlfDxQtohzJJ6EKjr6hvMWoN26BUzC1k3HePUpqZnmH3MVpJwajqdrp3dXf/WzZGRseBDB6AmSpNyc3H9J7jH1InMLKeP9IQLwRE5UPDJMmsE0g0RjHwOaxj3ZOBH3v55FhAs3f8nIkfeanZZ0CU6duRvMAKwKGA+OktKTB1qUj/kl9oO5LMQ9iCfhbAH+SyEPchnIexBPgthD/JZCHuQz0LYg3wWwh7ksxD2IJ+FsAf5LIQ9yGch7EE+C2EP8lkIe5DPQtiDfBbCHuSzEPYgn4WwB/kshD3IZyHsQT4LYQ/yWQh7kM9C2IN8FsIe5LMQ9iCfhbAH+SyEPXz0OSom9F0RQlyQyEdPrv3tP/wxNv7kLxYTQlwhHj+NuvaHf/rXjKzckHdFCHFB4hNTrv3Lf/ypurYh+v/ni0WFEL8PKFxYXHbtP//rq/GpuZy8wujY+JD3SQhxDpAXhXsHXvh83t47GB6dzM0viotP0r0xIa4QCIu2yIvCrqU1n8/egzfgcHpq65szs/NS0jJT0jKEEGFPJsKiLfKi8NLq5v/5TJReWd9edC3PzC9Ozy4IIcIcVEVYtEVe4/P/AtE8cANiRlIaAAAAAElFTkSuQmCC;" parent="1" vertex="1">
          <mxGeometry x="784.65" y="-1980" width="362.56" height="830" as="geometry" />
        </mxCell>
        <mxCell id="-aEaPC-sBht90m_471vq-25" value="" style="shape=image;verticalLabelPosition=bottom;labelBackgroundColor=default;verticalAlign=top;aspect=fixed;imageAspect=0;image=data:image/jpeg,/9j/4AAQSkZJRgABAQEA3ADcAAD/2wBDAAMCAgMCAgMDAwMEAwMEBQgFBQQEBQoHBwYIDAoMDAsKCwsNDhIQDQ4RDgsLEBYQERMUFRUVDA8XGBYUGBIUFRT/2wBDAQMEBAUEBQkFBQkUDQsNFBQUFBQUFBQUFBQUFBQUFBQUFBQUFBQUFBQUFBQUFBQUFBQUFBQUFBQUFBQUFBQUFBT/wAARCAPwAcQDASIAAhEBAxEB/8QAHwAAAQUBAQEBAQEAAAAAAAAAAAECAwQFBgcICQoL/8QAtRAAAgEDAwIEAwUFBAQAAAF9AQIDAAQRBRIhMUEGE1FhByJxFDKBkaEII0KxwRVS0fAkM2JyggkKFhcYGRolJicoKSo0NTY3ODk6Q0RFRkdISUpTVFVWV1hZWmNkZWZnaGlqc3R1dnd4eXqDhIWGh4iJipKTlJWWl5iZmqKjpKWmp6ipqrKztLW2t7i5usLDxMXGx8jJytLT1NXW19jZ2uHi4+Tl5ufo6erx8vP09fb3+Pn6/8QAHwEAAwEBAQEBAQEBAQAAAAAAAAECAwQFBgcICQoL/8QAtREAAgECBAQDBAcFBAQAAQJ3AAECAxEEBSExBhJBUQdhcRMiMoEIFEKRobHBCSMzUvAVYnLRChYkNOEl8RcYGRomJygpKjU2Nzg5OkNERUZHSElKU1RVVldYWVpjZGVmZ2hpanN0dXZ3eHl6goOEhYaHiImKkpOUlZaXmJmaoqOkpaanqKmqsrO0tba3uLm6wsPExcbHyMnK0tPU1dbX2Nna4uPk5ebn6Onq8vP09fb3+Pn6/9oADAMBAAIRAxEAPwD8+Pzo/Oj86Pzr6fU4NQ/Oj86Pzr1z9l/xRaaL8XPDWmXXhjQ/EA1rWtOsTNrdqbo2sbXCpIYoywj3Mr/edWI2jbik3ZFJHkf50fnXo+u+JrbwL8a/Ft//AMI9o+ui31W+jt7PV4GltomM7AOY1dQxUDhWyvPINeg/tSN4b8N/tcazJq3h6O98NwxabJPo2myCwV1bTbclUZEIjG4hvlU9McVHNqK2lz53/Oj86+rf2LfB2j+F/G3gjxd4m0+O/ufE2sro/h3S7lCysN4W71Bl28rGp8pM9ZHY/wDLI1wPwr+I/ibQZp/CPw10OFPHut62wbXEhhuLmS3xtS1RZIyI0D75GcMMjrwtT7S79CuXZniDHaM816ZP+zJ8Wbawe+m+HXiOKyjiM8lzJp8oiSMLuLltuNoXnOfepP2mr7w9qHxo8QSeGksBZL5MVxJpKBLOe8SFFupYFHAjacSMNoxzkV+yfibxBNpOi+HoIrxYopLDzLuxuNJlu7e9tkhDSxmRdqwvtxtZ2x8xGx+MZVKzhbQuMU9z8cv+GUvjLuAPwv8AFYz/AHtLlHXv92vMtT0260bUrmwvreW0vbWVoJ7eVSrxyI21lYdiGBH4V+5X7Muo3/ij4S+HvEk2sxXGmapYxy6fo9jIk9rp1qBiG3M7J5000aALK7tzIr/KMV+MXxy/5Lb8Q/8AsY9R/wDSqSnRquo+VkyjZXRxP50fnR+dH511ameofnR+dH50fnRqGofnR+dH50fnRqGofnR+dH50fnRqGofnR+dH50fnRqGofnR+dH50fnRqGofnR+dH50fnRqGofnR+dH50fnRqGofnR+dH50fnRqGofnR+dH50fnRqGofnR+dH50fnRqGofnR+dH50fnRqGofnR+dH50fnRqGofnR+dH50fnRqGofnR+de3fsZ+F7Pxt+0J4d0C80bT9YF+syINUXfBblYmkaZoiCsxVEfEbjaWZc8Cvuqx/ZZ+Bmk/Fi58DWuh2ui+L9MsbPUtFvtYvmuxq0sn2gzK1lIfLljjEC+YEHAl+XyyFNc86yhKzNIxb1Pyn/OrFjp13qk3k2VrcXkuM+Xbxs7cdTtAzj8MVs+PYLax+IXiGKLSU0i0i1S4VdMtrhpEt0ErYhSQjJCgbQ2B0Bx2r6/+FvjqXx54ba28EyeJNKgh/f/APCJ/Dm6h0K20mEOyJJqerXSfv55Qu7kkHHUfdWpVOVJ23EonxHcW01nM8NxDJbzocNFIpVlPoQR1+oqP86+wPjX4xe00weE/E9p4h8WazcAWcPhbxzEtzrdlLLG5hvbDVbaPFxCXCKYzw+AADncvyPqGn3ek31xZX1pPZXtvI0U1rcRsksTqSCrKQCrAg5UjsaqM+bcTViv+dH510S+C7+y0t7/AFK2ns0l02PVLHepC3Nu9ysAkHHKlhJz6oak+IiDT/H2sC2VYhHcnYqKAo4BwB6fhiq5lsFupzP50fnX1f8ACf8AaE8eSeCvHfjPxNqlreaHoun/ANn2VrJpVoi3OpXStHbpkQglY1EkzYP/ACzX+9Wh4b8U3Pwtu/gB4O0i0046B4wtLO+8SW91p8E51Y3d/JFIkzMhJVYlVVAI24J61m5tO1hqJ8gfnR+dfXXhW48O+HfEXiT4UaS5N2niPX9Il0B7ESnXlliFvp4a424j8iWNpC0hURgs67jnHh/xy8BN4P1DTZNL8N6lp/hZbVbax129tJoY9ckQbpbyNnGCsjuSgX/lkIuM8lxqJuzQuU81/Oj86+8/CP7FvjiTwPZx23gwPYahapO4fUbfL74wSxJmyMjFfF/xG8KzeB/HviHw/cW7Ws+mX01o8JdX2MjlSu4Eg4x2NEKik2kDi1qznPzo/Oj86PzrXUnUPzoo/OijUNRaKs/2fN6D/vqj+z5vQf8AfVPlkGpWrf8Ah/4q/wCEF8feGvEhtvti6NqdrqJt95TzfJmWQruwduQuM4PWsn+z5vQf99Uf2fN6D/vqlysNS54s1z/hJ/FWs6y0H2X+0b6a88gPv8vzJGfbuwM4z6DpXdfET45SeNvjfN8RYfD2nxyMLYDSdWiTUbVvJtY7cb0dFVwdhYAqMZHpXnP9nzeg/wC+qP7Pm9B/31S9n5FXPZ/hB+2H8R/hbqnhiJ9fv9T8LaJJGF0HzxFFJChB8nftYgHB5wetJ4Q/aMsLCHxpd+KdB1jXfFvihhBdeJNP1yOyuorPaFa1TdaShVbaFZlAZlCrwMg+M/2fN6D/AL6o/s+b0H/fVT7LrYfMy94uvPD15qQl8NaVqOj6YIlBt9S1FL6XeM5YOkEIwRj5dnY89h+zmrfH74V3XgzS5P8Ahbeh250+1E9xpuk+IbGOW+KwkC3Z2fcuTn7jxnJwWxX4q/2fN6D/AL6o/s+b0H/fVZ1MO52HGfLrY/ZT4P8AxM+HPw10HTNHh+MPgeDw6lspXQ7jXbW7l06RiXMEF75yGS3jLbU82MvhR8+MKPyR+Ml9bap8YPHV7Zzx3dnc69fzQXELhklja5kKurA8qQRyD3HauZ/s+b0H/fVH9nzeg/76opUHTbaCU+a2hWoqz/Z83oP++qP7Pm9B/wB9V0csjPUrUVZ/s+b0H/fVH9nzeg/76o5ZBqVqKs/2fN6D/vqj+z5vQf8AfVHLINStRVn+z5vQf99Uf2fN6D/vqjlkGpWoqz/Z83oP++qP7Pm9B/31RyyDUrUVZ/s+b0H/AH1R/Z83oP8AvqjlkGpWoqz/AGfN6D/vqj+z5vQf99Ucsg1K1FWf7Pm9B/31R/Z83oP++qOWQalairP9nzeg/wC+qP7Pm9B/31RyyDUrUVZ/s+b0H/fVH9nzeg/76o5ZBqVqKs/2fN6D/vqj+z5vQf8AfVHLINStRVn+z5vQf99Uf2fN6D/vqjlkGpWoqz/Z83oP++qP7Pm9B/31RyyDUrUVZ/s+b0H/AH1R/Z83oP8AvqjlkGp2nwK+JifBv4teHPGckF5cppEzzmCylWJ5cxsojLMpARi21sDO1mxg4NfcU3/BXCwk060H/CubyLUC6i7C6shiijJAZom8r5mxnG5QAfXv+dP9nzeg/wC+qP7Pm9B/31WUqCm05Fxk46Bql19u1S8uQ88ommeQSXLAytlicuQAN3POB1zVrw3r3/CO6xaXr2FpqtvDMssunagHa2udpyElVWUlevRh1qr/AGfN6D/vqj+z5vQf99Vpyt6WFfqe6eGvjp4T8F/DXwe2h6fr9v8AEfRddk1FrlbqIWaxOkaOqN5Zk2tFGIwp+5udtzcCuKvPitZeNPjZeeN/Huky+I9OvbqWe50z7SUZoyrLFH5gAyEGwbsc7BnrXAf2fN6D/vqj+z5vQf8AfVT7PsLmO98ZfFa38VeHvDmmx6dJbPpPhaDw+ztIGEjx38l0ZQMfdKuF57g1x3i7Wl8SeINQ1KONrdbqQyKjNkrkDgn147VT/s+b0H/fVH9nzeg/76oUGug73Ot8SfEr+1Phj4V8E6fp/wDZmn6XPc395L5286heSkKJmGwbQkSrGq5OPmOfmrv/AAT+0J4d03TfA9x4n8G3XiHxL4GG3Q7y31YWsE0aztPDHdR+SzOscrsRsdcghT614n/Z83oP++qP7Pm9B/31T9ndWsLm7HSWXxQ1mz1zxZrKiCTWPEsNxb3eoeWRNGLiQNOYsHCl1LxnIPySuBjOa7H4tfHPTfiL4ZvLSy0O60zUNZ1G01bV5p9RE8HnwWstui2sflqY0YTSNhmc/dUcLXlX9nzeg/76o/s+b0H/AH1S9nrsO5+oXgn/AIKhfCvR/CGh6be6R4mjvbSxgt5ljtYGXzEjVW2t53IyD2r85vjJ41tfiR8WPF/imygmtrLWNVuL6GGfG9UkkZlDYOM4I6GuW/s+b0H/AH1R/Z83oP8AvqphQUG2uo3JyVmVqKs/2fN6D/vqj+z5vQf99VryyI1K1FWf7Pm9B/31RRyyGatFFFdZkFFFFABRRRQAUUUUAFFFFABRRRQAUUUUAFFFFABRRRQAUUUdOfxoAKKKKACiiigAooooAKKKKACiiigAooooAKKKKACiiigAooooAKKKKACiiigAooooAKKKKACiiigAooooAKKKKACiiigAooooAKKKKACiiigAoor6B/ZH/Z+074xeIL/Vtdu430LQysk+mQOTc3bYLBQoO4IccsBzyB3IzqTVNXZUU5Ox5RN8KvFlv8PYvG8uizp4Ykn+zrfEDG7OA23O7YWyu4jGRjrXK17R+0h+0FqPxb1pdHs7WTQPB+kN5FhooUR42DaHkUD74HG3GE5A7k+L1NNyauwkknZBRRRWxIUUUUAbvgTwbffELxlpHhrTZIIr/VLhbeGS5ZliViDyxCkgfQHvX0X/AMO5fiQf+Y74UHv9ruf/AJHryb9l/P8Aw0J4Ex1/tJMfka+pv2kP2c9N+IfxZ1TW7j4p6D4YlnigX+zL6ZFlj2xKoJBlHDY3dO9cFWrKNRRTNIxurs+H/Fnhu68G+KNX0G9eKS80y7ls5ngJMbPG5RipIB2kg9QK0Phn4M/4WJ8QNA8MfbPsB1W8jtftPl+b5e44Lbdwzge9e+fsefBHwz4svfF3jDxps1HQPDO4CKQFopnUM7yuM/MqooO3uW9q9G+Fvx4+FHxT+LmgaOnw3tPDF1Feq+i6xaCKN/NQkojrGi4DbduMsMkfWiddpNR6BGPVnyz8evhOPgn8SrvwmNSOriCGKb7UYRCW3qGxt3N0zjr1rz7cOueK++PE2seHbb9uy+0XxToul6xp2uada2UQ1K0im+z3HlK0bAOpwWIMfH/PQZ6V5TH+zaW/bOfwd9iz4eW7/tkoUHlfYSBIEA/uFiIadPEe7eQ3DXQ8E+Gfw91L4reONM8K6PPa2+o6gZBDJesyxDZG0jbiqsfuoei9xTfiR4B1H4X+NdS8L6tNa3GoaeyrNJZszRHciuNpZVPRh1Xsa+0fA3xG8JW/7aFx4Z0HwbokVoqNpdrfWVpDA1tPDFM88qhY+WY5iOCPlWuQ/ak+IXh/XvjhY+CV8Fabbana+IdPku9f2Rma8jKKDE48vJUiQfeYj5B61Pt5udraWDlVrnxuGB6H/P8Akj86X0/P8q+lf2+PCuieEfizoVjoekWGjWb6LHLJDp9rHAhc3E43FUAGcKvUdhXQfGLwb4f079if4fa1aaHpttrNzNarNqUNpGlzIDHMWDSBdxyQM5PatFiE4p23FydDzT42+A/hb4W8B+Eb/wAEeK5dc1y8Vft9rJKj7FMYYsVVR5RD8bWJzk+nPitfWH7XHg7QPDfwX+EV5pOh6bpl5fWavdXFnaRwyTt9mhOXZVBY5JPJ7mvHv2Z/B+gePPjd4Y0TxOy/2PcyyGSJ3KCd1id0iJznDOqjAOTnHU06VT925BJa2R5hmiv0N+IF14W8I+INX8O+MfgNDZ+AoY2W18R6PYJO2ABtkJiQGLIz/HuGBmvLf2fvCfg34mfCb4veFdP0iyv9Q09p7vQtWurOM3xgZG8k79u4FWiXOD/y0NQsTdXsVybK58iUdeR0/wA/4Gvvf9jv4Q+Dbr4L2Fz4r0XS77U/FF9dR2T31pHLMESNhtjZlJXAikbj1rzv4BfD3SPh58NfjT4r8X6LpeqS6FLJpFnFqlok4jvIt64AZT9+WWBeB60fWo3a7C9mz5LBDDIOR1zRmvs7wH4D8C/s6/s/aV8SvGvhyHxf4j15o3srK4VWhRZUaSJAGBUExqXLFSecDtWvpegfDr9sf4Y+Jb3QfCFt4L8Y6Ku5PsaIiFmV2jDMiruRtjKdy5Wn9Z620FydLngmh+Bfhbcfs66j4h1DxdNbeP43fydHWZAvEgCJ5ZXcyspDbg3GT0xz4qPyPpX1r4O8H6DdfsG+Jtem0PTZNchumWPUZLOM3KgXMK4Em3cBgkcHoTXe/C34J6b8KPgfoHiuL4cj4m+MdcSO4NvMqNFbRyJvX74KqqrtBYAsWY9umSxCjf1L5HI+DuPWivvT4ofBHS/iv8C9f8V3Hw4/4Vh4z0SOa4FvCsaJcJEgkbIjAVldSygkbgyjt1+HvDGgz+KvE2k6LbELcajdRWkbN0DO4UE+wJFdVOspxb7EShytK5mH5evFe0237OYn/Znuvi0ddYPDJ5f9k/YuObtbfPm7/wDaDfcr6I+KniL4S/sm2+keDbf4dWPi/Vbi0We7nv44i7RklQzyOjHcxVvlUADAxWv8TNS8Kaz+wXr2o+C7BtK0C8MM8dgxJ+zyHUovNjHJ4EgbGD0xiuWeIcrNLqUoLqz89lbdjn/OM0vr7da+5INB+G/7JPwV8Na14k8KWnjDxj4giWTyr2ONjuaNZGVS4YRxxh0XKgliR/e46f4RL8JfjR8PPHXifSfh/pek6zDbSRXthcWsUyW8ixSMksPy4UMCfuheU/E6vE9UtCeTzPz0/wAcUV9ofsq+FfAtx+zH408Q+MPDVhrEWn31zJJO9rG115aW8LCOOXG5cknow6muj+C/ij4V/tTR6z4Iufhjp3hi5trNri1nsFi8wRBlQusgjVlkVnQ85ByaTxNm7Ir2Z8GZHrRX1r+yh+zVperax441zxdpreIbbwneTabBpkS/JeXUQO8bcjdgbNqscEyH8faPC/hDT/jBdXfhvxn8AIfBOlSQubXVrdIVaNh0BZEVlYjGMEjjmiWKUZWQlBs/OKiul+JXguX4c/EDxB4all886ZeSW6zYwZEB+Rz7lSDx61zVdid1dGQUUUVQBRRRQAUUUUAFFFFABRRRQAUUUUAFFFFABRRRQAUUUUAFdJ8O/iFrvwt8WWniHw9eNZ39ucEclJUJ+aN1z8ynA4PoK5uipaUk00Gq1Po/9ojxD8NfjB4IsPiNo9zH4f8AHNxOLXUvD4BZp3Ay0ox2A/5aH72efmr5wpMZ6nj07UtRTh7NcpTdwooorUkKKKKAPR/2cNStNH+O3gq9vrqCys4dQV5bi5kWOJFAPLMTgD1ya+n/AI9fAvwT8ZviVqPiuL4zeFtKS6jhQWrXEEpXZGqElvPHXb6d6+GCuaUAA5wPyrmnRcpqaZopWVj6z/Zb+JHhT4V+KfHvwy8V6tbXHhrVp5LSHWAwW2mK74WJbJCpIhBDZwMDnmus8A/Af4U/BL4naP4o1D4q6bq0K3ijSbESwqwkbKo8sgkIKoG3biFGQOex+IP8c880hXcCDzn86zlh7t67j59LHvf7Y3iy01P9o671zw9qtvepDBZyW99p9wsqiREUhldCRkMo6GvsLxF8XNH0/wCA6fGtLOODxJeaCtjA5UhvOdyBEuRygm3N9FJr8ztEsbO+1iyt769XTLCWZUnvGR3EEZYBnKqCzbRk4AzxX0T+1v8AHTwv480jwh4N8A3L3HhHQ4FbeYZIg0qqY412yKrfIgPzY58w+lYzo6wgugRla7Z5x+zn47sPAnx08MeJdeuHjsYbmQXNywLFfNikj8xuOgLhjgdjXr/7Wnh/w3pvjhfit4d8daT4hu7zVLVxo1nLFI8flw7i5ZZGJUmFf4f4+tfKdFdbopyUkSpaWZ95/GLQPhR+1bb6B4yj+Jun+Ery3tBb3NrfPF5ojDF/LaNnVg6sz/MCQc1h/tP+KPAkn7KvhLw/4P8AEdjqtvYXlrFBCt0jXTRxxSqZHjzuUsRu5UfeFfFC/Ln3rqfhfZ+E7/x5pcPje7m0/wALsz/bbi3VzIqiNiuAiMeXC9F6E1h9X5Nb7F89z6f/AG0f+SE/BX/rxUf+SsFfNnwdXwbL4+0+Dx411B4dm3Ry3VnKyPbuRlJCQCdoYAHA6E163+1z8c/CfxKsfCHhnwULifQ/D0LIt5cRtGHyiIiqGG7CqnJYDr+fzcRnuR9Dirowfs+Vkya5ro/ST4fSW3wx8RXes3Px6sNc+HAjd4dK1O7jubgKV+VBKXLZUn+EZbAGBmvnP9nv4uaD4a/aw1XVLRodI8H+ILm8tl87EMUMMjmSJiDwg3InXoGNfM5ye+O/HFLiiOGSTUnuDmfanxt+Lnh34d/E74NaN4R1azvPD3hZhcXFxY3CTxbZZBE6llJG4RrJxn/lpVz9tXx94V0v4Zjw14R1jT9Qm8R61Jqepf2ddxzgbVVm37CcbpDE3P8Acb0r4fb5sE9emaKmOFimmHO+x9p+BfGngj9pb9nnRPhv4q8SW/g/xL4fWFbSe5ZVjkEKNHE6liFcGJtrLuDZGRxWpo+reAf2Mfhf4lttL8YWfjPxtragRrYshUMqMsZZVZtiIXZjubLZwPb4YpY8CRN33c89vzOPTNN4ZX307Apn2V4H+X/gnX4szn/j7brx/wAvUFb3gH4naP8AHf4CaH4QT4jXHwz8a6CkcS3CXjWq3KRoY1wRInmKy7cqGyrKDXG/FT40/Crwl+zzd/DL4a3moa2uoSrLLc3MMqCLMqyOWaRVJY7AoCrjH6/JH6flmsYUfaJrbU0lK2x9h/GbUPD3ww+E82j3Hxc8RfEDx3fK0BWz8QztaIrnDNLGJWXYq5+VmJYn06fJ/hfX5/CnifSNbtlDz6bdxXcanoWRwwB46Ej9azSc0ldlOkoRcWZOV9T70+K3g34Yftb2ujeNNO+Imn+FNUhtVt7yDUGjLqgJba8bSIVZSzfMCQRj60z4ma18OPD/AOxZrvg3wf4rsNXNo0MCK11GLm7lXUImlkWPO4qWDsMD7oB6c18HY/L0o3fJt6D9emK51hrW10Q+c+6rXVPh/wDtdfA3wxoet+KbPwn418OwrAZrxkViVRY3YBmXfHKFRvlbKlR2GT0nwftvhX8E/h5478L6d8QNK1nXJbVpb69kuYoY5XaGRY4oRvw20A5Csxy/PXA/PGggHHHSm8LfroPn621PrX4H+LND039i/wCJmk3es6fa6rcT3RhsZrqNJ5QYIACqE7iMg9PQ1zv7A/ibSPCnxk1S81rVbLR7NtDmjW4v7hIELme3IUMxAyQDxnsa+a1XAxk4pR8pyOtaewXK1fcXN1Ps/wCA/wAfPDvh34hfFfwdr+uHStA8SazfXGn65a3BRIZHkeNnWZfubkEbLIDgGP3ro7Pwronw1tNT1vxx+0XrfiPS0jJsrLSdfmSeTJyCAk7l2I4woA5yTXwaeSTS5/H681m8Mr3TH7R9TU8Va43iTxLqmqM91ILq4eVTe3DXE20sSoeRjudguBuJ5xWVRRXZFWVjIKKKKoAooooAKKKKACiiigAooooAKKKKACiiigAooooAKK3T4D8TKxB8O6sCO32GX/Ck/wCEE8Tf9C9qv/gDL/8AE1HPDuVZ9jDorc/4QTxN/wBC9qv/AIAy/wDxNH/CCeJv+he1X/wBl/8AiaOePcLPsYdFbn/CCeJv+he1X/wBl/8AiaP+EF8S/wDQu6t/4Ay//E0c8e4WfYw6K3P+EF8Tf9C9qv8A4Ay//E0f8IL4m/6F7Vf/AABl/wDiaOeHcLPsYdFbn/CC+Jf+hd1b/wAAZf8A4mj/AIQTxN/0L2q/+AMv/wATRzx7hZ9jDorc/wCEE8Tf9C9qv/gDL/8AE0f8IJ4m/wChe1X/AMAZf/iaOePcLPsYdFbn/CCeJv8AoXtV/wDAGX/4mj/hBfEv/Qu6t/4Ay/8AxNHPHuFn2MOitz/hBfE3/Qvar/4Ay/8AxNH/AAgvib/oXtV/8AZf/iaOeHcLPsYdFbn/AAgvib/oXtV/8AZf/iaP+EE8Tf8AQvar/wCAMv8A8TRzx7hZ9jDorc/4QTxN/wBC9qv/AIAy/wDxNH/CCeJv+he1X/wBl/8AiaOePcLPsYdFbn/CCeJv+he1X/wBl/8AiaP+EE8S/wDQvat/4Ay/4Uc8e4WfYw6K3P8AhBfEv/Qu6t/4Ay//ABNH/CC+Jv8AoXtV/wDAGX/4mjnj3Cz7GHRW5/wgvib/AKF7Vf8AwBl/+Jo/4QTxN/0L2q/+AMv/AMTRzx7hZ9jDorc/4QTxN/0L2q/+AMv/AMTR/wAIJ4m/6F7Vf/AGX/4mjnj3Cz7GHRW5/wAIJ4m/6F7Vf/AGX/4mj/hBPE3/AEL2q/8AgDL/APE0c8e4WfYw6K3P+EF8S/8AQu6t/wCAMv8A8TR/wgvib/oXtV/8AZf/AImjnh3Cz7GHRW5/wgvib/oXtV/8AZf/AImj/hBfE3/Qvar/AOAMv/xNHPDuFn2MOitz/hBPE3/Qvar/AOAMv/xNH/CCeJv+he1X/wAAZf8A4mjnj3Cz7GHRW5/wgnib/oXtV/8AAGX/AOJo/wCEE8Tf9C9qv/gDL/8AE0c8e4WfYw6K3P8AhBfE3/Qvar/4Ay//ABNH/CC+Jv8AoXtV/wDAGX/4mjnh3Cz7GHRW5/wgvib/AKF7Vf8AwBl/+Jo/4QXxN/0L2q/+AMv/AMTRzw7hZ9jDorc/4QTxN/0L2q/+AMv/AMTR/wAIJ4m/6F7Vf/AGX/4mjnj3Cz7GHRW5/wAIJ4m/6F7Vf/AGX/4mj/hBPE3/AEL2q/8AgDL/APE0c8e4WfYw6K3P+EE8S/8AQvat/wCAMv8AhR/wgvib/oXtV/8AAGX/AOJo549ws+xh0Vuf8IL4m/6F7Vf/AABl/wDiaP8AhBfE3/Qvar/4Ay//ABNHPDuFn2MOitz/AIQTxL/0L2rf+AMv+FH/AAgnib/oXtV/8AZf/iaOePcLPsYdFbn/AAgnib/oXtV/8AZf/iaP+EE8Tf8AQvar/wCAMv8A8TRzx7hZ9jDorc/4QTxN/wBC9qv/AIAy/wDxNH/CC+Jv+he1X/wBl/8AiaOeHcLPsYdFb6+APFDDK+G9WI/68Zf/AImilzx7hZ9j9cm8L2TEkwoT1+6aP+EWsf8Angn/AHzWx+VH5V8tzs7vkY//AAi1j/zwT/vmj/hFrH/ngn/fNbH5UflRzsPkY/8Awi1j/wA8E/75o/4RWx/54p/3ya2Pyo/KjnYfIx/+EWsf+eSf98mj/hFrH/nkn/fJrY/Kj8qOdh8jH/4RWx/54p/3zR/wi1j/AM8E/wC+a2Pyo/KjnYfIx/8AhFrH/ngn/fNH/CLWP/PBP++a2Pyo/KjnYfIx/wDhFrH/AJ4J/wB80f8ACK2Gf9Qn/fJrY/Kj8qOdh8jH/wCEVsevkp/3yaP+EVsevkp/3ya2Pyo/KjnYfIx/+EVsevkp/wB8mj/hFrH/AJ4J/wB81sflR+VHOw+Rj/8ACLWP/PBP++aP+EWsf+eCf981sflR+VHOw+Rj/wDCLWP/ADwT/vmk/wCEVsf+eKf981s/lR+VHOw+Rj/8IrY/88U/75NH/CLWP/PJP++TWx+VH5Uc7D5GP/wi1j/zyT/vk0f8ItY/88E/75rY/Kj8qOdh8jH/AOEWsf8Angn/AHzR/wAItY/88E/75rY/Kj8qOdh8jH/4Rax/54J/3zR/wi1j/wA8E/75rY/Kj8qOdh8jH/4RWw/54p/3yaP+EVsf+eKf981sflR+VHOw+Rj/APCK2P8AzxT/AL5o/wCEVsf+eKf981sflR+VHOw+Rj/8ItY/88E/75o/4Rax/wCeCf8AfNbH5UflRzsPkY//AAi1j/zwT/vmj/hFrH/ngn/fNbH5UflRzsPkY/8Awi1j/wA8k/75NH/CLWP/ADyT/vk1sflR+VHOw+Rj/wDCLWP/ADyT/vk0f8ItY/8APJP++TWx+VH5Uc7D5GP/AMItY/8APBP++aP+EWsf+eCf981sflR+VHOw+Rj/APCLWP8AzwT/AL5o/wCEWsf+eCf981sflR+VHOw+Rj/8ItY/88E/75o/4RWx6eSn/fJrY/Kj8qOdh8jH/wCEVsenkp/3yaP+EVsenkp/3ya2Pyo/KjnYfIx/+EWsf+eCf980f8ItY/8APBP++a2Pyo/KjnYfIx/+EWsf+eCf980f8ItY/wDPBP8Avmtj8qPyo52HyMf/AIRax/54J/3zR/wi1j/zyT/vk1sflR+VHOw+RlL4bs1GBAmPof8AGitX8qKOdhp2D8qPyo/Kj8qgA/Kj8qPyo/KgA/Kj8qPyo/KgA/Kj8qPyo/KgA/Kj8qPyo/KgA/Kj8qPyo/KgA/Kj8qPyo/KgA/Kj8qPyo/KgA/Kj8qPyo/KgA/Kj8qPyo/KgA/Kj8qPyo/KgA/Kj8qPyo/KgA/Kj8qPyo/KgA/Kj8qPyo/KgA/Kj8qPyo/KgA/Kj8qPyo/KgA/Kj8qPyo/KgA/Kj8qPyo/KgA/Kj8qPyo/KgA/Kj8qPyo/KgA/Kj8qPyo/KgA/Kj8qPyo/KgA/Kj8qPyo/KgA/Kj8qPyo/KgA/Kj8qPyo/KgA/Kj8qPyo/KgA/Kj8qPyo/KgA/Kj8qPyo/KgA/Kij8qKAD8qPyo/Kj8qAD8qPyo/Kj8qAD8qPyo/Kj8qAD8qPyo/Kj8qAD8qPyo/Kj8qAD8qPyo/Kj8qAD8qPyrB8fa9ceFfAniPWrRIZLvTdNubyFJgSheOJnUNgg4JUdDXyh8O/wBoT9pL4ieA7bxno3gfwdrOiTmQJDbvLDdP5cjIwVXuMZJQ9j1HBoA+zfyo/KvLf2ffj3pXx98HyatZWs2lapZTfZNT0m55ktJgORnaCQQDhiB91hgEEV4b8S/24dV8F/tE/wDCJ2um6bL4E0/UbXTNW1eSKRpo5ZQS5VxIEXbhvlKn/VPQB9iflR+VeQftT/F7Wfgh8H7/AMV6Da2V5qNvcW8Sw6gjvDtkkCtkIytkA9j2rM+EX7SEXxa/Z/1PxtZxwQa9pVjcHULEqSkN1FCXwRu3eW2ARznBPORmgD3L8qPyr491f9sLxlY/sj6F8VI9O0H/AISDUNWaxe1aCb7IsYkmQEL527cRGvJf1r1L4V638ftS8UaefHWi+CrLw1JG7XEukPcG5BMZ8vaHkK43Fc8etAHuH5UflXCfFq8+I1noVm3w2sdBv9XNzi4j8QtIsIh2NkqY2B3bwnXsTXzh8I/2g/2hPi94h1yy0zQvASW+gaktjqnmrco64dlbyz5x3HCNj3AoA+yvyo/KvBvhL8dvEPij9oX4k/DTxLbabavoIW60xrOKRJJbVmGHkLOwYlJbc/KAOW9RXFfB/wDbF1X4jftN698Pbyw0238PRyX1vpV1BHILiaS3bqzmQqwKLI3yqOi0AfV35UflXz/4T/aF1nxN+0Z8QfCbR6VbeBvB9j511qTI4nEwVCwZ9+0KD5v8H/LOuG0/9pL4z/Gy+1C/+EHgbRx4OtJmt4dW8SSlZLxlwSUUSKFBB6YbGB82cgAH1z+VH5V4L+z/APtKX3xF8U654D8ceHv+EQ+Imix+fcaerFoLiE7T5kRyegZDt3Nw6kMeQnQ/tR/FnV/gn8G9V8WaHbWVzqNpNbxpHqEbvFiSVUOVV1OQGP8AF1FAHrP5UflXzF8dP2jvHXgTw78In8LadoV5rfjYRxPHqcMphWaRICoUrKu0Fpu5OOK7v4aeJPi/Z3Wr3vxWsfCGj+HrOwkuVutEkm3I6EFjIZHOECBzx6UAexflR+VfIWl/tLfGn42XWo6l8IfAOkt4OtJmgi1LxJIVlu2XBO0CVADgj5QDtPBYH5R6f8Bfjx4i8eNr+jeP/B914J8T6EGa6LRP9hnjUgNJFIcr8vGRvbgggkZwAe3flR+VfJVr+0v8W/jVq+qyfBnwXpU/hPT7hrZdc8ROy/bJFGT5aiRcAgg7QGPIyVziu1+Av7SWseNvGmqfDz4heHI/CHxB02Pz/s8L7ra8iAUl4iWPYg4DNkEnPGAAfQH5UflXjX7WXxm1v4D/AAnfxToFrYXt8t9Da+TqMbvCVfdkkI6tkbR3HU+1cx8Wv2lte0nxL4R8BfDvTNN8QfEPWo4rq6ivlkNpp9uyBi8gRg3IO773CgnncuQD6M/Kj8q8K+PP7RV78G7Xw34d0zSI/GHxJ15VjstLtFaGAsCFaVhuLLGWzhd3ZvmGCa801j9of4//AAZt4PEXxO+H2iXfg0yIt5L4dlLXNmGbaCQZmB5IHIxkgbxkUAfYH5UflXyr+1J+2BqXwd034ba54PttL1/QPE8c93JJdpIWkgT7OyCMq42Myyt94HHHFdp8Zv2kD4a/Ztf4o+BxY6qky20loNQR2iKyTLGyOqOp3KWYHDcFT1oA92/Kj8q+b/ij8VPjRoXgOz8a+FdJ8H3HhyPw3FrGotqYuPPSbyjLKsarIuUC4xnnrzT/ANmf4pfGf4vW+h+JPEWleD7bwRqUUzrNpouEvQylkUbXlZQC6n14FAH0b+VH5V8o/te/tdeIvgb4t0bw94Q0rT9VvH0+TU9Ta/t5ZVhh3hIyvlyLtOVkzuB6rX0t4O8T2njXwno+v2BzZ6naRXkOeu10DAH3APagDY/Kj8qPyo/KgA/Kj8qPyo/KgA/Kj8qPyo/KgA/Kj8qPyo/KgA/Kj8qPyo/KgA/Kj8qPyo/KgA/Kij8qKAF/Gj8aPxo/GgA/Gj8aPxo/GgA/Gj8aPxo/GgA/Gj8aPxo/GgA/Gj8aPxo/GgA/Gj8aPxo/GgDj/jIf+LQ+OOf+YFff+k8leE/sW/EDw14K/ZP8OXGva/pukxW73rym8uki2g3UpAILZyQRwOTmvprWtJtPEGj3+l38Xn2F9BJbXEW5l3xupVlyDkZBPQjrXiNn+wz8ELGdJY/AsRdeiy6leyr75VpiCD7juaAPGv2WPF0OhyftEfGU28kPg6+1CW708SKYzc+U9xKQox1ImjHH8TY7V4Z4bmvvE37OXjiy1D4b+ONb8SeLtS/t1fEthobS2KsjbkIkz90EzZZQf9a3pX6R+JPhP4U8W+BZPBeo6LD/AMIs6JEdMtHe1iCo4dQDCykAMo+UEfrW9oPh/T/C/h+w0XS7aO00ywt0tbe2XJVI0Xaq5JycAdSee9AHw98XPiUfip/wTs0/WJJvP1GGSzsL1mOSZoZljYn3YBW5/viovjF4d1L9na3tviN4ctZJfCPjPw8ukeJ7GBeIbmS2KxXIGepZi3I+8X7yV9QW/wCy78M7bwPqvg+Lw1s8OaneLqF1YLqN0EecEYcHzdyEbV4UgcDiu41rwLoXiLwbP4V1LT473QJ7UWUlnKzEGIKABuB3AgAYYHcCAc5FAH5z+Il3f8E1/BwHy/8AFRSYwc/8trojHNfXXwJ+Dup+AfEiavf/ABh17xzDPYmFNI1S8aWKNiVYSKvmt8yqpHA6Ma666/Zq+HN58N7TwBN4d3+EbW5N3Dp3265GyUs7FhJ5vmYJduC2Ofyo+Af2UPhZ8L/FNr4j8MeF/wCzNZtVdYbn+0buXaHQow2vKy8qx6jvQB65npz3r5G/YR/5HD44/wDYyt/6Mnr64wdv+H9K5LwF8JfCvwyvNcuvDelf2ZPrl19s1BvtM03nTEsS2JHO3lm4UAc0AfKf7UHieT9nr9qLR/iRb4t7PXvDN/p1z5akfabmGFjEG+shs15/55153F4LHwH+Ef7PHxOmRopbXWWudWlVTl4L0bwzcdoI9v8AwKvub4pfBfwd8aNPs7Hxloq6zbWcrT26m5mgMbsu0kNE6tgjsTjp6Zq34w+FHhXx54HTwhrmkx3vh6NYVSyE0kQURY8sB0YMMbR0YUAfK37NvgnVPiN+zz8Z/FMMbf8ACQfEOfUjbDoWXZIsag56ebJKOvpXTfsP/GPwfYfA7S/Ceq63p+g6/oD3EF7p+pzx2si5nkfeA5GVw3JHQg5r6U8FeCtG+Hvhqw8PaBZLp2jWKeXb2od3CKWLEbmYsSST1PeuH8f/ALLvwv8AifrT6v4j8IWV7qTnMl1FJLbSSkHILmJ13H/ezQB8/wDhfxNY/Fz9u6+8b+FHfUPC/hPQWt77UrJC0V3IY5QApHDsWcgc/N5BI4Apn7Vn7RHgX4yfsm6zc+HdZiaefUba3SwumWK7LJMjk+Vu3Y2gtu9Aa+tvBPw98OfDnQU0Xw1o1po2mKS3kWsYXcx6sx6sxAHzNk8CuEl/ZM+Ec3i4eJn8Dac+r+d9o3l5PJ8zO7cYN/l5J55SgD5u/ay0WfUPD/7Mmkm+m0S5luLe2+3QkrLaMUs181T2ZD834V6za/AnxBo/wo+JuiR/E7WPiRqeu6LNb2VvrF0ZTDIIpQFXMjcSM6g/QV6v8UfgZ4K+NUOnReM9F/tmPTmdrUfa54PLLhQx/dOuchV6+lUPhf8As3/Dv4L6zdar4N8PDR7+6t/ss03224nLRllYpiWRhglR0HagD5u/Zz+IOh+Jv2XNL8CWHxJt/hZ4z0OaYXctwIo541FxJISFkZdysGAOD8pDAisn4S6j4/8Aif8AEP4keE9K+JN/8QPB9j4furL+2J4Vht5b2aIJGEwTnDF8MG52E+lfT3j39ln4WfEzXH1nxF4OsrzVJDuluoZJbZ5TnOXMTrvPTlgTwK7fwX4D8PfDvQ4tG8NaRa6NpsZyILVAoLEDLMerMcfeJyaAPmT9hf4teE/D3wfTwTrmqWXhrxPoN3dRXmn6nMtrKczM28ByM43bTjpt9MVj2GvWHxu/b80LXfBs0eqaB4R0aS31LU7b5oJHZLhFCuDh/mnUDHXY2OBX0D8Qv2Zvhl8VdV/tTxR4Qs9Q1I43XccktvK+Om9onUuQAPvE9K6vwF8N/DPwx0UaT4X0Wz0Sw3bjHaoAXbAG5mJ3M2McsSeKAPA/+Cjn/Jt8v/YWtP8A2evMv2ersfsz/HjUdB8fRx3E/jiGG40jxnPktPuAIt3Yn5csyqQp4ZV6qVI+xfiR8MfDXxb8NnQPFemjVdIMyTm38+WH50ztO6N1bjJ71R+IPwX8GfFTw7ZaH4p0GLVdNsXV7WNppY3hZV2jbIjh8Y9G570AfNvx+1CH4T/tp/Df4heI1aDwlcaa+mG/dSY7WbbOpDegAmU/Quexrtf2tvj14Cs/gL4l0638RaVrmoa5ZGysbCxuo7l5mkwFk2qT8q/e3Hj5R3r3HV/h74f8QeE08M6vpcOr6GsSQ/ZdQZrnIQYVizksXA/iJz71w3gv9k/4UfD/AF6LWdE8F2VvqULboZ55ZbnymzwyCV2CsPUDtQB8k+OfB+oeD7f9jbQNettl4mpSfarW5UNtEt5ZSGJ1I6qH2lSP4SK539prR9V/Zx8PeMfhgsU1z8P/ABTPFq3h2ckt9jmSeNp7csTnAAHU9kP8TV+gnjX4R+E/iH4g8M614g0ldQ1Pw3cm70uczyx/Z5S0bFiqOFfmKPhww+UUvxN+EvhP4w6FFo/i7R49Z0+KYXEcbyyRMkgBG5XjZWGQT0POaAPPPHX/ACZVq/8A2Irf+kNH7E7Bf2WfAzFlQC3uCWbgD/SZuT7V6pfeB9G1LwVN4SubLzfD81j/AGY9n5zjNuYxGU3g7vujG4NnvVbw78NfD3hPwAvgvSrE2fhxLeW1WzS4lJEchYuokLeZkl2+bdkZ4NAHwT4R+I0PxE+LHxn8Yaj4E8Z+NtJ8RwzeGtNuPC+mPdQQ2e0RksxOFkMaW7cd2c4w1e3/APBO3x1ean8KNU8FavHLaav4Qv2tntblGSaOKVmdVdW+YMJBKuD02gV9EfDv4aeGvhT4Yg8P+FdLTSdJhd5Et1lklO52yzF3YsTn1PQAdBVTw/8ACLwp4X8d634y0vSvsXiPWlCahdJdTFZ8FTkxF/LDZUHcqg8t6k0Adl+NH40fjR+NAB+NH40fjR+NAB+NH40fjR+NAB+NH40fjR+NAB+NH40fjR+NAB+NH40fjR+NAB+NFH40UAH40fjSZ96M+9AC/jR+NJn3oz70AL+NH40mfejPvQAv40fjSZ96M+9AC/jR+NJn3oz70AL+NH40mfejPvQAv40fjSZ96M+9AC/jR+NJn3oz70AL+NH40mfejPvQAv40fjSZ96N1AC/jR+NY2teMNJ8Pzx295dEXUi7ktYInmmYeojQFsZ74xVFfiNpDAHytW/8ABLef/GqAOn/Gj8a5n/hYmkf88tW/8Et5/wDGqP8AhYmkf88tW/8ABLef/GqAOm/Gj8a5n/hYmkf88tW/8Et5/wDGqP8AhYmkf88tW/8ABLef/GqAOm/Gj8a5n/hYmkf88tW/8Et5/wDGqP8AhYmkf88tW/8ABLef/GqAOm/Gj8a5n/hYmkf88tW/8Et5/wDGqP8AhYmkf88tW/8ABLef/GqAOm/Gj8a5n/hYmkf88tW/8Et5/wDGqP8AhYmkf88tW/8ABLef/GqAOm/Gj8a5n/hYmkf88tW/8Et5/wDGqP8AhYmkf88tW/8ABLef/GqAOm/Gj8a5n/hYmkf88tW/8Et5/wDGqP8AhYmkf88tW/8ABLef/GqAOm/Gj8a5n/hYmkf88tW/8Et5/wDGqP8AhYmkf88tW/8ABLef/GqAOm/Gj8a5n/hYmkf88tW/8Et5/wDGqP8AhYmkf88tW/8ABLef/GqAOm/Gj8a5n/hYmkf88tW/8Et5/wDGqP8AhYmkf88tW/8ABLef/GqAOm/Gj8a5n/hYmkf88tW/8Et5/wDGqP8AhYmkf88tW/8ABLef/GqAOm/Gj8a5n/hYmkf88tW/8Et5/wDGqP8AhYmkf88tW/8ABLef/GqAOm/Gj8a5n/hYmkf88tW/8Et5/wDGqP8AhYmkf88tW/8ABLef/GqAOm/Gj8a5n/hYmkf88tW/8Et5/wDGqP8AhYmkf88tW/8ABLef/GqAOm/Gj8a5n/hYmkf88tW/8Et5/wDGqbJ8RtIVf9Vq3/glvP8A41QB1H40fjWZofiTTfEUDyafdpcCNtsiYKvG3UB0I3KSPUVpZ96AF/Gj8aTPvRn3oAX8aKTPvRQAZ96M+9GfejPvQAZ96M+9GfejPvQAZ96M+9GfejPvQAZ96M+9GfejPvQAZ96M+9GfejPvQAZ96M+9GfejPvQAZ96M+9GfejPvQAZ96M+9GfejPvQAZ96M+9GfejPvQAZ96zvEmrDQfD+pamV8wWdtJcbOm7YpbH4kfrWjn3rm/iV/yT3xJz/zDrj/ANFtQBJ4M8PpomkpJKRPql2onvrth80shGTk/wB0ZIC9gBW+QDycE/So7P8A49IOf4F/kKlz70AJtX0H5UbV9B+VLn3oz70AJtX0H5UbV9B+VLn3oz70AJtX0H5UbV9B+VLn3oz70AJtX0H5UbV9B+VLn3oz70AJtX0H5UbV9B+VLn3oz70AJtX0H5UbV9B+VLn3oz70AJtX0H5UbV9B+VLn3oz70AJtX0H5UbV9B+VLn3oz70AJtX0H5UbV9B+VLn3oz70AJtX0H5UbV9B+VLn3oz70AJtX0H5UbV9B+VLn3oz70AJtX0H5UbV9B+VLn3oz70AJtX0H5UbV9B+VLn3oz70AJtX0H5UbV9B+VLn3oz70AJtX0H5UbQOmB+FLn3oz70Acf49tV0qOLxPbYiv9PdPNdODPblgskb46gAlhnoVHvXYA8da5f4nH/igdb5/5Yf1FdOv3RzQAufejPvRn3oz70AGfeijPvRQAZ96M+9L+P6Ufj+lACZ96M+9L+P6V45+1p8WNc+C/wX1DxP4dFqdVhureJPtsRki2vIFbKhhzg9c0AexZ96M+9eD2X7VXhzwb8Nfhnq/j+/Nlqvi7TYboNa2zGASFIzIxOfkQGQdT0B9Kn8M/trfBzxZ4ll0Sy8YwRXC7ttxeQyW9tJtBLFZZFCgYBPzEZ7UAe4596A2R159O/wBa8V8G/tlfCTx94yTwxovitZ9Umk8q2861mhiuWPRY3dACT2z17Zrz2S4t3/byjiHxK1iO6+xf8ih9kl+yFRZl9ol37NpAMvKZ3ce9AH1Zn3oz714v8Qv2xPhR8MfEUuha14m/4mtu/l3EFnay3H2duMq7IpXcM/dByP0rS8cftOeBfBPwntPiIL+bX/D13OltbnRo1lllkbd8u1mUKRsbIYgjBHUYoA9Wz70Z96xvBfi2w8eeE9H8RaU0h07VLWK8tzMm19kiBgGXPBAPr2/Gtr8f0oATPvRn3pfx/Sj8f0oATPvRn3pfx/Sj8f0oATPvRn3pfx/Sj8f0oATPvXOfEr/knviTn/mHXH/os10n4/pXNfEn/knviT/sHXH/AKLagDfsz/ocHP8AAv8AIVLn3qKz/wCPSDn+Be3sKm/H9KAEz70bvesLx3q15ofg3WNQsE33lvaySRLtz8wUkHHt1/CvkDwr8QfE9j4utL6DVr27u5rhFkjklZhOCwBRlzgg57D0oA+3M+9GfegZpfx/SgBM+9GfehuoGepx/n8K+d/2df2pm+MfxK+IPg3VLG30vUfDt7NHZiB2YXVvHM0TOdx+8rCPOD/y0HpQB9EZ96M+9fNOj/taSeMv2gfHfw30m3trXSvD2kXdwNd2maX7VAEVx5e4KyI7sMZydh5Ga0Ph/wDtNaB4S+AHg7xV8QfGcOsX+tGaOC7s9PdJr+RZXXbHbIm75cKpYKBkg8bqB2PobPvRn3r5w+KX7XmkSfs4+M/Hnwz1O01PVdCmtbeW21G2kR7aSS5ijZZYW2uMq74PTKnk4Ndb4D/ay+G3xA8YWfhTS9feXXLuEyWqzWc0MN3tBL+TI6hXAw2CDztOM4oCx7Fn3oz714n4n/bK+E3g/wAXaj4c1LxOU1HTm8q7aKzmkghlBwYmlVNoYHjrgEHmsHW/2rLW/wDEXwTvfDV3af8ACF+N7rUYru61OEwyKtuAqlSzLsPmbh8wOeKBH0Vn3oz70v4/pR+P6UAJn3oz70v4/pR+P6UAJn3oz70v4/pR+P6UAJn3oz70v4/pR+P6UAJn3oz70v4/pR+P6UAJn3oz70v4/pR+P6UAJn3oz70v4/pR+P6UAJn3oz70v4/pR+P6UAJn3oz70v4/pR+P6UAct8Tv+RB1vn/l3P8AMV06/dHNcz8Tv+RB1v8A69/6iunX7ooAM+9Gfel/H9KPx/SgBM+9FL+P6UUAFFFFABXzT/wUM/5Nn1f/AK/rT/0ctfS1c9468A+H/iX4fl0PxNpseraVIyyNbSsyqWUgqcqQcggd6APzx/aC0631jwD+yfYXaeba3WlxQTR5I3IwslYfiCa6X/goR8K/CnhvxB8KE0XQNP0QajNcWl0NNt0gEkSNbhVIQAEgSPyefmPtX2TrPwD8BeILbwvb3/hu2uYPDCLHo6NJIPsiqUwFO7kDy0+9n7oq/wCPvhD4Q+KFxpU/ijRIdYl0p2ksmmd18lmKliNrDqUTr/dFAHxV/wAFAPAfhz4c638KtR8LaJY+Hb1rq4Bm0u3SA/ungaMHaOSpZiCRnk10N8ZP+Hn37o4k+wELnpn+y2x+GQPyr6z+IXwf8IfFb+zR4s0ODWRprM9o0zyKYmYruI2sOoVevHAoPwe8It8RB48OiwnxcF8v+1N779vl+Vjbu2/cJXp3oA/M/wCA95NocXxBg1/XfAuh6sszrqcPjmxe5u5sFxIsRB5bfuyqjcSR14r3n9lu88A/CP8AZ68Waj4u8RWHijwBfa0scayaRcNG1z5ahkEMseXPyqflUgbGzjBrf/af/Z11LxN8etA8XWPw2t/G/hv7Dsv7GxvotPmnuwz4edz8zIF8vGD2IPv9M6p8IvBuveBbfwhfeGtOm8MQhfK0sQhYYypJUqB0YEn5ge59aANrwlrWleIfDOlanocsU+jXlrHNZvAu1PJZAUCrgYAXHGOMVsVT0fR7LQNLtNN062js7C0iWC3t4VCpHGoAVQPQAD8quUAFFFFABRRRQAUUUUAFc38Sv+Se+JOv/IOuP/RZrpK5v4lf8k98Sdf+Qdcf+izQBvWf/HnB/uL/ACFTVDZ/8ecH+4v8hU1AHCfED4w+HPAMn2O/kku79huNnbKGcKRkFskAA+5zXjOi/GHwFo/iI6nD4Gazl3bkuYpg7KSeqxnCqR/skV6X4w/Z50fxn4lvtautSvoZ7plZo4tm1cIqYGV9FFY//DKegf8AQY1P/wAh/wDxNAHpPgn4g6L4/sXuNIuTIYsCaGRdskRPQMvocHkZHBrpa8/+G/wb034Z6heXdjfXd09zEImW424ADZBGB1zXoFADW6qffP6f/Xr8+7f4U/EbwLpHiL4h+FfDF/8A8JxpHjvV3trCW1fdqOmXaJGWVMZkUOEdccABzX6Cnn/9VGAev8qAPiXwB+z9r/w3+KljDHpF5d24+Gd1a32rLEzRXGqTXDyypvxy5ZjgE8jbXP8AgT4V+Pfh34T/AGf/AByfB2qa1L4Qh1S11Xw1GgjvoluJZgsyRv1bDg44Pyp2OR990mB07fSgq7Pjj42Wfjf4vfs2fFWZPhNL4X1DVbnTxp1nDEsmrajHFeRM0lwka5BVQSFJJ+/2wT2fx+8BarqXxA/Z8uNH0O5ubTQ9bVryW0tyyWduEiALkD5EwmOf7vtX0pRtHp+lAXZ8PeFdE+IfwY8H/E74YD4Wal4uk1281C50/X7Z4/sVzHcR7Q1wxOQyqB8vLHJXjrXPfDr9nzWGt/2YZta8G6k82lvqkGt297ayNFZxrcSy25ljYbUJaQtuI5wvoK/QLH+cUf56UBcWiiigkKKKKACiiigAooooAKKKKACiiigAooooAKKKKACiiigDmPid/wAiDrfX/Uf1FdMv3RXM/E7/AJEHW+v+o/qK6ZfuigBaKKKACiiigAopPzo/OgBaKT86PzoAWik/Oj86AFopPzo/OgBaKT86PzoAWik/Oj86AFopPzo/OgBaKT86PzoAWik/Oj86AFrm/iV/yT3xJ1/5B1x/6LNdH+dc/wDEKF7nwH4iijVndtPuAqgZJPltgAeuaANuz/484P8AcX+Qqaqul3CXWm2k0Tb45IVZWGMEFQQfyqz+dAC0Un50fnQAtFJ+dH50ALRSfnR+dAC0Un50fnQAtFJ+dH50ALRSfnR+dAC0Un50fnQAtFJ+dH50ALRSfnR+dAC0Un50fnQAtFJ+dH50ALRSfnR+dAC0Un50fnQAtFJ+dH50ALRSfnR+dAHM/E7/AJEHW+v+o/qK6ZfuiuX+Jzf8ULqkf8cypCg/vM7qqge5JFdOv3R1oAdRSfnR+dAC0Un50UAH50fnR+dH50AH50fnR+dH50AH50fnR+dH50AH50fnR+dH50AH50fnR+dH50AH50fnR+dH50AH50fnR+dH50AH50fnR+dH50AH50fnR+dH50AH50jLvXBGQfUZFL+dH50Acba6Xrfg1jbaVbxaxou4mG1lm8me2BOdiMRtdAScbiMdMmrQ8Sa//wBCjc/+B1v/APF11H50fnQBy/8AwkniD/oUrr/wPtv/AIuj/hJPEH/QpXX/AIH23/xddR+dH50Acv8A8JJ4g/6FK6/8D7b/AOLo/wCEk8Qf9Cldf+B9t/8AF11H50fnQBy//CSeIP8AoUrr/wAD7b/4uj/hJPEH/QpXX/gfbf8AxddR+dH50Acv/wAJJ4g/6FK6/wDA+2/+Lo/4STxB/wBCldf+B9t/8XXUfnR+dAHL/wDCSeIP+hSuv/A+2/8Ai6P+Ek8Qf9Cldf8Agfbf/F11H50fnQBy/wDwkniD/oUrr/wPtv8A4uj/AISTxB/0KV1/4H23/wAXXUfnR+dAHL/8JJ4g/wChSuv/AAPtv/i6P+Ek8Qf9Cldf+B9t/wDF11H50fnQBy//AAkniD/oUrr/AMD7b/4uj/hJPEH/AEKV1/4H23/xddR+dH50Acv/AMJJ4g/6FK6/8D7b/wCLo/4STxB/0KV1/wCB9t/8XXUfnR+dAHL/APCSeIP+hSuv/A+2/wDi6P8AhJPEH/QpXX/gfbf/ABddR+dH50Acv/wkniD/AKFK6/8AA+2/+Lo/4STxB/0KV1/4H23/AMXXUfnR+dAHL/8ACSeIP+hSuv8AwPtv/i6P+Ek8Qf8AQpXX/gfbf/F11H50fnQBy/8AwkniD/oUrr/wPtv/AIuj/hJPEH/QpXX/AIH23/xddR+dH50Acv8A8JJ4g/6FK6/8D7b/AOLo/wCEk8Qf9Cldf+B9t/8AF11H50fnQBy//CSeIP8AoUrr/wAD7b/4ug+JNfI/5FK5z731v/8AF11H50fnQByVpomq+INUtr/XxBaQWb+ba6ZauZB5gBAkkcgbmGThQMDOeeK60DaABn0o/Oj86AD86Pzo/Oj86AD86KPzooAPzo/Oj86PzoAPzo/Oj86PzoAPzo/Oj86PzoAPzo/Oj86PzoAPzo/Oj86PzoAPzo/Oj86PzoAPzo/Oj86PzoAPzo/Oj86PzoAPzo/Oj86PzoAPzo/Oj86PzoAPzo/OqeravZ6FYyXt/cpaW0f3pJGwOTgDHck44A5rCXx40nzQeHdeuIzysi2gQH3xIyt+a0AdT+dH51y//Cbz/wDQra//AN+Iv/jlH/Cbz/8AQra//wB+Iv8A45QB1H50fnXL/wDCbz/9Ctr/AP34i/8AjlH/AAm8/wD0K2v/APfiL/45QB1H50fnXL/8JvP/ANCtr/8A34i/+OUf8JvP/wBCtr//AH4i/wDjlAHUfnR+dcv/AMJvP/0K2v8A/fiL/wCOUf8ACbz/APQra/8A9+Iv/jlAHUfnR+dcv/wm8/8A0K2v/wDfiL/45R/wm8//AEK2v/8AfiL/AOOUAdR+dH51y/8Awm8//Qra/wD9+Iv/AI5R/wAJvP8A9Ctr/wD34i/+OUAdR+dH51y//Cbz/wDQra//AN+Iv/jlH/Cbz/8AQra//wB+Iv8A45QB1H50fnXL/wDCbz/9Ctr/AP34i/8AjlH/AAm8/wD0K2v/APfiL/45QB1H50fnXL/8JvP/ANCtr/8A34i/+OUf8JvP/wBCtr//AH4i/wDjlAHUfnR+dcv/AMJvP/0K2v8A/fiL/wCOUf8ACbz/APQra/8A9+Iv/jlAHUfnR+dcv/wm8/8A0K2v/wDfiL/45R/wm8//AEK2v/8AfiL/AOOUAdR+dH51y/8Awm8//Qra/wD9+Iv/AI5R/wAJvP8A9Ctr/wD34i/+OUAdR+dH51y//Cbz/wDQra//AN+Iv/jlH/Cbz/8AQra//wB+Iv8A45QB1H50fnXL/wDCbz/9Ctr/AP34i/8AjlH/AAm8/wD0K2v/APfiL/45QB1H50fnXL/8JvP/ANCtr/8A34i/+OUf8JzKvLeGNfA9fs8Z/TzKAOo/Oj86x9D8Vaf4glngtpJI7u3wZrS5iaGaPPQlGAOD/eAxx1rY/OgA/Oj86Pzo/OgA/Oij86KAFooooAKKKKACiiigAooooAKKKKACiiigAooooAKKKKACiiigAooooA5D7KviD4hXJuR5lvo1vEYIW5XzpdxaQj1CKqj03N+HXDjiuX0H/kevFX+7af8Aotq6mgAooooAKKKKACiiigAooooAKKKKACiiigAooooAKKKKACiiigAooooAKKKKACiiigAooooAKKKKACiiigDkPiHbrZ2EWvwjZf6VIsqSDgtEWUSRk91ZCeD3C11y/dGBxXM/E7/kQdb6/wDHv/UV0y/dFAC0UUUAFFFFABRR+H60fh+tABR+HfHWj8P1rwr9tL4geIfhn8BtT1vwzqT6Vqkd3bRrcRojkK0oDDDKRyCe1AHumQeR0+tGQenPbrXxz+zj+1dqnxS+BPjWy1nUfL+IPhrR7q9S62KrXMIido5wuNu5XIVsDHKHHzVofswftMXFt+zXrvj/AOKHiCa+Sx1mW1FwYkEsg8qEpDGihVLFmbrjqcnHNAH1vRXx9D/wUy8AS6TqF0/h3xFbXEJU2sE0MeLoF1VgrhyAyht3zED5TznArs/Hn7amkeBtE8H6n/wh/iDV4PEmlJq0QsI1fyFckCNzu+8B1xQB9HUV8oaH/wAFCfDWveCfFPia28H68bPw8bX7WhaHdtnkaNXB39AwUHP98V1vxU/bL8MfC3wD4C8T3Gk6hqMfi6z+221ratHviURxuyuS3UGVV4PUGgD6Bz/nNQwX1tdSSxwzxyyQttkSNwxRiMgMM8Ej1ryDxV+1B4f8O+JPhpo9tZXery+O1hksZLcqqwxSmPy5ZAxztIkLcDpG1eLfs06p8OfB/wAZPjfq+nSeILKfSGuJdYu9Ymia2CJcSGR41jG44ZGI3c4IHJzkA+z6TOOvHfrXyrpf/BRPwFe6pZi88P8AibS/D95cG2t/EF1Zp9lZgQCSQ5OB3wCRnkcGsn4tfELXrP8Abw+Gmh2niPULfw1eaZHLNp0N9ItpMS10dzRhtrH5V5I/hFAH2Fz7+tJXh3wx/as0X4wfEzWfC3hbRNSv9P0ksLrxETGtkoB2qVO7cQzA7cDkKTXBeLf+CjXw68O+JLnTNP0zXPEdtayeXPqenQx/Z+DglC0gLLn+IgA9qAPq6ivAviF+11onh/4H2XxL8KaRc+M9Ou7pLVbeJzbGBju3CZtjeWVK7eV5Lp2Oa9j8E+I38YeD9E119OudKfUrKG7axuwVmg8xA2xxj7wz6dqANqij8P1o/D9aAOW0H/kevFX+7af+i2rqa5bQP+R58U/S0/8ARbV1P4frQAUm4DOeMdeaX8P1r5O/aY1TVJPHjWN28iaZDDG9nHkhDkZZ8Z5bdkZ/2R+IB9YZ/wA5pa8j/Zo1TVNS8ByDUHllhguWitZJiSTGApIB9AxP6/h65+H60AFJuHr3x1pfw/WvCvjt8erv4QfFT4YaNLJplp4b8QHUn1a+1BX3W0dtDG4dGDhR99s7gegoA90Py5zxjn/69LXhPwj+N2ueOtJ8UfEPX7ay8L/Cy3RpNFluopBfXFvGP3l3K27aI22ttRU3Hd3wN/J6p/wUI8BaR4YPiC78NeNbTSJ22adeXOiiKHUjnBa3kMmxgoBJ3MDjsSKB2PqKivGPiZ+1V4X+G/iy78NJo/iPxbrNhbLd6lb+GdNN3/ZsLAMr3B3AICpDcE8EZ6iq/ib9rPw7ofg/RvFeleGfFvjPw5qVpLenU/DWli4htEjOH+0M8ieUQQ2dwH3G9MkCx7fRXhR/bE8FL8OvDHi46f4g/wCKnmkg0bQY7AS6nesjlGKRI5XbkA7t38Q9at6P+1l4N1jwb4x8QfZNbsJ/CMPn6x4f1GxFtqtspBK5iZ9uWwf4+3OKB2Z7VRXmnwT+Pvh74+aVd6j4bs9Whs7ZYS02pWZgV2kUnYhyd5QgqxU4yDtJBzXpf4frQSFFH4frR+H60AFFH4frR+H60AFFH4frR+H60AFFH4frR+H60AFFH4frR+H60AFFH4frR+H60AFFH4frR+H60AFFH4frR+H60Acx8Tv+RB1vr/x7/wBRXTL90VzHxO/5EHW+P+Xf19xXTrnaOKAFoo/D9aPw/WgAoo/D9aKAE/Cj8KPwo/CgA/Cvmr/goZ/ybPq+eP8ATrP/ANHLX0r+FUtY0LTvEVibLVdPtdTs2YM1veQrLGSDkEqwxkH2oA/Oz4ufB7U9A+Anw5+MXgvdb6lF4VtdP16KFcia1ltVh81h3ARijexQ/wANcLpfhPVfFP7AN/LpVrJef2T42/tC7WJdzJALNYy+MdA0ifQZPav1NXRdPXShpYsbcaZ5XkfYvKXyfLxjZsxt24P3cY7VFo/hnSfDtnJaaVpdnplpIzSNb2cCRRliACxVRjJAHbsKAPze+O37TXgX4ofsw6B4P8O+HLpNY0yOzafdagQ6UsarGzq4J4dmCds+YM9s9X8Y/wBoq++Gn7LXwu8DaFKbDVPEXh22NzqhyPs1oUCMEI53sd3IHChuMkV91L8P/DAsbmy/4RzSfsd0we4t/sMXlysDkM67cEggdQegqPUPhz4U1SO2jvfDGj3kdrEILdLiwhcQxjoiAr8qjJ4FAHyl8D9H+FXjz9nTxp8Lvh5fy61q7aS0+o3lxZSQNcXTKfKky6j5VkRdq54AHuT82/Bnwzd/tKT2nhm4hmceC/A2pQW4kbMbXbyzC3OOxHnxdOvkCv1I0HwT4f8AC0ksmi6HpujyygLJJp9pHAzgE4DFVGQCT1pdF8GaD4amnn0fRNO0ie4GJprG1jheTnOGKgZ5z19TQB+fH7FN9c/F744eC9RvkfyvAfhV7JJDja372WOFTx2juBjn/llWr+z/AB2dx8Tv2oYr/R7vxDp8gvludM08j7RcRG6nDpHyPnK5xg9QO9feWh+DdA8LyTvo+h6fpTzgCZrG2SAyYzjdsAzjJ/M1JpXhXRdDvbu803R7DT7y7O64ubW2jjkmJJYl2A+Ykknn1NAH5Xx/FSx+Hfh/Sh8NPGOr6vE+p4Pw68WaMl4sOS2GV8GP5icYjCv+89c16V+1t4T1n4kftXeBNA0uYeHNa1XwtHDH8xVYZGW7zCSvRScxkgdCa/QKHwboMOrHVI9E0+PUycm9W1jEx9y+3d+tSXHhXRrzWoNYn0ixn1e3XbDfyW8bTxrzwshXcByeh7mgD4y/Y48Sabe/CXxr8FksU8I/Ei1hv4pvNO2S7ldXjEpbrviJVCAfuqrDqQPLP2ffj94U/Z8+Evj34f8Ajnw3fQeKJrq43Wb2of7TuhWIQyE42hWVuvy4Yke/6Nr4L0Bdd/tsaFpo1nOTqP2SP7RnbtJ8zbuyV469KXUfB+haxfRXt/o2n395F/q7i5tY5JEx0wxXIx7GgD4j/ZX8cD9lP9l+88X+NdP1P+z9e10HTrG1hBldWhVRKQ7LhW8tjyeQikdRX2/4T8S2fjTwvpGv6eJfsGqWsV7B56lX8uRA6hh2OCKs6lothrVmbTUbG31C0Ygtb3USyoSDkEqRjIPTirUcawxpGiBEUbQq8AADAAHoBQA78KPwo/Cj8KAOX0H/AJHnxTx/Daf+i2rqPwrl9B/5HnxTx/Daf+i2rqPwoAy/E3iTT/COiz6pqkwt7ODG5sEkknAVR3JJFeAeLP2jtF15hE3g231a2jbMbamyMevULsbGRjo1e6+NfBOnePdGGman5wtvNWX9w4VtwBA5x05PauDH7MXg4KBnUvT/AI+V/wDiaAMvwT+0n4fvJbfTr7Sz4fQny4miIe3TJwAcKCvOOgxXty/MoOK8l/4Zj8HYOG1L/wACF/8AiK9YjjWONEA4UYHPoMUAO/Cvmf8Aal+Ad78cPip8J47jRH1TwlYtqketSrMkf2eOaKJY2GWDFtyEjaDgqK+mPwo/CgD5X0X4TfEjVvhD47+CfiiJrnTobA23hvxl5sey5gGDDDOgbzFdDtUnbjAbrjLeXfF7wH8e/ih+zrpHw3m+Fllp7aA1pG19FrFvKb4QIYlaCLjyyQckls4BHfFffP4UfhQM+XNQ8K/FL4LfGz4jeKfBngmD4g6X43S0mXOqRWUlhcQxsgWQSfeQl2b5TkDAyCDWT8fPDPxp8cfD7wP4YufCUOq2N7I134vtfC15FaBkWQMlnG00ucMPvNk5K/n9c/hR+FAj5S8Y+BfiBdeIPhh8UfC3w6jsNX8K291pc3gW61K3Qi1dTEjwzqTGrBSe/QqMcEVz2qfA74lfEaH40+Pde8OQ+H/Efijw6ND0nwtbX8dw5RVXLyy8JvJjXHI4LdPlz9nfhR+FAzi/gnoF74V+DvgTRNTtjaanpug2FndQkqdk0duiumQcHDBhwe1dp+FH4UfhQIPwo/Cj8KPwoAPwo/Cj8KPwoAPwo/Cj8KPwoAPwo/Cj8KPwoAPwo/Cj8KPwoAPwo/Cj8KPwoAPwo/Cj8KPwoAPwo/Cj8KPwoA5f4nf8iDrfH/Luf5iunX7o4rmPid/yIOt8f8u5/mK6dfujigBfwo/Cj8KPwoAPwoo/CigA/Cj8KPwo/CgA/Cj8KPwo/CgA/Cj8KPwo/CgA/Cj8KPwo/CgA/Cj8KPwo/CgA/Cj8KPwo/CgA/Cj8KPwo/CgA/Cj8KPwo/CgA/Cj8KPwo/CgA/Cj8KPwo/CgDl9B/5HnxTx/Daf8Aotq6j8K5XSGFv8QfEcLDEk9vazxj+8oDqcfQj9RXVLyAcUAH4UfhR+FH4UAH4UfhR+FH4UAH4UfhR+FH4UAH4UfhR+FH4UAH4UfhR+FH4UAH4UfhR+FH4UAH4UfhR+FH4UAH4UfhR+FH4UAH4UfhR+FH4UAH4UfhR+FH4UAH4UfhR+FH4UAH4UfhR+FH4UAH4UfhR+FH4UAH4UfhR+FH4UAH4UfhR+FH4UAcv8Tv+RB1vj/l3P8AMV06/dHFcx8TWU+CtQg/5aXPl20a92d5FVQPfJ/Q11C/dHFAB+FH4UfhR+FAB+FFH4UUAL+FH4UfhR+FAB+FH4UfhR+FAB+FH4UfhR+FAB+FH4UfhR+FAB+FH4UfhR+FAB+FH4UfhR+FAB+FH4UfhR+FAB+FH4UfhR+FAB+FH4UfhR+FAB+FH4UfhR+FAGF4k8M/2xJbXlrctp+q2hPkXSqHG043Ruv8SNgZGewIIxVJbzxpDhH0vRLkjrKt/LEG99vktj/vo11X4UfhQBy/9oeMP+gHo/8A4NZf/kej+0PGH/QD0f8A8Gsv/wAj11H4UfhQBy/9oeMP+gHo/wD4NZf/AJHo/tDxh/0A9H/8Gsv/AMj11H4UfhQBy/8AaHjD/oB6P/4NZf8A5Ho/tDxh/wBAPR//AAay/wDyPXUfhR+FAHL/ANoeMP8AoB6P/wCDWX/5Ho/tDxh/0A9H/wDBrL/8j11H4UfhQBy/9oeMP+gHo/8A4NZf/kej+0PGH/QD0f8A8Gsv/wAj11H4UfhQBy/9oeMP+gHo/wD4NZf/AJHo/tDxh/0A9H/8Gsv/AMj11H4UfhQBy/8AaHjD/oB6P/4NZf8A5Ho/tDxh/wBAPR//AAay/wDyPXUfhR+FAHL/ANoeMP8AoB6P/wCDWX/5Ho/tDxh/0A9H/wDBrL/8j11H4UfhQBy/9oeMP+gHo/8A4NZf/kej+0PGH/QD0f8A8Gsv/wAj11H4UfhQBy/9oeMP+gHo/wD4NZf/AJHo/tDxh/0A9H/8Gsv/AMj11H4UfhQBy/8AaHjD/oB6P/4NZf8A5Ho/tDxh/wBAPR//AAay/wDyPXUfhR+FAHL/ANoeMP8AoB6P/wCDWX/5Ho/tDxh/0A9H/wDBrL/8j11H4UfhQBy/9oeMP+gHo/8A4NZf/kej+0PGH/QD0f8A8Gsv/wAj11H4UfhQBy/9oeMP+gHo/wD4NZf/AJHo/tDxh/0A9H/8Gsv/AMj11H4UfhQBy/8AaHjD/oB6P/4NZf8A5HpP7Q8Y/wDQE0YfXVJf/keup/Cj8KAOXsfDeoajqtvqev3EM8tqS1rY2qsIIGII8wk8u4BPJAAyeK6cDAxS/hR+FAB+FH4UfhR+FAB+FFH4UUAH4UfhSflR+VAC/hQoMjBVXe7cAKCT9PrWt4b8M3Xia+8qEhIk5lmYcKCfTuT9a9d0HwtYeH4QLeAebjDTtgu3qc/4UDPKbHwPrmoIHjsHjQ/xTEJ+OCc/piri/DHXj/Bbj6yD/CvYqKnmKPHv+FY69/dtv+/n/wBaj/hWOvf3bb/v5/8AWr2Giq5vIDx7/hWOvf3bb/v5/wDWo/4Vjr3922/7+f8A1q9hoo5vIDx7/hWOvf3bb/v5/wDWo/4Vjr3922/7+f8A1q9hoo5vIDx7/hWOvf3bb/v5/wDWo/4Vjr3922/7+f8A1q9hoo5vIDx7/hWOvf3bb/v5/wDWo/4Vjr3922/7+f8A1q9hoo5vIDx7/hWOvf3bb/v5/wDWo/4Vjr3922/7+f8A1q9hoo5vIDx7/hWOvf3bb/v5/wDWo/4Vjr3922/7+f8A1q9hoo5vIDx7/hWOvf3bb/v5/wDWo/4Vjr3922/7+f8A1q9hoo5vIDx7/hWOvf3bb/v5/wDWo/4Vjr3922/7+f8A1q9hoo5vIDx7/hWOvf3bb/v5/wDWo/4Vjr3922/7+f8A1q9hoo5vIDx7/hWOvf3bb/v5/wDWo/4Vjr3922/7+f8A1q9hoo5vIDx7/hWOvf3bb/v5/wDWo/4Vjr3922/7+f8A1q9hoo5vIDx7/hWOvf3bb/v5/wDWo/4Vjr3922/7+f8A1q9hoo5vIDx7/hWOvf3bb/v5/wDWo/4Vjr3922/7+f8A1q9hoo5vIDx7/hWOvf3bb/v5/wDWo/4Vjr3922/7+f8A1q9hoo5vIDx7/hWOvf3bb/v5/wDWo/4Vjr3922/7+f8A1q9hoo5vIDx7/hWOvf3bb/v5/wDWo/4Vjr3922/7+f8A1q9hoo5vIDx7/hWOvf3bb/v5/wDWo/4Vjr3922/7+f8A1q9hoo5vIDx7/hWOvf3bb/v5/wDWo/4Vjr3922/7+f8A1q9hoo5vIDx7/hWOvf3bb/v5/wDWo/4Vjr3922/7+f8A1q9hoo5vIDx7/hWOvf3bb/v5/wDWo/4Vjr3922/7+f8A1q9hoo5vIDx7/hWOvf3bb/v5/wDWo/4Vjr3922/7+f8A1q9hoo5vIDx7/hWOvf3bb/v5/wDWqOX4a6/GOLeKT/clXP617LRU8wHz/qGj32kti9tJbfnGXUhT9D3/AANU/wAK+iJYI5o2SRFkRuGVhkH6ivP/ABd8NUZHu9IQROOWtuob3Unofai4rHnH4UfhScgkEbSDg5FH5VRIv4UUn5UUAH5VNZ2kuoXkFrCAZZnCKO2SepPoP6GofyrtPhbp63Otz3TAEW8WF/3myAfyDUDPR9A0WHQNNitIQMIMs+OXbux9zWjRRUFBRRRQAUUUUAFFFFABRRRQAUUUUAFFFFABRRRQAUUUUAFFFFABRRRQAUUUUAFFFFABRRRQAUUUUAFFFFABRRRQAUUUUAFFFFABRRRQAUUUUAFFFFABRRRQAUUUUAFFFFABRRRQB5d8TvDa2c66pax7I5m2TKo4Ddm49ef0rhF6dq978RaeuqaHe2pGfMjIX/e6qfwIFeBqflB46ZqltYTF/Kij8qKZIflXovwfH/IVYjJHlfyevOvyr0b4P/c1X6w/+z0+jKR6NRRRWYwooooAKKKKACiiigAooooAKKKKACiiigAooooAKKKKACiiigAooooAKKKKAEZqrXV/BYwtLcTJBEi7meRgqqMckk9qw/iN44sPhz4N1PxFqJP2ayi37FxukbOFRfdmIA+tfmr8RPih4r+NHiQS6hPcXTyS7bTSrQs0cXJwscY+82OM4yfp0+syLh6tnTlPm5Kcd5M+TzvP6WUKNNR5pvZH6aaP420DxDI0ela3p+pSL95bO6SQj67T/OtlH3//AKjX5N6z4K8VfD+S0v8AUtH1PQZN2YLuWB4SGAJwr44bAPQ54NfX37Iv7Rl/42kk8I+Jbr7TqsMXm2V5J9+4jXG5X9XUYOe4B9CT6ua8JywWFeMwlVVaa3t0PMyvilYvELDYqm6cnsfVNFIpyKWvz4+/CiiigAooooAKKKKACiiigAooooAKKKKACiiigAooooAKKKKACiiigAooooARsfxdP/rV87Sf6xunU19ESfdr53f756daaExv5UUflRVEi/jXovwf+5qv1h/9nrzr8a9F+D/3NV+sP/s9PoykejUUUVmMKKKKACiiigAooooAKKKKACiiigAooooAKKKKACiiigAooooAKKKKACiiigD53/blF0fgxGYN4gGpQG5KnH7shwCfbeU/SvAP2I5NIj+LVx/aDQi7awdbHzSPv71LBc/xbQ34bq+5viB4NsfiB4Q1Lw/qKk2t9C0RK/eQ9VYe6kA/gK/L/wAfeB9Z+FHjW50a/wB9te2b74LmJiokXOUljbPpzweOR1FfrvCsqWZ5XXyfn5aktV+H9M/JeJ4VMBmVLM+XmgtD9C/2kptFT4L+KP7XaHY9m6wCTGfPx+62j137cYr4b/Zi+0N8dvCItj+8Ny+cf3BFIX/8dDVxHiDxnr/ilYV1nW9Q1VIeY1vLp5gnHUBm6kV9h/sY/Ayfw7YSeNtZhMN9qEPlWEEg+aKAkHeR2Z8D8Prx61TBLhPJa9HE1OadXRLp2/4c8uniZcS5tRq0KfLGGrPq0fepaRe9LX4YftwUUUUAFFFFABRRRQAUUUUAFFFFABRRRQAUUUUAFFFFABRRRQAUUUUAFFFFADZPu187v98896+iJPu187v98896aExPxoo/GiqJD8a9F+D/ANzVfrD/AOz15zn3r0b4P/c1X6w/+z0+jKR6NRRRWYwooooAKKKKACiiigAooooAKKKKACiiigAooooAKKKKACiiigAooooAKKKKABlDda8c/aQ+BcHxg8Js1qkcXiKxUyWU5GN/cxsf7rfocV7HQRnrXXhMVVwNaOIoytKJxYvCUsbRlRrK6Z8C/s6/su6z4j8Yf2h4x0e50vR9LkDG1vYijXUoPACnrGCMkjg8AcZx9628YjjCKAqqMBRxjjFSeWuc7eelAUCvSzfOcTnVZVsQ9tl0R5+VZPh8opOnR3e7F96KKK8I90KKKKACiiigAooooAKKKKACiiigAooooAKKKKACiiigAooooAKKKKACiiigBsn3a+d3++ee9fREn3a+d3+8ee9NCYn40UmfeiqJDPvXo3wf+5qv1h/9nrznPvXo3wf+5qv1h/8AZ6fRlI9GooorMYUUVx3j/UvHOnvZf8IdomiawHEn2r+2NVlsjHjbs2bLeXdn5sk4xhetAHY0V418FvjdrHxAtPGOpeJdI0nw9oHh+8ayTW7TVXuLK7eJSbl0klhi/dxMNhfG0ssmD8ua6zSfjl8Pte8M6j4i07xnol7oWmkC91CG+iaG2ycDzGDfKD2J60AdzRXnmiftCfDPxJ9o/srx54f1H7MqNN9m1GJ/LDyLEpbDcAyOi/VgK68eJ9KOsXGk/wBoW/8AaltbrdzWXmgzRQuXVZGTqFJRhnH8JoA1KK4jxD8bvAHhPTNI1HWfGOi6ZY6vEJ9PuLq+jRLqMgESRkn5lwyncOPmHPNY3in4s3Gm/FX4eeHNNWyvdH8Uabql+195hPFrHbvGY2Uldjic5JB6DFAHqFFeQeKPjtaeF/g3pnii+1fwrp+sataq1gLrWlGmyzuAQUnKhpY1B3EquSBwORXpXhfWIde8N6dqUGo2eqw3MCyC+09g1vPkDLxnc3yk5/iP1NAGrRXF6P8AGjwH4g8YXHhTTfGGi33iS3LrJpdvfRvOGQEuu0NyVAOQOmOah/4Xt8Ov+EktdA/4TfQf7cupnt4dP/tCLzmlSRo2j27s7t6suOuVIoA7qivG7n41anD4w+JWlGDR4LfwvfaNaWs2o3jWiSi8SIv5kmGG8NIVRQvzEqvfNX/B/wAare6n+Isvie5sNE0zwx4l/sSG7kk8tXVre1kQuWbG9nuCoAxnAAGaAPVaK4zxV8ZvAngfXrTRfEPi/RdF1e7CmGyvr6OKVwx2qdrHgMQQCeuOKm8b/FzwX8NWs08V+KtJ8PPeZNuuo3kcJkAIBZQx6AkZPTkUAdbRXnviT4ky6Xfa2LKfQZbWz8OtrkEl1q3ks2C4DSAIQlsQo/fZPfjjNWPiN8RpPAPwX1zxv9kh1CXS9Hk1P7NDcHypWWIvtWTb90kfe2/hQB3VFfNUP7XV14k1L4XeHvCfhhNd8X+LdJtdd1SxW8ZYNCspYlk82aQIT1cYXaC2B0LpntPCnx8s/wC1PGcfjDU/DGgafpOvf2NY3EOtRytMzKSizg48qVtp/dnnhvTJAPYaK5Dwf8XvBXj+HUZvDfijSdcg01sXklheRzLb8E5cg8DCtyePlPoab4J+Mngb4kX13Z+FfFuj+ILu0G6eDTr2OZ0XON2Fb7uTjI4oA7GivnfWv2vNP0f9qqz+ET6UfsMghtbjXjMQkF/NC88FsV24y6IADuyS2McGvTPE/wAePh14J1S803xB420LRtQs2jS4tb6/iiliMi7o9ylsjcvzcjpQB3lFcT4n+N3gDwX9nOu+MtE0j7Tai+g+138SedATgSpk/MpPQjrmui8NeKNJ8ZaLa6xoWpWur6VdLvgvLKZZYpBnB2spwcEEcdwaANSiuFm+O3w8t/EVtoM3jXQodZuppLeGwfUIhNJIkrRMgXdncJEZMEZ3KR1FT+MPjN4F+H+sWmleJfFuj6HqN0oaG0v72OKR1LbQ20nO0njJGKAOzopnnpt3Z+TGd2RjH1/z1rxi+/aY8Nax8SPA3hjwd4g0LxL/AGxqd1Y6mLO8Wea0WOynuFYKjd2iC5IxyR1oA9qorjovjJ4Gm8ZyeEY/F2iyeKEYxtpC30ZuQ4G4ps3Z3gc7etM1b40eBNB8WW/hbUfFuj2HiO4KLHplxexpOWf7i7S3VsjAPXIxmgDtKK8u8J/tEeC/GfxT8QeA9L1e1uNb0ZY2dUuY285jv8xUUNuzEUAfI4LLmui8M/F7wT4z1+90TQfFekaxq1juNxZ2N5HLJHtbaxKqegJAPoTzQB19FcBoHx++HHijxBaaHpHjjQdS1i6QSQWNtqETzSKQSCqhsk4BbA5xz0rr9e8Qab4X0m51TWL+30vTLVDJPeXcqxRRKOpZm4A+vrQBoUV494F/aA0n4j/FzVNA8ParpGs+GLPQLfVRqlhcCQ+c9xNE8bMG2gKsanBGeTXY+C/jD4H+It9eWXhfxZo/iC8sxmeDTr2OZ41zjcQpJ25/i6c0AdhRXmPjr4oaj4X+OHww8GW9tby6d4qg1aW6nk3ebEbSKGRAnOMMZDnIPQVu6b8Y/A2ueLp/Cmn+LtFvPEsJZZNKgvo2uFZM712A53Lg5HUYoA7GivKvh38arfXNJ8S33ia50/RIdO8VXfhy1kaTy1nMcojiX5m5kcn7q9T0FdFrXxn8CeG/FVv4Z1Xxdo2n+IZ9gj0y5vo0nJc4QbS3BYkYz1yKAOzorw7Uvjzqtn47+K2ieRolvbeERoZs7jVb17KKU3xIkEsuGAIIAQBfmJA75HV61+0V8MPC+sXOj6x4+8PaZqtq/lT2d3qUUc0bccMpbIOCOo70AejUVxfiP41eA/B/iKz0HW/F2jaVrN4EMNjeXscUrBj8h2lv4j0z17VL40+L3gn4c3Fnb+KvFej+Hri8GbeLUr2OBpFBALAMR8oJxuPHNAHX0V534q+JM+j3Hij7NP4fa20vw+uswvd6v5LFi0w3TjYRFbkRDEwJ/j+X5a7zTZmuNPtpX8vfJGrt5UhdMkZO1iBke+KALFFFFADZPu187v8AePPevoiT7tfO7/ePPemhMbn3ooz70VRIZ969G+D/ANzVfrD/AOz151Xovwf+5qv1h/8AZ6fRlI9GooorMYV4J+1n8T73wdoWh+GNOl1XSLjxXcPZ3PiPTdPuLs6RZoAbiZVhR284qwSPA4ZyxICGve6NvPvQB8l/E+98PeN/2c5fCfwqt9WOl+G7rS5LjT4vD90kv2GK6jeQJFcxJ9pfZG7lBnftIbJbk8F+JNM8M6542+KcvinxF8Q3sfDsdpcRQ+FG09bgrMWhhQCJfNnDMy4K/IJfmIr60+91Gab5af3F656D0xn8qAPkT4faDoPxk+Hvj+wv72e8+J/jPTJbi+mk0u8toNO2AfZbWGSaJV2QOydGyz7n78cJqNv4/wDEHgqD4sW3h++svF/xCe78I3GmiNhLp9tcwRWtrM/H3Iri083ccYF0/rX3xtHpTTGjAgopB4PA/I0AfM0DaF8BfjZr1x4k067g8KXfhjStJ8OXtvps95Dbw2pnWexzFGxVmLxOFI/eZGMla4z4beD9c0PxF8Co7zQr/TLePTfGMsVlPCxOnW1xNBJaW8n9xhEyLsJ42lf4TX2bsHoM9elKV9vbpQB8VfBaZPhenwb8U+MtN1C00JfhzFpFteHT5pxp195qSSxyIiM0TSxhMMVGfKK57V9NfB+PSW+HlvJoHhq78KaVcXF1cW2mX8LQSgPcSP5piJ3RiQkyBDggOAVXoO72j0HrSbQV2kDHTGOKAPgLw/4gvPEN58E7bZq9hquleM7ebVPCFh4Sk07TPDgdLmN4/O8nJJdwMtMRJvZ8YHFqfXNF134B/EfwBpuj393451rxjrC6bHBpM5Et0dWkMV0twI/LxEFDFy/y+UQewP3iY1IxtHTA47Hrj8h+Vc38P/AOn/DnR7nTNNkuJoLnUbzU3e6cM/nXM7zyAEKPlDyHHHQDrQB8v/FTQ9UudX+O5j067mNz4i8FyQtHbuwmEc9kZGTA+YLtbJHTBz0rIPhLX/Dfxq8a/EvUdPuPEHgjQ/G8ks3hw2Ts8JksbRBrEAB/fNEdq7SrbVWUp83Ffb20Zzjmk2jngenT9KAPiT9ozXri+l+Nmjs2q6NLqGkeXpunaD4Va7k8TK2noVuJrowSfKjl4cKUMYiLZyc11/hTxFp3w1+IN7rvjqz1CSw1/wAH6Lb6VqC6XcXilYopftNn+7jZlkZ5Efy2A37h1IwPq0gHqM0jLwccf5/xoA+K/Fulwj/hO7DRPDN94fgk+CdxHZ+H7hC11bK0tzsgKhm+YZA2gnHAr2b4zabd337HPiixgtZp72TwfJGtskbNKz/ZcbQuM7ieMV3Hh/4V2Wh/EbXPGsmp6nqmr6pbpZBb+ZGis7ZXZ1ggVUXCl2LHcWPTmu22jbjAx0x2oA/Oj4CeAvEP7IOp/DDxyV1bxF4V8f6NaWXiaOaxZrnRrkp5lu2FUukUcZEeGJ4jfodgXlPiR8O9b1RviZbS+Hb+5tr34zWM5j+xSMs1sUulaQDb80eGHzDj5hX6h4z1Ge9JsXGNox16UAfnz8ZPhDr998Wf2jtH8D6FJp0eqeDLAWqafbGCC5dJIWliQqArO0ayLtHXfjvVvwbqnh/VvjJ8JvEvgTwLrHhvS/AfhnUn8XTHRZrLEZs8Q2Ryg8+ZZAzbVDZ35BbBx997RnOBnr0o2rtAwMemOKAPy1X4R/HvxR8DfEPxDi0Xw7aS6l4ik+IAa6F6viG3ngZ/LSKPy/L2hQ7RqSflkHqANKT4neE9c+P/AMZ/Efi3wXqOrjxD4O0xLXT00eW9lgu5rCEi2YCM+TIzjaGbbzGeelfpwsaoAFUADkYAHXrXl1v8PvB3w5+NGr+PJ9UuLbxH46NtpQtbqZTDLLBCSiQrs3BzHE7HLHO00AfC/hmzg+EvxS/Zvt/ihod1frp3gu8F3aPpsl/Jab5bloi8CIzfu1aNThflyPTj6c/4J9+F9U8O/CXxJdXekXWgaNrPie/1PQ9KvIzFJbae5RY1KEfIMqxwBjkHnNet6x8FdF1n4zaH8S5rm+TXNH0+TTLeCORBbNDIWLFl2bt2WPRh9K9DXjoPagD4x8VeDZof2Ufi99k0OQaxeeN9TvgIbRhPMy64DHLjbuYiNUIf+6B6Uvx8169Pir4v6JcR6j4dlvtFjg0220Hwsb+fxPm0YFpbkwSLtjctHsBQoFLE4PH2YUXBG0Y+lZ8Ou6ZdaxcaVHfW0uqWsSTzWSyqZoo3LBHZM7lVij4JAztNAHk15oeteJv2PzpOkiVPEGoeBxa2qvlJDcPYhVU5xhixA56ZrzGw8VeHfGfxF/Z3tvCvh/VLM+H5ry3vPO0K4tU0pTpU8f2aSSSNVDFwPlBOdgPdc/Wk0kdvG8khVIwpLM2AAOpyfTr1rn/CfxE8J+PDef8ACNeJNH8QGzby7kaXexXPkt02vsJ2ng9fegD44EM9x+zTpfwhs9B1OD4ww6xbs8J024zDfJqKzy6obox+X5TKHm84P0cIPm+Wtn4sXS+GfE/j+20O01DU9T1jVYprr4feIvDcl/a69IEhRLi0u4VzEpRFO53ZY2jOUWvtIgHqM9qNoznHPrQB8v8Aiiz1Gb4tfHLQrBbix8Q+KPCNqug3HlOkU0yW11GSs+3YrJI65ywIzmuJ+Aum2OteLPhXp1z4w1yfXPB8Df8AFMP4RFg2kK1pJBJHcziNdsbMNoJY+YyoRnBI+1do9Bn6Vyej/Dew0Pxzrviizub2O71xYRfWhm3W7vEiRpIEIyH2Iq8HGAeMkmgD4s+EOvaT4s/ZZ+EXgbw9pt9L44XXLG/tjFpE6LZiLUjNPemcoIxGYFkXzFY7t+3qSK+kf2rNJvL7wX4avUsLnV9H0fxNpurazYWsDXMs9jDNl8RAEyBGKSFQCSIzxXofwr+GumfCH4f6P4R0eS5m03S42ihe8cPKVZ2c7mCgdWPQDoK6wqG6jNAHxR8QluPjN4z+MV38PdP1CX+0vAFpaQ3Z0+ayXUpUupzJDG0qLvZ4j5W7pzjPFd9Y69ovxQ+LXwgl8D6LqFoPCwu31a4m0u4sV06zezaFbF/MjUF2mMLeWM48gnpgn6Z49Kb5a5B2rkew/wA9hQB8/wDxv0vUb79p34Gy2ME+2LT/ABMjXiRM0UEj2tsIy7YwuWHGSM4NeV6LJbax8HvhR8MtJ8P6nYfEXQNY0l76B9JniOmS21wj313JMyeXskRZ8OHPm+eMZya+1v6c0bfb3oA+GfAvhfXvAvxU1n4j69Y3Ou+DrXxtrFkulmzkMmitPMoTVYlB/egk+W7BSVRsqcBs5f7Rmt6jqHhz426A0GqaFrFzdSPp/hvQfCrTjW4UjiK6hPd+S+Sdv3kePyxCB16/fOwYxtGPpS7Rzx7UAfC/x28N6vf6l+0m9vpV7cfa38EfZ/Ktnbz/AC7qMyFCBhggBzjpjmu7+KHxG8N+Nvjc/h7xbDqWneCPCM8dxJb/ANi3k6a7qIAdCTFCym3gOGwx+eTH8Kc/VaxouAFUD2ApVUL0AA9hQB8NftDa7eapZ/G/QWi1XQru+s2GnaJoXhNrp/ES/YkK3c90YXyAQU+VkMYh7tivQNI8RaT8Nfil4z1fx1peoT2HiXQNJj0m9j0q4vkuYYrd0nslEUbYcysz+WcbvNGM44+pdq9Nox06UjIGzwM9M0AfFvjLR0az+KWm6P4cvdDjPwTsobPw/ODLdWoL6kEt2AZsuowuATyK+w/DqmPw/piFChW1jBUjBGEAII9c1znhX4X2fhrxv4h8WvqepavrOtJFA76hLGyWlvG8skdvAERdsatNIfm3McjLcV2g44HA6UAFFFFADZPu187v94896+iJPu187v8AfP1poTG596KWiqJCvRfg/wDc1X6w/wDs9edV6L8H/uar9Yf/AGen0ZSPRqKKKzGFFFFABRRRQAUUUUAFFFFABRRRQAUUUUAFFFFABRRRQAUUUUAR3ORBIwOCqkg/QV8xeF/jR4u1L9n/AOBHiWfUlbWfE+vaVY6rcCBAJoZnkEihduFJCjlQDX1Ay5XFeIaT+yT4U0a50JbfWfEn9j6Bqkeq6RoTajmwsZUdnCxx7clBuYBXZtoJ24zQBmfDm48d/EjVviPe3nxCudG0vS/EGoaLp9pY6daf6PHE8bLK8kkbbmAJUZGME5yeRgfDzx14ybw58RvHdz8Qzd/D+wsJoPD2peI7GBY7iaMHffsLeJGMAddiIOZMMR95a9av/gToV94J8Z+GEvdUs7HxZeXF9fzWtyEnWScqZVjfb8qkLtwQeGbmse1/Zn0T/hFtQ8Mar4h8ReI/DV7px0xtH1S6iNtDH8oVohHEpR0CDawPy0AeU6N8ePFXgXxDrP8Aad54k8SaND4N1LxJjxNoUemTG4szCxW3CIh8qRJT8rqWQhPm5NV9Q03xpPq/7PHiPxP41fxC+teIIr2XT/sMENvaTS6XduotmjAby1VmX94XJ+U5HOe08L/Am70X4+SX+sP4j8UaJF4bfTbbWNa1CG7SYTSk3FvOhKlQoigK7Ivm8yQu5woXpPD/AOy14c0DVPDF2mveJry18MXP2jRdNvNTMtrYjyniEart+ZQjlRvJICgA4yCAcrZ3fjvUPj1Z+GNB+Imqaxo+isLzxRJeWFiIIVYEw2MbRwK3muPmJ3fImO7CuC8H/tAfEPxsul+LtLTxTdx3uurB/wAI3D4WZ9JGmfazAzC88vf5yxAyGQSbNyldnevafBv7M1h4Dv3uNH8a+MIIZtRbVLqzkv4mhu5nkDuZf3O5gx4OWzjjNXtP/Z00TRtcN1pmueItM0d9ROrN4ds9SaLTzcmTzSwQLvVWk+cxq4QknK8mgDxTXPiN8Srjwj8c/Gtn46ksIfAHiK+ttP0RNNtnt7iG3gglMU7lPMIYSEDYylTk5bgDv/HXxH1Hwv8AEL4qhNW0zQ7bSfC2l3dtqF9ZeasEs012hLiMeZLyq7YwfvHAxuOe5ufgH4aufCPxA8Nl75dO8cXlxfaqVmHmeZPFHFJ5bbflG2JcZB6mn+MPgP4X8dXnim41iO6n/wCEk0+1028jSYoEjtpJJYXiIG5JFkkLbgeqr0oA8g+HXijV/HHxJ1n4Y+K7rxF4j8Kax4Ye+k/4SrSk0u6LGcQyxp5KxnyWSToy7hjGTXUfCvwiNe+OHiHxvp+jxeGPDmh6fJ4N0+1SDyZNQMVwGluGUDAiRk8uIYJILtwCM9b4H+AOl+C/HQ8Xvr/iLxB4g/s5tLa61u/8/NuZEkCBQgVdrLxtAzubOSc13fh3w+PD1vdwi/vtQFxdzXW6/mMrR+Y5fykOOI1zhV7AAZoA1aKKKACiiigAooooAKKKKACiiigAooooAKKKKACiiigAooooAKKKKAGyfdr53f75+tfREn3a+d3++frTQmJRRRVEhXovwf8Auar9Yf8A2evOfzr0b4P/AHNV+sP/ALPT6MpHo1FFFZjCiiigAooooAKKKKACiiigAooooAKKKKACiiigAooooAKKKKACiiigAooooAKKKKACiiigAooooAKKKKACiiigAooooAKKKKACiiigAooooAKKKKACiiigAooooAKKKKACiiigBsn3a+d3++frX0RJ92vnd/vHr1poTEopPzoqiQ/OvRvg/wDc1X6w/wDs9ec/nXo3wf8Auar9Yf8A2en0ZSPRqKKKzGFFFFABRRRQAUUUUAFFFFABRRRQAUUUUAFFFFABRRRQAUUUUAFFFFABRRRQAUUUUAFFFFABRRRQAUUUUAFFFFABRRRQAUUUUAFFFFABRRRQAUUUUAFFFFABRRRQAUUUUAFFFFADZPu187v949etfREn3a+d3+8evWmhMb+dFH50VRIfnXo3wf8Auar9Yf8A2evOq9F+D/3NV+sP/s9PoykejUUUVmMKKKKACiiigAooooAKKKKACiiigAooqGW8gh4kmjT/AHnANAepNRVVdStP+fqH/v4P8amjuI5lykiuP9lgaAuuhJRRRQAUUUUAFFFFABRRRQAUUUUAFFFFABRRRQAUUUUAFFFFABRRRkd6ACjNU7zVbLT1L3N3BbIOrSyKoH5muVvPjJ4Es5jHP4x0OJwcFW1CIMD6Y3da1jRqT+GLMZVqcfikjtqK4OH45fD64bbH410Jz/2EIv8A4quk0nxdomuRh9O1ewv0bo1rcpIPwwacqNWPxRf3Exr0pbSRsUUgYN0OaWsTe99gooooGFFFFABRRRQAUUUUAFFFFADZPu187v8AePXrX0RJ92vnd/vn600JjfzopaKokK9F+D/3NV+sP/s9edV6L8H/ALmq/WH/ANnp9GUj0aiiisxhRRRQAUUUUAFFFFABQTgE1FNdR24y7D6Z5rC1LU53kCx8of4e4980wNWbVoYpCg/eOo+bb0H1NZt5rFwvMeArDAVRlsjnOfSqkMkcUJbf8gGSec59/fNLHubMjYyegwPlGeB9aoQ+OR5I13SmQ9ck8E81l6poouP3sIxJ1K5ODWhJCVJePg4yV7H1/GpI51kYr3HG3HI9D/8AXqWlJakSipKzOMbMbFGXBHBzVqx1J7Nthy0BOWXOPxBrR1yxknmRowHKrllUYP1rDOe4wc45+lczTg9zzpRlSlc7KDUnmhElvOR+ZAPoau2WuyygmROPTkH6/Q1wtvcPbNuU5z1Uk4PsRXQ2d5FqKqYj5dwo+6en0+lbxkpKz3OulVU1ZnW295HccK3PoeDU9clHL9qmGcoEOcKeSR3+grVtdTaPiU7k7HuPxqrHUbFFNjlWSMOrAhhkYNOpAFFFFABRRRQAUUUUAFFFFABRRSMR60ALWX4i8SaZ4X06XUNWv7fTrKJSzz3MgRB9Sa8c+Nn7UGlfDe7OgaFB/wAJJ4xkPlpp9uSVgYjgyEc5/wBkc9M4HNecaD8AfE/xgvoPEnxa1ya4RiJbbQbOQLFEpwcErwuR2Xn1Y17FDALlVXFS5I/i/RHkVsa3J0sOuaX4I0viH+3Zoti8tl4M0qXX7tcgXlwDFbj3AxuYfgv1rm9F/wCF0fHC2gudT8ZweC9Lu13xWdnE0Mrr6qRyQef+Wle+23wl8G2dnZ2sPhnTUgszmFfs6nafU8cn6mukutOtry3EEsKNEAAq4wFx0x6Y9q6sRj8PhqKWXUVz95a/8MY0sFXrVW8ZU93stD53t/2LdDm/0rXPEGr69d9XeWbYG798nP8AwKrNr+y/8O7ZVB0WSU/3pLqUk/r/ACr3FdKv7NStpqOYgflS5jDke24HOKz7Gx8+8ntLrEV3F8w8vlXU9GGffPevBlxFj5yUKrcG/u/A6amTYe16STPI5v2Zfh3KuP7A2+63UwP/AKHWLqP7JfgibJtDqWmyY4aG63Y/76U/zr6Ck0CRQSkqv3wcj9c1lyQvG2JFZD6GuxZvmFPX2rPLnl1KO8TwS3+EfxN8BHzfBfxHu5Y15FlqhZkwO3zb1/8AHRWxp37U3j34bzJB8S/BrS2e7b/a+kDj6kZKkn/eXp0r2L7q1BNClwrRyxiSNhhlYAg+xHp9a6Fm8a2mLpKXmtH96MY4edF3oTcfxR0vw5+MvhP4pWgm8PavDduAC9q52Tx/7yHkfyruK+Q/HH7N+lapff2z4TuZPCXiGM+ZFcWRZIi3JBKqflye6/lVrwF+034g+HWtweGPi5Z/Z93y23iGFf3UvPBfAwR/tL+IHWtJYCliY+0wMr/3X8X/AATupZjOnJQxSt5rY+sqKqadqFvqdjBd2s8dxbTIJIpomDK6kZBBHUEelW68Npp2e576kmk11CiiigYUUUUAFFFFADZPu187v98/WvoiT7tfO7/fP1poTEoooqiQr0X4P/c1X6w/+z15z+FejfB/7mq/WH/2en0ZSPRqKKKzGFFFFABRRRQAVUvr9bJRuGS3A9PqfQVJeXQtYS7DPHAAyawLi6EymRm3bunfOTgAfjTAddXDMct+8djgL0NMjh8vJ6nqW/z2qCONrdi5BKnjb1KDrgewpWY3B2Rn5CMsw+vT8f5VQtRGjM0hkj2hAfwYg8kipkk8zKkYYcleh/8A1U9VGSDwAOB0pJI/Mx1DDoy8H86CR3Pp/nHWoLpVVQ/zCQHC7SQT7fj705bgphZvkI74wD7j3pIwZnMjjn+BR2HqT6nigrUZB+7bEmfNY8kHg9uP8Kq6lpcV448sbZ8ZLdB+NXrhh5YU/OWOAv8AePsfao4823EhLg8l8c/iPSk0nuiJRUlZnKT28ls5SVSj+44+o9quaPZvdTBslI1OSw4J9q2NZNutqTKA7sMpg4Psc+nSo9JvrZ4EiXETg42sRz7g+9Y8qUtWccaahPVmhJCuwFTsdfu+34VDHJ9oZkPAU5dexwf5VLMzPII1yCfvMP4R659TSPbjaNp2FPut6c/yrc79S1DfmxIYHIbgr6/QepxW9DMs8YdTkEZ65/D61ycLfaJNzcbfur19tw9uK1LO5+yv6qeGHU9etJgjaooVtygg5B5oqRhRRRQAUUUUAFFFI1ACMwHf2r5m+Onx81bWPEo+G/wyX7Z4kuGMV7qcbfJZL/EFb+8BnLH7vQZbgbH7T3xsvvCsFn4J8Ibrnxrrn7qMQcvaxtkb/Zjg49ME9qz/AIS/Ay1+GOgW7xwtqms3C79Un8woZWPzYRt2flPr15PWvV5Y5bhXj60OZ/Zj3835fmeRUnLGVvqlKVl9p/obXwX+AOkfCezNzIf7V8SXK5u9TnGWLNksqZ6KST3ye+a7Rm/4Rm5GWzpkzZwcf6OxPT/d6/So7G10e9kMKrLFcjlreaWRX/Ld0+lXx4Z0zOWtVkPT94zP/M/yr4/FYzHZtL28bcy2d9vK1vwPfw2HoYCPs9bDp/EWmW+Q97CGHVQ+4/kKm0/WLPU2kW3m8xk5ZSpUj0OCOhrP0G1i02+vbBUGyHbJE2AG2sDx06Ag1c1TSItQ2yZaC7T/AFdxGBvHtnuPY1OHr46rD2mjadmv+CaThRg7Lr1NHpWNq48vWtJkXh2kaNiO6lCcH2yBWbqXiSXw/j7bqmmE4+7KzI5/U/oK5bVfidp9zcQO99b2/wBnYurQxyTZyCP7o9T2rbFfWcTRtChK909vMyhKlTneVRWPU+w9DVe+0+O+jwRtccqw6j2+lea6Z8SPDup28b3+sXkxYZZVV4o+e2ABx9a6TTL7QNWbZp2uzI+M+Wl0xP5Ma7eTMHBTeHdvXUwbwsrx9oaq+HSMb5vb5V/+vUv/AAjaY/1zf98j/GoY9N1FZJPI1eQhWxiaFXzwD149fWkefWYWOyO1vwOMrujP9efpXJ9alDSrRa/H8hrB0pL3ZImPh1P+ezfXA/xrmPGvw4svF+jz6Zq9imo2UgwP7ynBAZT1Vueo/Wult/FFpJbiSVlgcHDRySICDnBHJ9famN4usQeJE/Bg36LmuqlmNCm1Up1LNeZhPL+dOEonzR4f8UeJ/wBkXxNFYaq9zrXw1vJtkcpUtJYsTxgdj6qOG5Iwcg/Y2ha5Y+I9ItdS027ivbG6jEsNxCwZXUjIIP41w2qwaP480e90jUrOLUbK5jKTQNjPPQ7Thgc98duPWvn34Z+Mb39mT4nTeB9buZp/Aep3DDTb+fOLWQkHBPYZYBvqGxya+n9th85p+0pNe2XRfaX+Z5UadXLZck9ab/D/AIB9mUVHC4aMHIOehHT61JXhnthRRRQAUUUUANk+7Xzu/wB8/WvoiT7tfO7/AHjx3poTEopPwoqiQ/CvRvg/9zVfrD/7PXnP4V6N8H/uar9Yf/Z6fRlI9GooorMYUUUUAFB4BP40VT1Ofyrcr/fGKAM+/vhM5OcRr0Pb61lrC7N5yjA6rGRgfX6kfpQqszEouYAeF9fcewP8qseenl7s/L1Hr9MeuasWpHJcBl2xkmU8Adxz1P0pFhNuuYhk9WBON3v9akijIZpH5lfqfT0A+malOccDnP8A+ugNRFkWRS3Q9weo+oo449T/AJzTJFbJaMgOB+Bx2NRecZsxDKNn5+xUdCM+p9qPMNRZFF4x3HMC+n8R6Z+g5oMhtB87bo+zY5HHQ1OqCNQowAB+H+cVCgNwd5BCL933680BqOhjEjCRsZb7oz0Hp9TxUkhWOMknOOMf0/Gq7I1uNyZKAZ2f4GkhkW7YS9YxwvGM57n/AOvQCKOoaPLcR+YpIcf8syeAPQe9Y0NrJNcCELiTOMdMe9dhJL5Klmbgc+veoI7djIZs4mbjHbA7GocE3dnPOkptMkt7cW8IUvuOPmc9fxpsrea5jGQOrH29Pqaa118p+X97nHl9/wAPanWu1k4PfLZ4Oe+as2WmiHSRCRRgbGX7pHUdMVGLhixj2/vh1Hb/AHs+lTSSCFHY9OtQrbkrycSk7tw6g9Bz6AUAbGj3DAeVI+7uCeO/atSuZt5mEnI2yLz6g+49q6SOQSRhgcgjNSyx1FFFIAooooAK5f4leOrL4b+C9V8RX7Yt7GIuEzgyOeEQe7MQB9a6dq+Tv2mNQuPix8XvCXwqspGFlG41DVWQ8BeSFPuEDfjInpXo5fh1ia6jL4Vq/RHn42u6FJuO70Q/9mbwRf8AiTUNR+KvioCfXNcdms1cHEEB4yuegIAA/wBkD1r6C2iO6Q/cUggkDrg9PwpdPsYdLsoLS2jWK3gRYo41GAqgAAAegAom/fSNEcpgCTcvB6ngflV43FPE1nLpsl2RWDw6w9NJ79X5mT4mVI1sLjYzmG5ViyqWYKAc449P5Vr2t7b3sIlt5klQ90OfwPvUH2dpLgDzpCI+eq55yB29jXH/ABB1q08B26arG7fa3Yp5KAZlyDgkAdAcc49a+bjhq1PEOdBXUrXX6nqSq0/Z/vHsXvGHiiw8F3yapeSgRPCYmjUguSCCuB6cmvKvE3xd1bxAXS0k+wWTfdWI/Mw9S3v7VxureIrjxJfveXd0bl5eOoIX0UDHA+tZEkh0li6kvbMf9XkAqT6e2a/QsBldDAJ1pa31fkz5HFY+piXyR0sXrq6Cl5ZpGY9SWJJOT6+9VRLeTqWWKONG+6shO7HqeOtLBbvPJ9ouF2uOUi7L9ferat619HGDrK+yPGcuV23ZHYwtb2scbYJUYOOhqYMVI2nBHOaiku4Y22tKgb0LYNOWZJBw6n6EGumLpxShclqV+Y6fwz8SNX0Gba0gvbYNjybj5sDA4B7V7h4P8daZ4rt8QOsFyoy9u/DDjqB3H0r5mWMFnLD+LjP0FWLK5k0+8iuLZzBOhyrr1/z/ADrycZltHEpuOjO/DY6rQaT1R9Wtp9k0rStbwNIxyzsi5PueKmVoIQQvloOnGBXG/DnxtaeLLHyZI4otRhH7xAow3+0OOhrsn8mFNz+Wi+pwP1r83xGDpYWbjUikfY0sRKvFSg7lK+sdP1DDTiMuPuyq21x6EMMfzrzHx/8ACi0+Kng3WNJuL8o/2iSSzkkCsVmUYVicZwfunBr1f7VZsABNEeezrVDwvIraOj7hmSSSTBP95ycV4fNh6ePo1qTs1d3TsdrhKph505rR6HnH7JXxVvPEnh298HeIXZPE3hpvs0omb55YQdqufUjG0/8AASetfQa9K+PPjBHJ8F/jV4W+JunqU0zUJjp2sInQgnG4+p28/WIV9fWs6XNvHLGweNxuVh0IPIIr7PMacJSjiaPwz19H1R8/gako82Hqbw/LoTUUUV5B6wUUUUANk+7Xzu/3jx3r6Ik+7Xzu/wB48d6aExv4UUfhRVEh+FejfB/7mq/WH/2evOvwr0X4P/c1X6w/+z0+jKR6NRRRWYwooooAKwdWm+1Xfkj/AFaDDN656gVvdq5i43LNJLGM7mJZCePqPeqXcB4REXAOAPeqwt2uJfPBxt4UEcHA6mhW+1sUH+rBw3GDn0+lWl+VuDn1pkEUcnmAAgow5IP8/p9P51IrfNgjGeT+VV3j+1SbeQkbY3Dg59M+go88wcSjjoDg4Pt9aCtR8jGNQAMuxwo/r9BXLeLvGtn4LuNMhube5nnvZdqyQqDjBUEnnuWHA9K6qFCMyP8AfP6ewqvfW0N20QlgjlljbfGXQNsIBBYcdcE1yYqFadO1CXLLubUXCMr1FdDvOa5bymJTBy/bd6AfWrWTt4HHTAFQvCpiVTzj7pzg5PfPrmmyTyIBCcB24V+g69cetdSulZmOl3Yc7ec5i6Iowx/kKV4drKyHa/44PHQ/SnoixwhQcYqN2+0MyAfuxw5z39KZIyOT7U4ZhgKflU/+hfSrDN5X0AyfwpjxiQc5yOAR1H0qHzvNm8t/uqRlhn5j2FBVzD8WeL9M8H6fFqGryNFFNII4vKQs3Qnp9AetbFvdLcRxyxkHzFVl67ZFIyCPfFM17w9pviazS11O1ju4FdZVjcHIZTkH/Pqat3EapbhQuAvCqoAx2AH6dPSt5cns1y79TFc/N5DUkW6kHZY+T0HzHoD9P8KsjBYgmsLWl1C00a8bTQr6oIWMJcZV3xkA++fU1V+Hl5rl94XtpvEUaxamxbcoUKdufl3L2bH8xSVK9N1Lg5++oWOilhEnA4I5DcfnWpoN000csTgBo2xxnoRkGs/b8ue9TaLJtv51Hfj8gDWDNkb1FFFSMKKKKAIL+6SztZriVxHFEpZ2PQADJJ/DNfJP7K4bx7428ffEe7UmXUbz7PaByCyRZ3bceyiNf+Amvb/2lPER8LfBHxbfBijtZNbIynBDSkRA59i9cB+z74Ybwp8F/C17aR/6Q8Bu50xgypKd5GPUKRj6V6sarwWW1cSlu1H5bv8AQ8qcViMdTovor/5HtA/+vUSfNqDjHSMD9WpLW5jvII5omDxuu5WHvUU8Ia6Dscq42lckdCSDXlwnGolOOqZ6jTi7SI5r+3s5LiaWZEjWPczMwAGCxPP0r5u8ZeJpvFmtz3js3kBtkKc4VAePxIr1b4va02m+FxbxtsfUJNmBwfLUZx+IH614V5YU/Llfp0/Kvtskwq5XWkj5rMq75lTTKeo28G3zNrLKThWj4YnsKoXFndNavLNtnfZgc4Kc8kDpk1ffdJqKKQWSFdxx6ngfiKnkjWaN0VthYEHPHWvVnh413KS0tseRCpyWREmrWzQg7yD/AHSp3c+gx/Kmma4ulxBE0SnjzpcAgd8D1+oqOG6NpHHHcReWVUKH6g4GOv8AjV6O6jkHyuCM4HStqPNNKM52sKVotuKGw2UUceCgc9S7AEk9yTTW0u1Y58iP14GKsA+lOHTmu32NO1rGHPK5S/s2JZMKZI+MjbIw/rSizkX7t1Mnpkhh+o/rU6/vJCw6AY/XrUnOKX1enukP2kiTQdQvtB1aC+hvGLxNkhVVdw7qT7ivpXQdO0nXNMttQVGvBMocNcSM55HIIJ6g+1fMtezfArXDNa3ulyNkxN5sYJH3SeR69a+UzzKaFamqso3aPcyvGTp1PZ9Geg3Wgaasat9gt/vgH90OhOPT3/Sj/hF9JYAmxjH+6CP61fvMG2cHJLfKAB3JAH6kUizSMpCRMrg/xjA6/wCelfBPAYV6+zX3H1ir1FqmeYfGj4ZWHiz4ZeINNjtvLvUga4tWyTmRBvUYz1ONv41rfsm+OH8bfBLQnnbfdaep0+Ylsn918qk+5TYefWu3mtDcRskz70YfMgAAP+frXhH7If8AxS/j74q+DidkNjqYuII++1i6kgem1Y6+iw9Gn/Z1SlBW5Wn+jPErScMZCo/taM+pl6UUCivHPXCiiigBsn3a+d3+8eO9fREn3a+d3++eO9NCY38KKX8KKokPwr0X4P8A3NV+sP8A7PXnX4V6L8H/ALmq/WH/ANnp9GUj0aiiisxhRRRQA2Y7Y3PTj+lcvMzbvLX77dfYetdFflhZzleoQn9K56GMY3HDFuS3b8PYU0Jh5AXBjOx14H/16Y0xOYcbJW/IADqD+VTPIkaMzHjt6/So44AVJkALsfb5fQA+1USSp+7QBc4H59eT+dRf8fTBzzF0HofeoJJjnynbKZw0n4cA1bZhGjnIwOeeABQUiF3a1GRmRDwB3H6dKkt1wu8tndyW/pTYlZm8xwQ2MKM9B/iaWSMxAyI2OMsp6cc5+v0oELJN5IzjnoAO/t9aRYfkPmDcW5b/AAHsKZbyCZvMIKuB8qnqAe/44NSTzFYwAMuThR0zjnFAiF2dJBbhskjIc9QOn51PGixptAwBx7/j75qJrcrDndmVTuz7g5x+WamMiLb+Z/DjP+fegBk0jLhE/wBY/pzgdzSrbqsIj25Hf8utJCpVi7febvx8o7D8KlXLcHjnOaCtSHc1vjOWixjdjJH19sU0fvrjd/AgwMep7/gP51O0gVeeg5J+gJJqtDE8Sb053fMyfX09xQBZaMPlWGRjGKqSB4GB6jGNze3Zvb3q3DKsiBlPOMEd/oR61Hd/6mX6Y/Pj+tBJLDMJFyOD0IPBFO01sag/OMvj8wKptbuPuspHTnII9s56D+tLpcEhv87uBIP4mPYe/wDOgpHW0UUVAwooooA+ef26NSaz+CD2qnAvtRt7dvwJkGPxjX8q9G8F2K6b4N0OzVQogsYIwAOmEAwPyryj9vhN3wi0picBdZhP/kKavYNFuPOsLYxLuiMCkMDxnA4r3pxvlkF3lL8keNTf+3z9EVIyPD+oGEjGn3TZjPQRSE8qfY1rTMGkgAOct256qahurNb2ExXhUqwx5QOB9SfUVi2840+4jsLp9zA5huE6yIAeD/tDivjYXwFTkl8D28j6JpVo8y3R5b8ar9ptY060JwsFqrYHqxIP8q87z1zXZ/GpgPGRKRLs8iPG4YwMHPH1zXEbDgEqhr9ky2KjhY2PzzGNuvK5Bp+GNy+OTMwz9MYFXGUN1/kKoaWXEMoAX/WseSR3+lXN79ML/wB9c/yrsw+sDmq/EDQjaQOPpwPrjpVV9MjZs7cH+9H8p/P/AOtVlZHzynfsc/0pfNx1yPwraVKEt0ZqTj1KNpIyOYZN28cq3dlz1PuDVpnPlsQd3seDzUd5CZoxLEcyx/Mpz19R+I/pRDIt4qMvA/UexrCk3Tk6b+RpP3lzInhYKoXkcZ5qWq8u/wCU7fmXoR/WpIZhIuc/N1x3rqRkSV2XwfvGs/HFouPlmVoz+IyP5VxMjM3yxgE9yegrpPhjGf8AhO9KBLEmU/8AoDVyYyKlQmn2N8O7VYtH0ow8y4RccIu5vqeAP5/pU9MjiSP7ihQeeBjt1p9flkj74Oe1fPnw7X+yf22fGVuhxHfaSsxHq2IDn+dfQe7BFfPWgKZP2578oeI9Ey//AHwgH8xXsYDWnXi9uR/oeVjrJ0n/AHkfVK5xS0CivAPYCiiigBsn3a+d3++eO9fREn3a+d3++eO9NCYn4UUfhRVEiflXo3wf+5qv1h/9nrzn8q9G+D/3NV+sP/s9PoykejUUUVmMKKKKAGyDdGw6cH+VcuY3iYtGcDPKHAB9SPeuqPSuYvElF09uTxn7w7Kfb1wfWmhMgWQXcm4cIn8PB+bPp7VLcMU+SP8A1jdOenHU/l/KmTqkUe5SUcYVcck9MAj0p1vkNibIlY5Ppj0B9Kokcsaqm3qOpz/M+9QhCzZUF4g2Qv07j2qSXE7mIH5By5/kPxqRVVVxkYHHFAHJ/EXxNqvhnw39v0XT/wC1LjzVRoyrNtVjgnaOc546966DTml1CztpLqD7O7Rq0kJYHDkZIz6A5qWZSZNsJ2SFcuenBGMH3+lSxOu3aB5br1Xmt5TTgopa9zPlfO5X+QTqgUuzbHTow5NRQszSb5xiRvujjGB6e/SlC+dJ5jHKA5X39zU0hjMf7zGBycisDbUd1yTz9KpR7vMyqmS3ViUK4Bz+fSlKSNwVZ4eoUnDfjViGZHjwpBPTaw569hQJCNcIjBTuBx1ZTjp64p8ckbj5HDt04INMkkMh8pTg929B/jTxbw/d2KR7j/PNA9Rl0pdVi4+c47fjUqru4PFVFh/0hzGcGPgAkkcgEjH0x0qZLgL8r/Ix49vzoJCSMs29G2Pnr2Psfao5JN6qhGHLKCpPoQSR7cVY42nHJqC6XzJIl5HUgqeeB1/MigCyo7n60ulr/p8nYCTP5KDVdJGhYpJgHgKw6H2PvV7Q4w1xcHqA39AP6UmUtzcXoKKKKkYUUUUAeA/txaR/aXwD1K4Gc6fd21yAO+ZBGf0kP5V03wn1xda8C6DNnPnWEMoJ4+8i5GPUGug+N3hc+M/hR4p0dU8yW4sJfKX1kVSyf+PKteH/ALKfij+2PhPpHz75NOkezkHoFbKj/vllr6fDx9tlkoreMvzX/APAqy9jmCfSSPfpoyxDJHGT0+bj+lYeuK0l9pUDRQ5a48wYJx8qk88dM4/OugV1ZQwOQRnP4VgX8nm+KLSMkfuody8jlmdRgfQD9a+JzPSkovq0fT4Z3k2ux5V8etJdNWsLzYqedCYztJ/hbP8AJq808tdoOW/76PpX0J8YtAOueE5JY1zNZnzl29duCGH5GvlrxvDqcuhpJpbE3MUisUjzkrjBwM9QSDx71+sZJJYjDxpp6nweZx9lWc3sa2mxq0Lnbn52/wDQjV7yU/uj8q8z+Ha63eaqs90skVjCHyXBXLHggZPXP8q9N3D1r3/q7w1oNp+h5Kqqr70U/mM8oAYXI/Gjy3XnzCe3IH50/cPWkDe9BRGcqxyuD13qcfmKoFW0+7LZzBKcnjgN7/WtGb51A7Z5pskMdxCUcAg9e30/GuatTc0nHdGkJcrsxjyF9qnK5547+1SMsbMBjD9Rxg/hVDfJYyBpj5sXQSYJ9uff6VcLecowqnuCGP6HFFKqpOz3FKFlckjUrnJ3d813XwdsGvfGsEgxst42lP6AfzNcGhlRcMQx6ZOc/livbvgjoU1jo9xqbwgvdttQlsfIvfp3JP5Vw5pWVHDS7s7MFSdStHsepClqFJ3Em2SLGRkfNnvj0qbjt0r818j7YNu7Ar58+Ecba/8AtifEDVU5g0+xWzJHTd+6XH/kNv1r3y8uorO1nnmbZFCjSOx6AKMk/gBXhP7FFrLrX/Ce+Np1bfreqkKxHG1Sz8e2Zccelethbwwteo+yX3s8nFfvK9Gmt73+4+ol6UUDpRXhHshRRRQA2T7tfO7/AHz0619ESfdr53f7x6daaExv5UUflRVEh+VejfB/7mq/WH/2evOfyr0b4P8A3NV+sP8A7PT6MpHo1FFFZjCiiigArJ1aMRSLKFADD5m+nc/hWtVbUrdbi1cMM7fnxjJOOcY96aA5yNfNYyk8fwA9fr9TT7iQZ8tVy5+7nPHv+H+FUtH8QWWvadHfWTtJAxZACpVtynBUqRwQQeo7VejjZVLNzI3BPb6D2Gatpp2ZCaauhkP+jYST5lJ/1mOp68++akmbaMJgueFH+e1LKyxq5b7nfPP4VViV4WEhHB428kp3wPakBaSPyVOfvN1PfOP8aglX7U2ASApwW/DoKfJN5m1Y2BY859B60CM2/wB0F16le/Tkj3oK2FSRoflkGD0DDoef0OPekXNxIGz+7H3fc+v6UyZhefIpBi/jP64H508F7fBOWj6cckf/AFqA1JiO34VFNsCZZNxXpg8k+g96k3BgHByOoPX8aiY+ZcY6KnJP+0QcfkM/mKCRkcc0OCCJSRlgeD0659Kk+1RjJPBUZIbg9O1SqNq5981BcKJ5EjPQfM358D8f6UFaj7WP92C3U/MfXk09lUqcjIPXPNRrIbcgOcp03/0NTYAUY69etAakBjeH/VsWTpsP8wf8aYswkuQvTamMHg8np+narHoR0xUHlrNcSlxuCgD3GATkHPvQSTsoZSCMjP5/rWrotqLW3OM5dt3PJ7D8uKybO3aS5RA4dQfmVuq4/wA966VVCqMemKHdaMpWtdC0UUVAwooooAZMgkQqRlW4I9a+NPhfa/8ACrPj5448CSgQWV/KdR05BkLsJLBV+iNt/wC2Zr7NbNfL/wC2L4NvNJ/4R74m6JFnUtAnVLraOXty3y5PoGJH0lNe/k9Ve1lh5PSorfPoeLmlNuEa0d4HtukSCaz2EA7OMH0PSotW0RLyFWt1SG7ibfFJtGMjsfY1zvw/8VWnizR9N1ewk8y0v4ldfVcjkEeoPGPY121eVmGFUm6VQ9DCV+aKnEydLmtdUt3jeCOK4X5JrdlGQcEH8DXz58RPBjeE9ckQRg2cxLwPjjB/hPuP8K+idQ0aG+ZJQWguU+7cRHDj29xXOeJ9Fudc0mXT9TsvtoxmO7tmAZT2YqT1+hrky3NK2Uz5MQrx7r9S8Zgo4yF6fxdj5p0uNGs0JUHkjp7mrnlp/dH5VNqmiXHhOSG3vFbypOYbnYRHICT0Pr65qEN71+rYHE08TRjOnK9z4fEUZ0ZuM1YPLT+6PyoEadkX8hTqT6dK9K5zfIikiXzEwi/kKkEa/wBxfyFNbJmHoBn8zUmeM9qAI2hRv4Fx9BWdLZm3m3W67l+80WcfiDWoWGOoq1oug3viLVEtbGIyyMvJ7KCepPYVyV4Q5eaWnmaU3JyUYkvgvw/L401mC0tC+M5mJ/5ZqDySK+oLHTBptnFbW0nlxRKFVQoxx2x/9euV8K/D2DwvosS2c3kaiQGkuV6OcdGHdfSui03WjJOLS9Rba77DPySY4yp9PrX5jmecc+I9jU0itn0Z9tgMD7Knzx36otLIZmtmIwcsD+A/qQKtj2qlDhUtl6ZcnPPo1XCwXv05rmS5mdZ5F+1P44/4Q34QapFDIUvtV/4l0Cr947+Hx9FDc+4rv/gJ4F/4V38JvDuivF5d3Hbia5HX99Jl3HvhmI+gFeB3af8ADRH7TVnp8JNx4S8Fnz7hgcxy3AbOPfLqo+kbV9fxrtXFezjbYbDU8L1fvP8AQ8nC/wC0YidfotF+oL0paKK8E9kKKKKAGyfdr53f7x6da+iJPu187v8AePTrTQmN/Kij8qKokPyr0b4P/c1X6w/+z151+Nei/B/7mq/WH/2en0ZSPRqKKKzGFFFFABQaKKAOdvNFj0+Rp7WNY42ZnaNAAu5jlmx6k55x3+tQxzhsgNh+hBHI+orppIxIpVhkEYrnNS01lmC5KL18wHt/dq733YrWskQjNxJvOSi8L6HPBP0zT5pPKXGMk8KPemrcC3GyXCBeA3YgDqPfFc7faxLcXDNG5jXkDbwcfX3pSkorUynUjTV2at1dR6SpZXzM5yY+x9/wqlbahf6jdIqyGNM5baAQBnn8azre1lvpgiDLHkt1/E109rpa2kCJGSJByZOM+h49Kzi5Sd+hhGUqrv0HfZ/s6hovXB3sfm9z70Q3BncleEXjDdevX6UMzzMIn+TueeG+lPkjUDfu8tl6MOn0x6VqdhHcf6Nl06MfudAc8YHvUlmyeXjP73qw75PWo4ZAzh5/kJ+6DkDkfzPpViSNJByuSOh7jnsaA1FkkC5yfl71Fb5K73G13OSPywPwFQyRt5ojVvMGNxV89AemanjmV5NrKyP6Hv34NAaj29D0zz/nFQYNvlhzEOcdx9OOn61Yw3WjB60BqAIkQEHOR+lRRL+9nIGSWAI/AUMrw5eMZB5K/gBke/8A9er+k2bSM8zg7C2VHTdwBn6cUX6hYx/Avw9g8I32tah58tzc6rcGd2lP3FPIQc9iT+ldlRRSnOVR80hRioqyCiiipKCiiigAqhrmk2uvaVd6ffRLcWd1E0E0LAEOjDDAj3BNX6RhkU03FqS3CSUlZrQ+Kvh3d3n7O/xWvfhzrkzHQr+f7Tot9NwpDE7Vz7kYOP4gf71fVjTuMFIvMXGflYZ/I/41zPx8+Cdj8aPBrWDuLTWLUtPp19jmKXHQn+63AIHoD2FeXfAH4z30l/L8PvHKtp3jHSz5CPccfbFUDBB7tjB4+8MEV9NXtmdBV4fxI/Ev1/zPn6H/AAn1nQn8Evhf6Hu4uABl0kT6qT+ooMySROUYEY5/+vUnUewqG4thJGShKSAEBh7jofavl6y9ySPfh8SMK18P2HiPwhbWOoWy3NvJFgqwwRz1B9RgdK8A+LHg+X4eyWbWt0i21xIY4ReL8r8AhfM3BVIB6PjPPJr6I8NSySaRFCCiPBmJhgnDAkEHmneIvC1n4s0yWw1eCDULSXhoJogV+oOeCPY1rkmKeGp0pKT5UtUjHMMOqzkranxvpPiLUZtUeC+066toEh3mZrXahO4AMGDsCpBPQ10MNxFOuY3Vx7HNfTXhjwNo3g7S203StGgt7Uvudc7i7YxuZmOScevpUd98P9BvHMj6BaCU8mREQN69cdfqK+yqZ8ozvThofPRyqbiuaWp80MWExCqDx1JPv7VYs7O81BhDbWzXDtxtjVmP6CvfY/h/bWN0klvp1jODyI7qFeMdsgdfwrotHuo8PbJYw2VzCcPACBx2IwvQ1wPiunzezlTcX0vsdEcjlbmcr+h454Z+Curaowl1JY9Ots5KnDSn2Axx+NesaB4WtfDMK2djaQxIVy2TkuQRyxx1Fb3mz44jjx/10P8A8TUUsk7XUR8uPO1h9847e1cOJx9bFfE7LsehQwdLD7LUS3s2VUSSOEgDBbknp9KW80izvoTFNCrq3OV4II9D61Pun6lIx/wM/wCFJ+/44jz/ALx/wrx6lOFWPLNXO+LcX7pz1q0mmzWdvdqktpI+2G5KgMGwQEf3PrXn/wC0h8VF+H3hmPSNGjWfxZrf+j2EEKhnQMdpkxjqCQB6kj3rZ+L3xM0j4Z+B5r3V3jneZitrZRtiW4kB4C88AevauQ/Zv+EOs+JvEDfFXx+jS65eKDplpOv/AB7QkYV9vY4PyjHGSTy3HflWCeBTxOI1pL4V1b7enmedj8T9Yaw9H43v5Luel/s5/CFfhB8PreymVZNbvG+1alOMEtMR90HuFHA/4Ee9er0ijFLXLWrTxFR1Z7s66NKNGChFbBRRRWJuFFFFADZPu187v949OtfREn3a+d3++ee9NCY38qKX8aKokPxr0X4P/c1X6w/+z151+Nei/B/7mq/WH/2en0ZSPRqKKKzGFFFFABRRRQAUyaFZoyrjI/8Arf8A16fRQBwXimzvLWTMnNp/Cy5x14B98Vi29u9zIFUcdWbqAPU16nNCsyFHRXQjBDDIrLOgRWqn7MuwZzs5/Q1DjeV2ckqLlK7MuwtYrS32x/Xd3P1qwzFevFRSW7wyZCFD/EjcA/8A16fFKJOx3D+Enn0rZdkdFrJJaCvGskew/UVT3EkeZ88CnAcd/r7D1qd2MkhjQ4A+8enXsD69alAVYiAMDGB/n6UFakVwfMQR8Fn4x+PJoKvDyp3xgfdPX8D/AI1DCpjBmUZVui99ueMH3qRpBNsRDkH5m69B2PuT/I0EjrcEAyPkF+cfhwPripJIxJle1A4AyKdtK9e5HTNBWpCshg2BzlTwH7fQ1NxtUD1qSO2e4bCoWGMH0rSsdLW1GSd/pnt9P/r0gsV7CwMuHlBCdl/r9K1sUUVIwooooAKKKKACiiigAooooARl3V5B8fP2e9N+MVhFeWsn9keK7EbrLVYsq3ByEcjkrnnI5UnI7g+wUm30rooYiphaiq03Zo561GGIg6dRHyf8OP2gdT8H65/wg/xWgOja1AAkGrSDENymdqszfdwf7+cHvg5r6JjlSaJJI2V42GVZTkEEZ4PpgiqXxL+Evh34raG2ma/YLcRrzDOh2ywN/eR+x/T1BHFfOc3g/wCLH7M7k6GW8e+CVJP2NgTcW6+gUcjj+7kdflWvbdPD5kr02oVOz2fp29GeRGdfAvlqXlDv1R9B6J+8vtVnXAh84IOcDcqgM35/yrTjvIpWwjb+cfKCf1rxj4VftEeB/GEMNk2pNoupncJbPUsRF5CxJw2dp5z0OeOleqzaqjRj7PIvB6LyPYg+9eFh8sxGDh7OtC0mevLG0cQ+anI2KTcOmayYtRjuLMxTOyPt+/yDntzWX5jdckH1zzXZHCt/EZyrqOx08yljER/C2fwwQRVTUNJS+kjlDvb3EfCzR4Dc9Qfb61lrqVx5ezfkY/iHPTHWtiwuFa3RWlV5MZb1/KuTE4FThy1Fc2pYizutCn9h1WH/AFeoxSjri4hGfzU/0pttqE1vqHkakqRyvxDLHny37kAnoc+tbCsrdGXH1BrjPiJ8SvB3gqxkTxJrFtaEjK2+4tOcdCqD5s5715cctr3/ANkbb7b3OmeLpJfvrWO07+9eWfGT4/aF8KbT7KCdV8RzDFtpds2XLHhS5A+UE/ie2a8stfi18SvjcjaP8N9Jm03RyzRv4k1JdjbM468gH/d3Nz2616/8Gf2YdD+GN1/bWoTv4k8VSnfLql6CdjHGfLUk4+pJPv2r6ujhqWDgqmOfvfyLf59jwqmIqYmXs8ItP5n+hwvwf/Z/1zxx4mi+IXxU/wBIvSd+n6G4zHbLnKl0PAIz9z8WJPT6kjUIuBSqu1cUtedisZUxc+ae3RdEduFwsMPGy1b3YUUUVxHaFFFFABRRRQA2T7tfO7/fPPevoiT7tfO7/fPPemhMT8aKPxoqiRM+9ejfB/7mq/WH/wBnrznPvXo3wf8Auar9Yf8A2en0ZSPRqKKKzGFFFFABRRRQAUUUUAFFFFADZIUkGGUN9az7rQ451zG5icfdPJx/9b61pUUwMRNFmiTaNr9+p5//AF/WoJrG5kYoYmCKQWbr+A/SuioouwOfazn8vcImPoFB9cY+lRrpNzy4XEhOScgKfY810lFF2Bkw6S7LlyoPpnNWotMiT7+ZG65PSrlFACBQq4AAHsMCloopAFFFFABRRRQAUUUUAFFFFABRRRQAUUUUAFNePd9MYNOooA8y+JH7Ovgf4orK+r6LFHfuuP7Rs/3NxnGASwHzY7Bga8duv2TfHPgeTf8AD34hyx2in5LDWFYoBjuyhlJznpGK+r6K9WhmmKw65Yyuuz1X4nm1svoVndqz7rQ+PpL79oTwm0keoeDdP8RxRnH2mzlTMo9QokB/8hjp0qsPjx8QLPI1D4Pa9GQfmaKKYqcdT/qf619kMpJzSCPFd6zhP+JQi/vX6nH/AGZNfBWf4Hx0v7QfjO6/49fhH4glfoB5U2P/AEV/Snr49+N/iWP/AIk3wvWxyPlOpOUI+okaPr9K+wvLHdQaXy/bp05pyzin9ihH72/1Estqv4qzt8j5Rtvgt8d/HUcaeIvHNt4XsZBl7XS8tKmeqfIFGP8Atoe9dn4D/Y08CeE5hd6rBN4r1BjuebV3EkYbviMAKQf9vcfevfFGB0xS1w1M2xNSPLB8q7RVjrp5bRg+aXvPzKtnYw2FukEEMcMMY2pHGoVVUdAAB0AH6VZXNLRXkNtu73PTSUVZIKKKKBhRRRQAUUUUAFFFFADZPu187u3znnvX0RJ92vnd/vHnvTQmNz70UZ96KokM+9ejfB/7mq/WH/2evOc+9ejfB/7mq/WH/wBnp9GUj0aiiisxhRRRQAUUUUAFFFFABQx2jNFI33TQBxV58bvh5pviSTw7eeOvDdnr8cghbSrjVrdLoOQCEMRfduII4I7iu2DBulfMfwS8FeH/ABt4u/aO0/xDotjrNjc+M2gmhvbdZQ0Z0yyyDkdOT0rz/wCCHxE8c+JPhj8DPAeleJp9COuR69JN4n8uKe9Ol6bdGC1WBZ0eNpJY5bZvMdW+RGOOcgA+w/E3jHR/BtvZza1fR6fFeX1vp1u8gJEtxO4jijGB1Z2A59aTxb4y0bwJ4cudd1++TTNIt2jWW6lBKqXkWNAcZ6uyjgdxXxN8XPixr2l6T4r8LeJ57/xrefDb4j+FJodRs7FBfapbXD293HD5MShHnUs0f7tVDfJ8oJNWfir8QPF3xM/Yp8S+Nb26t9SfxDqtiY9DjCwQ+G4o9QhT7NITGJZZ1kQLLuH32O0BV+YA+6lO4ZpGbapOCfpXyl8a/iN41s/EmvaVonjXWotZ0HQIb2fS/Bnh63uYILpo5JPMvp7wMoicoNsMbrJsViScg03wT8UfHv7QWveA9N0/xPL4CtJvh7pfjPU7jSLW2nuLq7vXdUhUXMcirCnkSMcLuPmKMigD6Y8K+LtJ8a6W+o6JfR6hZJc3FmZowQBNBK0MqcgHKyRuvT+E1sV8L/CjXvHWn+FfhJ4Q0fxeNDuvEnjnxlZazqlppsDtMIbrUp2eOOUOsTF48r94KSM7wMHuofip4u8L+CfipoeteP5DqvhnxVa6Fp3iabRUub+5juYLSZIktYECS3JNy0abY9pO0lMAigD6uor50/Zy+Ini7Uvix488FeI77XtTstL03TdU0+58UWNpa6iBcNcpIri1VY2TNupU7Q3zMDmvougAooooAKKKKACiiigAooooAKKKKACiiigCvfXsGnWk13dSpb20CNLLNKwVEVRlmYk8AAHk+lcX4f8Aj18NfFmrQaXofxA8L6zqcx2xWen6zbTzOfRURyxP0FWvjN/ySHxwP+oDff8ApO9flX8MPhFr/wAdP2O/h34V8EfA37F4sN2s6fFadrK1SBI7yR2mWVW+0PtUeXtx/DwDhaAP2GzRXxV4F8WfGz4sftUfF3wlp/xOh8N+EPA91ZRpbroNtczXPn2jEIHbG1VdTJltxPA4Gayfgf4k+N/xM/aC8UaJpnxqn8T/AA38JQz6fqniBvDVhbpc6q0TqtvbbFO4wsySFicZQKQVYEgH3WeOa5b4dfFDwt8WvDra74Q1mDXNIW4ktWurcMFEsZAdOQOQcdq+F/gj+1n8U/ix40+EPwsk1oW3j3TNa1iP4kzR2MTFbawlGxNuzaiyhxF5iAfOOPSvFPgF8QPih8B/2S7j4o+GfG1unhXSPG8lpdeDZtLhdL2GW4jSRmuD+8WQmQYCkABc+tAH6cX37Q3w50m48WQ6h4v0zT38JzW9vrbXk3kJYyTkiBHZ8Ll8HGDXS6p498PaLrmhaNf6zZWeqa80i6XaTTost6Y0DyeUucvtXBOOgIr8xvi3461PwBqH7b3iHRxZ/b4da8JhBqFjDexYcupBimRkJAPBKnHB617H+1BrXxbh+N3grwr8N/idHc+M/ELrdadoD+GLCWPw7p/lBLi9lunRnVCVbHGWyyj+EEA+9aK+MfEHjL4z/FL46fFHwF4N+JFr4GsvhloummW9k0i3updav7q0NwryiRSsMQ2sCIx7854858F/tRfFz9oXxb8AtI8P+LbfwAnjXwvqV5q0sGlw3oW4tJp4TLGso4LGAEKWIAf+LFAH6KUV+dvhf9q74i6t+z7YRav8QotK8aR+PbrwidU07w8L/U9XjgKEi0s0Ux+cRJ95l2jC92FezfsJfHHxp8Wl+Juh+NLy71K98IeIG063vtS06OwvpIWUlVuII/kWRSp+6Mc0AfVlFFFABRRRQAUUUUAFFFFADZPu187v94896+iJPu187v8AePPemhMbn3ooz70VRIv4/pXovwf+5qv1h/8AZ686r0X4P/c1X6w/+z0+jKR6NRRRWYwooooAKKKKACiiigAobpRRQB4Prn7HnhXXvGHiXXJvE3jS3tvE1z9q1fQdP8Qz2em3bGJIXDRw7GIaONVOX6DHSuu8bfs/+FPGmg+GtOijuvC8/hcg6BqXhub7FdaSBH5RWBgNoRo/kaNlZGAGVOBXpVFAHkWm/sx+EdP8OwaW8uqX841+18TXWq3t4Zr6+v7eSN4pJ5WHzAeVGu1QqhUAUKKPEH7MfhHxCvjaBpNSstP8YXFre6rp9nchLd7qB0cXKKVOyVzHGHIOHCDI3fNXrtFAHi/xA/ZX8MfEPxdqPiC41jxLo0+sWsdlrlroOsS2UGsRRqyxrcKnJ2qxXKMp2/Kcio7r9k3wk2l+D4NM1bxF4c1Hwto6eH7LWtE1I2t9Np6BQLadwu2RMorcrkNkqVJNe2UUAeT+EP2a/CXgdPBkemf2h5XhLUtS1TTBcXjzN518JxOJHfLyAC5lxubdwuWY80eJv2avCniq18XQ3cupxP4k1e216e7tbxobmzvreGGKCe2kUAxsgt4zznnd2OK9YooA8r+FP7PWjfCfxVrHiW11vxDruu6zZ29nqF9r+pNePOsLyNG2WHyEeay7UCpjHy55PqlFFABRRRQAUUUUAFFFFABRRRQAUUUUAFFFFAGd4k0K38T+H9U0a83/AGPUbWW0mMbbW2SIUbBxwcE9q5j4M/CPRPgX8NNG8DeHTcyaJpKPHbNeyCSYh5HkO5goydzt0HSu4ooA8r0X9nXw34f8TfE3X7G81S31X4hLGurTx3QQxGOFoVa3IXMbBXJBJPIBrgvg3+wv4T+BOraRe+F/Gfj9LPTJnnh0S58RO2muzht2+3VArAlix464NfSNFAHyV+yX8B/Emm/Gz4sfGvxx4ItPAGv+MZLe2svD8Oox38lnCqL9pdp4xsYzypHJwAQVNW9D/wCCbvwp0FtJhS88U3mkWGpNrMmgXmtSPpt5eFsrPPbgKhZMKoKhcquG3V9VdKKAPn/xj+xN8P8Ax1D8T49Ul1fHxEutPu9a8i7VMSWTEwiH938g55znPtWP4s/YL8HeKPiZrPj6Lxj4+8P+JdWjSK6n0HxA1kpjREVIxtTcEARPlJI4r6YooA+eviV+w/4B+J2rWmrXeqeKdG1n+y49E1LVNE1qS1uNZskUDyb1gCJgwUbiRk9CeBjpdF/ZZ8CeGfHXgfxTotjNpVz4M0mXRdIsraXFrHbSBg4ZCCzMSzHcWyScnJya9gooA+b7z9gv4b3PhNtFhufEGnzx+I7jxXZaxY6kYL+wv5wokeGVVGFIRflIPQdwDXbfAv8AZn8Lfs833iq68MXWsXL+JrmO91A6xfteM86BgZd7jeXcszMWY5J7dK9aooAKKKKACiiigAooooAKKKKAGyfdr53f/WHnv6V9ESfdr53f75+tNCYn4/pRRRVEhXovwf8Auar9Yf8A2evOq9F+D/3NV+sP/s9PoykejUUUVmMKKKKACiiigAooooAKKKKACiiigAooooAKKKKACiiigAooooAKKKKACiiigAooooAKKKKACiiigAooooAKKKKACiiigAooooAKKKKACiiigAooooAKKKKACiiigAooooAKKKKAGyfdr53f75+tfREn3a+d3++frTQmJRRRVEifnXo3wf8Auar9Yf8A2evOfzr0b4P/AHNV+sP/ALPT6MpHo1FFFZjCiiigAooooAKKKKACiiigAooooAKKKKACiiigAooooAKKKKACiiigAooooAKKKKACiiigAooooAKKKKACiiigAooooAKKKKACiiigAooooAKKKKACiiigAooooAKKKKACiiigBsn3a+d3b5z1619ESfdr53f7x69aaExv50UfnRVEh+dejfB/7mq/WH/2evOfzr0b4P8A3NV+sP8A7PT6MpHo1FFFZjCiiigAooooAKKKKACmTsRC5BwQpIP0FPqO5/1Mn+6f5UAfnT+ysf2jP2ovhxrnjG2/aKufC8lnrd3pcGnP4VsLuM+UqMpZ8KcHzNuNvbvXtv7Jn7WF/wCMvhH471L4s3Wl6Rqvw91i50fXNat22Wk6wgEXAGOCxyu1epC4A3ba+Yf2Af2Z9W+MHwd8Rata/GHx/wCBrP8A4Si/tG0nwvqS21sxCREyEbT87BgCQf4RXf8A7cX7MFn8D/8Agn/rHhT4aQXp0yz1a21jXpZXM91qMYbbLNOwHJV/Ic4AAWLsBQB9D/DH9vD4QfFjxlYeF9H1y8tNV1IsdMGradPZx6iB3geRAGzg4BwT2BNaPxh/bO+FvwT8YweEvEmsXT+IZIRcS2Ol2E169tCekkojU7VwM884wcYr5d/bf+Jngj43eHfgP4Z+D3iTRdf8YyeMtPutGt9Eljlm0+1SGUOzqg3QIjNASrbeIycfIcbvwe8feE/g3+3R+0h/wsnWtN8M6rrB0+80fUNcnjtUnsRE2UikkIBxmIbQeTG3904AOh/YL+OCa94G+OvjXxR40uNT8Lab431Ka11TVb2SaG208JG8YjMhOyIK2QigdemTXqXw1/bz+D/xV8aad4X0bW72DVNUz/ZZ1PTZ7SHUcZz5EkihWJA4BwT0GTX59Q2t348/YP8A2oLzwQTdaRL8SJtT2WcZUTaaJLeTKrgEIqlJDkcKhr7T8RfHf9nLx1N8F9HjfT/HWrS6nZP4X07w86z3OkTqFKTSxxurQJGFBbeOApyp2nABveM/+CivwW8A+Itb0XW9W1i2vdHu5rG8ZdCu2iSSKQo4DiPaRuUjcDg9q7DVf2wvhdovwh0L4k32uyW3hrXX8rSt1nN9qvZA7qEjtwhkJJRj93GMHoRn5Z/aN+N/hT9pb49J8EdR8d6P4M+FnhW4Fx411DVdWhsH1a6jcgadD5jKWVHX52A4YMeCib+s/ay+Mvh7w/efATSvA954F03Qdbvbm10v4kX1pb6jp/h2K38pP9EbPlKxYBdxcKPKx2ygB9E/BX9qLwB8fLrV7HwrqF0NZ0kKb7R9Us5bK8gVvus0cig7TxyPUZ6iuFuv+CiHwPs/EEmnSeJbr7FHenT5NfXTLg6UlwDgobrZs4P8WdvfOOa+av2dvE8Oof8ABR7x3dj4gQ/Ft4fh9JHca1pNnbxC4ZJ7UmGNYP3cjKuFDAnrjPFebXHj/wAP/BX9ni/vvh38TvBvxH+E63/mN8IfiLp0A1RA12A6KofzHZZCJBvTAAL9uQD9b1mRoVkVlKMMqwOQcjIIPvXk/gP9qb4e/Er4Q658TNA1Se68IaKLg3l21pKjoII1klIQruOFYdBzzivQPBd5HfeC9BuotIl0CKewt5E0maMRPZK0SkQMoACsnCkDgbcV+Wn7L/xS8I/C/wD4J4/GjwH4p8SaXoXjOOfW7FtAvrtI74zPaxwqiwk73JkUr8qnBVs9KAPsf40ftk/Dq3+EelXdr4w1rw1/wm2lTXGh69pugz3ssCjCeaY9nDAkYDY79KpfC/8Abu+FDfCjV9Un8Zav4lTwPYWUXiDWrnQp7eaSSRxAsrRbPvPICSq/dyc8c14lZftWR/s8/sDfBrQtCvLGP4h+KtJjsdF+3XCQwWQaRke9ndztSOPcOWIBOM8Bq9j/AGcfhD8IX+Anif4UeH/H/h/x7rfiCwuZPFeraVqkF7d3lxcxmOS4cI7MFDP8m7pgfxEkgHs3jT9pDwN4F8NeCde1HU5JdP8AGd1a2egmxt5J3vpLmPfAFVQThlxz0yQO4qrp37Uvw91P4f8AjfxlHq0sWh+DL250/W3ntpI5LW4gx5ibCu5jlgBgck8Zr8+/2M4vEnxq+Pnwt8AeL7R3g/Z9stUhv5rgb1fUPtbQW0QYcfukSDZnn/RnI6Vr/GLwdfWf7YHjT4AWtnJ/wjfxf8RaJ4nnMTELHYwiabU8f7ckkBP0XmgD7z1X9pr4f6R4X+H3iCbVpJNO8eXdrY6AYLeSR7qW4XdGCgXKjGMlh8uea5T4m/tzfCX4T+LtR8N6vq9/e6nparJqg0fTJ72PTVYZBuHjQqhx1BOR6Zr43/Zz8NarrX7WXgv4LanbzPpPwLvte1OKacErNbzSxmwYk/xDzkYZ7AYrW1z42L4k8VftE2knxD8F/AfTNHvrzTp9Cj0KzfU/EexJFNxO0xDTNISwAjVj859twB9seNP2qvhl4B+Hfhbx3q3iWFPCPia7hstN1aCN5YXklR3UsQuUUCN8swG3ac4NYXwp/bW+Ffxm8fN4M8N6xef8JC0DXVta6jp09p9siUbi8JkQbhtG7HXAJAwDj8/oYob7/gnH+yjb3Ea3ED/E+KKSN8EMpvdTG0+xBP519XftGwRwf8FCv2WZI0VJHt9ejZ1GCVFmcKT6Dc3H+0aAO7+A/wAX9E0/QPjB4h174rzeLNE8PeJr2K7utW0waemhrHjNmp/5bKmQA4HzEgAVd+Gv7dXwl+KnjPTPC+k6tf2Wp6srPpR1fTLiyi1JVBJNu8iBX4Hrz2r468E/EJfhb+zT+114jbwvp3jD7L8TL9RpesWoubIs9zAiyTRn7yIWD9uQvI61zfxa8XnXfix+ynFdfG3w/wDE+8Xxfpk66R4d02ztYNHja4thsUwEsq/dQJIQf3ecDHAB+s11cx2cMk00iwxRqXeSRgqqoBJJPoADn6Gvm/S/+Ch/wR1bxJZ6XF4ju47S8vPsFtrtxplxFpc9wSQEW5ZNnUfeJx717B8avECeFfhD441qTRl8Rxafod9dvo8i7kvhHbuxgYbTlXAKng8MeDX5J/Hr4n/8Jp+xPpN3dfF3wfF/ad7BPa/Crwto1narpeJ2ZkG0meMoNzFmCgliPm3AsAfpr8XP2wvhl8D/ABnH4U8W6vc2fiCbTl1O3srexnuHuI2laNVj8tDucsjfKOcDPSueuP2oPBvx4/Z1+Kev/DrxBcfb9F0LUFnTZLaX2nzi1laNipAZGyp2sO6nByK8P+Jnjrwv4B/4KdfDzVvFus6foWnP8O/Jiv8AVJlihSZ5rnbmRjtQkBhuJHXHeuP8P6xpnxA+Pn7Z3i/wTdW9/wCBn8DNaTahYEG1ur4WOCyMvyuQY58sDyWJ53ZIB2fwl+KuqN+yZ+zVquu/FnWvDGq634jjtZruSzfVZ9cY3VwosppHO6NXCj94xIG0cHius+GvxQv9I/bw/aNt/Enim6g8GeH9F029jttQvn+w2C/ZoXkdI2bZHnLEkAZ5r5vtv+TNf2JP+yh2f/pZc1zn7S3wd8dfGT9sX9o208G3EVxBpGn6Tq2o+HXaRTrccVtastsCmDgje23PLKgAzyoB+j+k/tZfDbVPg3c/FSTWZtM8CQu0a6rqVnNbichgv7pGXfJlvlG1Tkg4zg4ofCP9sv4ZfGjxcfC2hajf2XiNrb7ZBputabNYzXUA58yISqN4xzwc4BOMCvnf43ftWeFNe/Ym8FeMvBvhbw3cadfatY6ILPxBp6XVj4ZuArB3kgxgGEKQnTh1PIOD55b+IRrX/BRL9n9JPjJpPxjv4LHUlmvtIsbS3hsw1ncbY82xKtuO5trMSv40AfXPxS/bs+Efwh8ZX3hfW9avLnV9NRX1OPSdOnvE05WAIM7xqVTgg4zkd6ofGH4waLqmvfArV9C+LE/hzRPEutxrZ22maWL6HxGjhNtu8nBgXLY3EcbmyMqMeDfsi/ErwJ8Fbj9pDQvixrejeHPFh8balfajBrsqW0uoWMsamNo45PmmRh5rKEDZEy4B3jOF8ULzwVqGnfsVXXw50C98MeCbjx0ZtM0y/RklSNrpGL7WdyFdi0i/Mcq6njNAH1Z8LfGCat+1B8WdCX4j32vnSoNPDeD5tJ8iDRd8QYMlz/y2MgO44HGTnNe+V8X/ALOP/KRj9qH/AK9NE/8ASVK+0KACiiigAooooAKKKKACiiigBsn3a+d3+8evWvoiT7tfO7/ePXrTQmN/Oij86KokPzr0b4P/AHNV+sP/ALPXnVei/B/7mq/WH/2en0ZSPRqKKKzGFFFFABRRRQAUUUUAFIy7lI9eOmaWigDB8JeA/DngHT5dP8M6Dpnh2wlma5e10qzjto2lbG6QqigFiAMsRk4rauIUuoJIZFWSKQbXR1DKynggjoQRn86kooA4bwb8Dfh58O9an1fwv4G8OeHdUnBWS80rSbe2mZTyyl0QNgnnGas+N/g/4G+Jd5ZXPi3wdoPie4sv+PeXWNNhumiGc4QyKdoJ9K7CigDn9A+H/hvwlb6nFoegaVo0eqXD3V+thYxQrdzPw8koVRvdgBlm5OKxvCfwN+Hnw/1ufWfDHgXw34e1e4BEt/pekwW07AnJBdFDYPfmu5ooA8y1T9mH4O63qd3qWp/CnwTqOo3kz3FzeXfh2zlmnldizyO5jyzMxJLE8k81sXXwT8AX3g2DwfceCPDsvhC3YyQaC2lQfYomLFiyw7dgJZmbIHVieua7WigDjvDfwb8B+D9UtNT0HwZ4f0TUbS1Njb3en6XBBNDblixiV1UMELEnaDjJPFZ837PfwxuPFf8Awk8nw98LSeJPN8/+1n0a3Nz5mf8AWeZs3bv9rOa9BooAbtO0DJyO9cFqHwB+GereJLrxFefD7wvd6/eI8dxqc+j273EoZSrB3Kbm3KSpyeRx0rv6KAPPtW/Z5+FviCx0ux1X4b+EdTstKh+zWFteaHayx2kRO7y4lZCEXJ+6oArMuPhDoXwk8O6/q/wi+HHhDSPGElmyW8Vpp8OnJdsOVilliRTs3AHr2FeqUUAfPH7H/wAB/EvwptPHPi3x/cabc/EXx7rLavq/9kKwtraNciC1QtywjDSHP+2Rltu9va7rwP4fvfFVn4muNE02fxHZwta2+sS2kbXcMLZ3RpKRuVTk5UHBya3KKAMSw8E6BpfiTUfEdpomnW/iHUY44r3VobSNLq5SMYRJJQNzKoAADHjArC1j4I/D7xF4tt/FWreCPDup+JoNvl6xeaVBLdLtGFIkK7sjtzxXcUUAcWvwX8BR+HdL8PxeCvDkWgaXd/2hYaWmkQC2tLoFiJ4o9m1JAXch1APzNzWxqXgXw/rHiHStevtD0291zSRINO1O5tI5Lqz8xdsnlSkFk3Dg7TyBityigDmtL+GvhTQ7PWLLTvDWkWFnrU8l1qlva2MUaX00gxJJOoXEjOMAls571z+j/s4/Crw+lsmmfDXwjYJbXkeoQrb6HbJ5d1Hny51wnyyJk7WHIycV6LRQAjoJFKsMg9Qen0Nebf8ADNPwlH9p4+GPg7GqEfbl/sG1IusOHAkHl/MA4Dc9wK9KooA+W/G37Kc3jb9sPRPH2p6T4f1T4b2vg0+HJtHv0EpaXzpXVRbtGU8sK64yeMcCvfPD3wt8H+E/Ctx4Z0Xwtouk+HbhXWfSbLT4obWVXGHDxKu1tw4ORyPWuoooA5D/AIVB4G/sfQ9IHg7QBpWg3K3mk2P9mQeRp86sWWWBNm2JwzEhkwckmtHT/AnhzSfEupeI7HQdMsvEOpokd/q9vZxpdXSoAEWWUDc4UAAbicAD0reooA4y3+DHgO00fW9Kt/Bfh+HS9clM+q2MWlQLBqEhOS86bNsrZ7sDVPQvgD8NPC82ly6N8P8AwxpculSyT6fJZ6PbxPaSSBVkeJguUZgqgspBIUeld/RQBw3jT4H/AA8+IWqQat4o8C+HfEmqW64hvNV0uC5mUA5Ch3QnAPbNeAfGn4FfE/40/tMfDK5Nr4f0T4UeANVh1q0vEuGa+vJFSJjD5WNqgOhUdBtOck8V9cUUAYWm+BfDuj+JNT8Q2OhabZa/qiol/qlvZxpdXaoAEEsoXdIFAAG4nGK3aKKACiiigAooooAKKKKACiiigBsn3a+d3Hznr1r6Ik+7Xzu/3z9aaExv50UtFUSFei/B/wC5qv1h/wDZ686r0X4P/c1X6w/+z0+jKR6NRRRWYwooooAKKKKACiiigAooooAKKKKACiiigAooooAKKKKACiiigAooooAKKKKACiiigAooooAKKKKACiiigAooooAKKKKACiiigAooooAKKKKACiiigAooooAKKKKACiiigAooooAbJ92vnd/vn619ESfdr53f75+tNCYlFFFUSH4frXovwf8Auar9Yf8A2evOfwr0b4P/AHNV+sP/ALPT6MpHo1FFFZjCiiigAooooAKKKKACiiigAooooAKKKKACiiigAorj/Hvxg8DfCxrJfGPjHQfCjXu82o1rUobTz9m3fs8xhu270zj+8PWuVj/a4+Cc0iJH8XPAzuxAVV8RWhJJOBgeZ60AetUUitnrjPpmuJ1v4zeEfDvxO8P/AA91DVhB4v16GW503TfIkYzxxKzO28LsXaqN95geOlAHb0Vx/wAOfi54V+LCa+/hXVRqqaFqk2i6iwgli8i8h2+ZERIoyV3L8y5HPWuw3D1oAKKKRmVASxAXuScUALRSBgwyCCKXNABRRuHrRmgAooozQAUUUbh60AFFFFABRRmjcPWgAooooAKKKKACiiigAooooAKKKKACiiigAooooAKKKKAGyfdr52fPmHjvX0TJ92vnd/vHjvTQmJ+H60Un4UVRIfhXo3wf+5qv1h/9nrzn8K9G+D/3NV+sP/s9PoykejUUUVmMKKKKACiiigAooooAKKKKACiiigAooooAKKKKAOS8dfCfwV8Svsj+LfCWieJ3s9wtm1jTobswbyu/Z5inbu2rnHXaK+Hv+CdHwP8Ah/4y8G/Fe61rwP4b1a8sPHmo2llPqGkQTtbRIsWyNCyZVVJOFBwMmv0Nb7tfLv7Bfwe8X/Bvwn8SrPxlo7aLcat40v8AVrNWnim821kWMJJmN2AB2nhjnjkUAecaP+3Z4o0T9mT40eJPGNlpFt8Sfh7rU2hGxtoZEtZZndY7Z9hkLbSxfIDciM9Kx9XvvEmq/t4/spX/AIwitrfxTd+D9Qn1KCzjZIYrh7S5Z0VSxOFJK8k9K5T9oT4Av4r/AOCjvhfw1ptyh8LeMhYeLvE2mIqsGbTfORDIuPuSAheerSsTzX0T8Uvg34v8Rft3fBr4g6dpDXPhLw/pGpWup6l50SiCSWGdY12F97ZLryqnrzQB8v8AwR/aZu/g9Y/F3wT4H0uPxR8XfFnxZ1uPQtEkyY40/ch7u4wRthUK/ORnY3QKxH058dPj98SPhbH8LPhvoNroPiP4z+OHkiF1NDNDpNosKB7icoGMhRQ3A3ZwjH/Zr5+0v/gn74n1Pw98XPGUelS+EfjLF49vfEXg3WFu4nM9qjCSCJtrsqpKzy53bTnZu+UYr1X4rfDz4x+OJPgj8cdK8DQW3xT8D/aYtX8D3OoQol5FOnkz+RcB3jUkbiu5jgSc5ZcEA6b4TftAfEzwr+0Vb/Bf4yWnh241bWdLfVtA17wysscF0se4yQyRynIdQjtx2T3BrM/4KlnxdD+yX4nuNBvNNtNDiNudaW6SX7U8ZvLYQi2ZW2q3mEbt4OVJ6VF8N/hr8UPjT+1hovxo+I3gpPhvpXhLR5tN0PQ5dSivrq4nmWRJJneL5QoSRxg4Odvua9Y/bS+E+ufHH9l/x14J8NrE+u6nbQtaRTNsWR4biKfy93QFhEVBPGWGSBzQB8+2nx6+LH7O/wALf2cNR8Wy+FtQ8GeIr2z0TVryzhnR7O0ntofschZn/wBYqLO0hIwdi4xk12vir9qXxq3xm+O+ieG7PS38I/DDwbLqU95cW8kksurtbNPDCWEgHl7Q2VC5zEw3DNYvjrwN4i+Kf/BOXxH4a+InhU/DvXPDugjyYrrUIpwZNOt45I7nzE+WNJHiZSpOQpbmsD9kP4P+JNU/YP8AiLrd5HJqvxB+K2n6xqsnnbYpbiS4glitlLMQArjEgJwB5/pQBzGpfthftI6J+zf4e+P15pfgCTwUxgN7osAuhfTxvP5JlDltkZZ+igttBB+bkV2+rftMfHr4V/En4TXnxD0rwa/gb4jarBpUOnaJ9oa+0uScoIg8jELIyhwW2qQdrAY4NUvGH7N/xG1P/gl7p3wotfDby+P4rW1jfR/tUAYMl+JWHmF/LyEBPD/4V3f7U3wT8bfEI/s3nw/obah/wifi3S9T1nbcQx/ZLeHy/Mc73G/G08Jk8UAe/wDxw8ZX3w6+DHjzxXpaQyanoWg32p2qXClojLDbvIgcAgldyjOCO/SvmT4A/Hb9pH4kfCa5+J2peD/CmqaRe6F5ugeH9JuWgvLy9EyIJZXmfy44SolYrv3AKO9fSX7QfhjVPGvwG+Ivh3RbT7bq+reHdQsLS2DqhlmltpERNzEKMswGSQOa+cLz9nb4k6r/AME17D4UadG3h/4gx6NDbyWjXSLlkuRJJbmaNiuJIwy5DbfmAJxmgDl9J/bD+Kfw7+Knwz0X4gaz8NvFeneNNSj0i60zwbcu19oVzKyqgk/esHVWcAnH8LY7Z6b9rT4yftCfs96X4l8a2+tfC228CW9wsWk2eow38mqXLOMJCFT5GlYhujYwCTgA14rf/s//ABR8YeI/gXPpH7NOk/DLTPBPiLT7vVbiy1Wwlu7xI5IzJJ8pUmNQjMQzM7M4xnBJ7f43eFvjt4w/a0s/F9/8Ebnx/wDD3wa7DwvpCeJbGxt5bn5T9vlV2ZmbIyqlQV2R+h3AHeePf2sPiN8Gf2Z/h9q/jLQ9Cj+MXjbUE02y0maRrWws2ldiklwXfKrHGY/MBcYd8EgDIh+D37VfjzT/AI/6J8LviNq/gPxaPE2nT3ek654EuGeOG4hUu9vOjOcZVWIbj+Hrk7af7S/wX+Iv7V3wi8GeKrv4aaf4a+Ifg3Xv7Rt/BOu6nDf2uo2gK+ZBJNHiPEuxDg44QjIzmrn7Pfwx1ab4qadqs37Kvg/4OaXp1rM0msG7tbnUWumTaotfIT5UALht/UMMEYwQDynwh+15+018Q/2bdZ+Muk2Hw8tND8OS3LXlncQ3Zub6OFgZCi79qBVPdyW2seOBWx42/bO+PHgL4YeDPjtrGgeDYPhZrt1arJ4dtXnm1WK1mVmWUznbGXYKSABgblBHXG58Cf2b/iN4R/4J2/EL4a6v4bez8a6pHqy2elm7t3MvnKBH+8WQxjcc9WqL9oH9m34keNP+Cc3w/wDhjo/hqS88b6XBpSXWlLdQIYmhiKyAyNIIztJ7N6YzQB95xMWQE/XoR+lOpsedvIx/+qnUAFFFFABRRRQAUUUUAFFFFABRRRQAUUUUAFFFFADZPu187v8AePHevoiT7tfO7/ePHemhMb+FFH4UVRIfhXo3wf8Auar9Yf8A2evOvwr0X4P/AHNV+sP/ALPT6MpHo1FFFZjCiiigAooooAKKKKACiiigAooooAKKKKACiiigAoIzRRQB5H8JP2XfAvwZ8Y+JfFmiwahf+KPEDsbvV9YvXup1hL7/ALPGW4SIEA4A5wuSdox64OAB1oooAKKKKACiiigDy748fs4eEv2jtL0jS/Gb6rNpGn3X2ptPsL57aG86fu5wvLpwDgEEEZBFei6TpNloOl2mm6dax2dhZwpb29tCoVIo0UKiKOyhQAAPSrlFABRRRQAUUUUAFFFFABRRRQAUUUUAFFFFABRRRQAUUUUAFFFFABRRRQAUUUUAFFFFABRRRQA2T7tfO7j5zx3r6Ik+7Xzu/wB88d6aExv4UUv4UVRIfhXovwf+5qv1h/8AZ686/CvRfg/9zVfrD/7PT6MpHo1FFFZjCiiigAooooAKKKKACiiigAooooAKKKKACiiigAooooAKKKKACiiigAooooAKKKKACiiigAooooAKKKKACiiigAooooAKKKKACiiigAooooAKKKKACiiigAooooAKKKKACiiigBsn3a+d3++eO9fREn3a+d3++eO9NCYn4UUfhRVEiflXo3wf+5qv1h/9nrzn8q9G+D/3NV+sP/s9PoykejUUUVmMKKKKACiiigAooooAKKKKACiiigAooooAKKKKACiiigAoqtqd0bHTrm5Vd/kRNJtzjO0E4zj29K+bf2Lv23tF/bB8P63LBpX/AAi/iHR5lFzorXYuSYHH7uZJPLTcCQykbRgqPUEgH03RXzd4C/aw1j4mXvx50vw/4HFzrvw11CXTbKyOqKBrEqmcJ8zRqIdxg7lvvda9t8A69q2veCNE1bxHpI8N6zdWUc99pRuFnFnKygvH5gG1tpzyPSgDpKKit7uG7QPBKkyf3o2BH50slxFF9+RU/wB44oAkoqNLqGRsJKrn0VgTTWvrdbgQGeMTkZERYbj7gdf0oAmoqJ7qGNsPKiHGcMwBxQt5A+NsqHJ2j5h1xnH1x/KgCWiozcRKwUyLkjIGe3r+dC3EbEgOGI4IHJH1oAkoqGG+trhnEM8cpQ4YRsG2+x56/WvB/gf+0HrfxQ/aC+N3gLUdPsbTTPAlzp8NjcW4fzphcRysxlJYrkGMY2gdTQB79RUC31vJM8KzxtMgy0asCw9yK4SDxp4wb43T+F38HhPA6aOL1PFf2+PLXZkCm2+z43Y25bdnsaAPQqKKKACiiigAooooAKKKKACiiigAooooAKKKKACiiigAooooAbJ92vnd/vHp1r6Ik+7Xzu/3j0600Jjfyoo/KiqJD8q9G+D/ANzVfrD/AOz15z+VejfB/wC5qv1h/wDZ6fRlI9GooorMYUUUUAFFFFABRRRQAUUUUAFFFFABRRRQAUUUUAFFFFAGf4i/5AGqf9esv/oBr8i/2evBWs/CD9l/4V/tM+BbGS71bwxcahZ+LNLtgQdV0Vr2XzCf9uLOdxBwArHiLFfr7fWovrGe2ZiqTRtGxXGcMCDj35rzL4D/ALPHh74BfB6y+G+lzXOt6Bb/AGkMdYEUrSrPI8jq4VApGXZcbehoA/PX4Q+LdN8d/Cn9v3xPolz9r0jV3uL6yuMFS8UiXro2CMgkMDgjNSfGDxTrmrfCP9jz4aRaVqviPwx4i8Px3mq+HdHvRaT6z5FtEUtzKWUBPmYkZ5yMcgV9dfDf/gn/AOAvhX8Pfip4L0HVNcj0T4gxG3u0mmjd7KPbKoSBjH0USn7+4nAzmt7xt+xb4L8cfCDwN4Gub3WLK48Ewwx6D4m0+5SHU7J4kVRIsgXblgi5G3HAIwQCADwn9jv4e+Nvhx+0xrMuifCrxB8KvhFrOif6Romq6kl5DFqUcg2yx4kZl3JkY9z2xj6C/a+8C/BrxH8L5/Evxp0xdR8N+F1kvY/9NuLZhIwC7EEMiF3c7VCk8kgVa+CP7M//AAqTxVqHibVviB4w+IPiG8tRYi88SakXiggDBtkcKALksM5YE8HGMtmH9qb9lHRv2rdG0LSPEHiTX9C03SblrxYNFmiRbiUhQjSCSNwSgDbcf32oA+Wv2Mf2fj8Gfh/8Rv2ik8Lf8I5qOq6Je3fhrwdHcTz/ANn6akZmjWRpWZ3lmMMZyT07LvKr86eA/h34q+MvwG/4TOw+EHjXxX8WtZuZdSs/inb6/Gm24W4YKI4vMXbGoRoypXrux/Dj9LfhT+zHf/DPxZ/bN78XfiH45tjbyW7aP4o1WO5smDgDcUEa/MAPXuetedD/AIJ0aBpc2p6X4b+JfxA8J+AtTuHuLvwdpGrLFY/PjfFGdhZI2AIIyTg4zQB5f+1x4J+HEnwl8F+Lvid8Oj4r/aC8TaVZaNpuiDUruGW41DylDBo4J1Xy45HJYj1Vc/MKxfiB+xRP8Bf+Cdes2dldST/EHQ7y38cXF9BKxSG9gKiQR9fkitzIBkckFu/H0L8WP2D9E+KXxQ0bx2vxB8ceF9a0bTo9M01tE1JF+yRohUlHljeQMwY7mLZJJzXoPw5/Z6HgrwX4n8Na9468XfEiw1+Jre4Pi2/W5kjheNo3jjKqu0MrHNAHwxrHxuvvH/7Vnhv9pLSpSPhf4c1HRfBDyrkReRqFlLLdTTtnaDbzXcSnIxkx+langHVvDf8Awxx8Zfi/4x1vxJ4Xsfih4turyG68Oug1aWz+0mK2s4iwKglhMp5+4zc19R+Gf2GvAfhr9mPWPgbDJqEvhnVXknu9QkaL7bLO0qSLMWCBN6GOJRlcYiXOa2vEH7IXgnxT+zbp3wU1BLz/AIRjTrSC3tbuGVUu45YsFbgMF2+YXyx+XB3sMYoA+IfD3hiX4JftWfs9z+F/hLqnwWs/EN1caZex3WvpfHW4PLTHnxK7bJE37vm7sv8Adr1D4W69pvhn9oP9ujU9Y1q78N6XbQ6c9xq+nkfabRBa3eZYcgjzV6rwfmA4r1XR/wBgHTbfx14K8Z698T/Hni/xJ4Tvlu7G41rUIpkEYK/uNhj4VgvLKdxz14GO5sP2RfB0PiL4x6pfzahqsfxSihg1qyunjEMaRxyRgQbVDKcSMcljghSMYoA/NX4o6Tb/AAv+Fvw7+KPw6+F3irwVOdes7mx+JWu+IIptR1iOZXcfabVXPE2Ff7uMADo3P2nas3/D168XPA+GG7Hv9uUZ+tQan/wTE8OeIvCdh4Z134q/ETWPD+jvGdF0651KBodPWMkIEQw7SQpKjI4UkDFZnwe8Sp8Yv+Cj3ivxx4c03VJPCeheCz4butXu7GS3ha/W8RmiQuo3EDd/3wx6EZAPuWiiigAooooAKKKKACiiigAooooAKKKKACiiigAooooAKKKKAGyfdr53f7x6da+iJPu187v949OtNCY38qKPyoqiQ/KvRfg+fl1X6xf+z153+Nd38JbhE1C+tyRmRFYD/dJB/wDQhT6MpHqFFFFZjCiiigAooooAKKKKACiiigAooooAKKKKACiiigAooooAKKKKACiiigAooooAKKKKACiiigAooooAKKKKACk2D0/yTS0UAFFFFABRRRQAUUUUAFFFFABRRRQAUUUUAFFFFABRRRQAUUUUAJIpZcCvnZ/vnp1r6B1K6Wx0+5uXOFhjaQ/gpP8ASvnznvimhMPyopfxoqiQ/Gr+gas2h6xbXq8iNsOo7qeGH5fyFUPxo/GgD6GtbqO8gjmhcSRSKGVh0II4NS15F4H8cNoLizvWL2DHKsMkwk8k/wC7XrNvcx3UKSwuJY2GVdTkH6GpLJKKKKQBRRRQAUUUUAFFFFABRRRQAUUUUAFFFFABRRRQAUUUUAFFFFABRRRQAUUUUAFFFFABRRRQAUUUUAFFFFABRRRQAUUUUAFFFFABRRRQAUUUUAFFFFABRRRQAUUUUAFFFc/4q8Y2vhu3KnE94w+SAH24LegoAxfih4gFrp6abEw864O6QZ5CA5x+JH5A15avyqBnpxVm+vp9Su5Lq5k8yeQ5Zj/Iew4qv+NWIPxoo/GigkTPvRn3oz70Z96AD6n9K0tH8R6hoMm6zuSifxRMNyH6rWbn3oz70AehWfxclChbrTkfjBeGUg/UAj+taC/FbTccwXn/AHyh/XdXlufejPvRp1Kuep/8LY0z/nhef98J/wDFUf8AC2NM/wCeF5/3wn/xVeWZ96M+9FkFz1P/AIWxpn/PC8/74T/4qj/hbGmf88Lz/vhP/iq8sz70Z96LILnqf/C2NM/54Xn/AHwn/wAVR/wtjTP+eF5/3wn/AMVXlmfejPvRZBc9T/4Wxpn/ADwvP++E/wDiqP8AhbGmf88Lz/vhP/iq8sz70Z96LILnqf8AwtjTP+eF5/3wn/xVH/C2NM/54Xn/AHwn/wAVXlmfejPvRZBc9T/4Wxpn/PC8/wC+E/8AiqP+FsaZ/wA8Lz/vhP8A4qvLM+9GfeiyC56n/wALY0z/AJ4Xn/fCf/FUf8LY0z/nhef98J/8VXlmfejPvRZBc9T/AOFsaZ/zwvP++E/+Ko/4Wxpn/PC8/wC+E/8Aiq8sz70Z96LILnqf/C2NM/54Xn/fCf8AxVH/AAtjTP8Anhef98J/8VXlmfejPvRZBc9T/wCFsaZ/zwvP++E/+Ko/4Wxpn/PC8/74T/4qvLM+9GfeiyC56n/wtjTP+eF5/wB8J/8AFUf8LY0z/nhef98J/wDFV5Zn3oz70WQXPU/+FsaZ/wA8Lz/vhP8A4qj/AIWxpn/PC8/74T/4qvLM+9GfeiyC56n/AMLY0z/nhef98J/8VR/wtjTP+eF5/wB8J/8AFV5Zn3oz70WQXPU/+FsaZ/zwvP8AvhP/AIqj/hbGmf8APC8/74T/AOKryzPvRn3osguep/8AC2NM/wCeF5/3wn/xVH/C2NM/54Xn/fCf/FV5Zn3oz70WQXPU/wDhbGmf88Lz/vhP/iqP+FsaZ/zwvP8AvhP/AIqvLM+9GfeiyC56n/wtjTP+eF5/3wn/AMVR/wALY0z/AJ4Xn/fCf/FV5Zn3oz70WQXPU/8AhbGmf88Lz/vhP/iqP+FsaZ/zwvP++E/+KryzPvRn3osguep/8LY0z/nhef8AfCf/ABVH/C2NM/54Xn/fCf8AxVeWZ96M+9FkFz1P/hbGmf8APC8/74T/AOKo/wCFsaZ/zwvP++E/+KryzPvRn3osguep/wDC2NM/54Xn/fCf/FUf8LY0z/nhef8AfCf/ABVeWZ96M+9FkFz1P/hbGmf88Lz/AL4T/wCKo/4Wxpn/ADwvP++E/wDiq8sz70Z96LILnqf/AAtjTP8Anhef98J/8VUFx8WrVR+4sZpD/wBNGVP8a8zz70Z96LILnXat8TdV1BDHAI7FCOTGSX/PH8hXJySNLIXdy7scszZJPuT603PvRn3oJDPvRn3oz70Z96ADPvRRn3ooAM/X8qM/X8qkoqblWI8/X8qM/X8qkoouFiPP1/KjP1/KpKKLhYjz9fyoz9fyqSii4WI8/X8qM/X8qkoouFiPP1/KjP1/KpKKLhYjz9fyoz9fyqSii4WI8/X8qM/X8qkoouFiPP1/KjP1/KpKKLhYjz9fyoz9fyqSii4WI8/X8qM/X8qkoouFiPP1/KjP1/KpKKLhYjz9fyoz9fyqSii4WI8/X8qM/X8qkoouFiPP1/KjP1/KpKKLhYjz9fyoz9fyqSii4WI8/X8qM/X8qkoouFiPP1/KjP1/KpKKLhYjz9fyoz9fyqSii4WI8/X8qM/X8qkoouFiPP1/KjP1/KpKKLhYjz9fyoz9fyqSii4WI8/X8qM/X8qkoouFiPP1/KjP1/KpKKLhYjz9fyoz9fyqSii4WI8/X8qM/X8qkoouFiPP1/KjP1/KpKKLhYjz9fyoz9fyqSii4WI8/X8qKkoouFgooopDCiiigAooooAKKKKACiiigAooqSC3S4j1B2LAwW6yJtbA3FwDn2waAI6KkhtVks7+ckiS3aAIAxxh2YEEfgOtL9lT+y5LolvNF0sC/MdoUxljkeucUARUUUUAFFFFABRRRQAUUUUAFFFFABRRRQAUUVYt4LeKzF5drJOskjRw20b7N23G5mYDIAJA4oAr0Vba6sWxjRFHri9lz+H/ANcVHeW8UK289s0htLgMFWUgtGykBkJ74yO1AEFFFFABRRRQAUUUUAFFFFABRRRQAUUUUAFFFI7hFJY4A6mgBaKsSWaWdmZLxWN3On+j2oYgqpGPMf8AoM9qrKMKBnPbP9aAFooooAKKKKACiiigAooooAKKKKACiiigAooooAKKKKACiiigAooooAKKKKACrFj/AKnV/wDr0X/0YtV6dFcPAt3Gqgi5hETEnG3DhsgY9unvQBYtf+QTrH+/a/8Aob0v/Mvyf9hBP/RRqss7xwXMKopScxlmLYK7GJ4GO+fWgzyfY2tQi+W06zl93PCFcYx/WgBtFFFABRRRQAUUUUAFFFFABRRRQAUUUUAFWrqQNo+iAfwtdK3183OPyxVWpre7+zwSW8tst5aO3meWXKMjYxuVh0JGO3agCGrEhxothkdbq4Yf7oVAf1z+VME2nqQf7Muf9033H/oFJdXT3jRkxx28MSeXFBFkqik5PPc565oAjooooAKKKKACiiigAooooAKKKKACiiigAqfTbi3tNThmu08y3XPGMhGxw5H8QHXBqCigCbULee1vpDdP58sx8xbkHKzKejA+nt2qGpFu2jsZLN4vtEB+aJd21oZMcMp9D3FRLnaM8mgBaKKKACiiigAooooAKKKKACiiigAooooAKKKKACiiigAooooAKKKKACiiigAooooAKKKKACiiigAooooAKKKKACiiigAooooAKKKKACiiigAooooAKKKKACiiigAooooAKKKKACiiigAooooAKKKKACiiigAooooAKKKKACiiigAooooAKKKKACiiigD/2Q==;" parent="1" vertex="1">
          <mxGeometry x="390" y="-1981.5" width="374" height="834" as="geometry" />
        </mxCell>
        <mxCell id="durLEyqsrdGXCALDW8Cn-2" value="" style="rounded=1;whiteSpace=wrap;html=1;strokeColor=#FF051E;fillColor=none;strokeWidth=5;" vertex="1" parent="1">
          <mxGeometry x="580" y="-1560" width="150" height="170" as="geometry" />
        </mxCell>
        <mxCell id="durLEyqsrdGXCALDW8Cn-3" value="" style="rounded=1;whiteSpace=wrap;html=1;strokeColor=#FF051E;fillColor=none;strokeWidth=5;" vertex="1" parent="1">
          <mxGeometry x="1080" y="-1650" width="35" height="35" as="geometry" />
        </mxCell>
        <mxCell id="durLEyqsrdGXCALDW8Cn-4" value="" style="endArrow=classic;html=1;rounded=0;strokeColor=#FF3333;strokeWidth=5;exitX=0;exitY=0.5;exitDx=0;exitDy=0;entryX=0.956;entryY=0.048;entryDx=0;entryDy=0;entryPerimeter=0;" edge="1" parent="1" source="durLEyqsrdGXCALDW8Cn-3" target="durLEyqsrdGXCALDW8Cn-2">
          <mxGeometry width="50" height="50" relative="1" as="geometry">
            <mxPoint x="1059" y="-1309" as="sourcePoint" />
            <mxPoint x="1190" y="-1340" as="targetPoint" />
          </mxGeometry>
        </mxCell>
        <mxCell id="durLEyqsrdGXCALDW8Cn-5" value="" style="endArrow=classic;html=1;rounded=0;strokeColor=#FF3333;strokeWidth=5;exitX=0.802;exitY=0.757;exitDx=0;exitDy=0;exitPerimeter=0;entryX=0.072;entryY=0.431;entryDx=0;entryDy=0;entryPerimeter=0;" edge="1" parent="1" source="-aEaPC-sBht90m_471vq-25" target="-aEaPC-sBht90m_471vq-27">
          <mxGeometry width="50" height="50" relative="1" as="geometry">
            <mxPoint x="1059" y="-1309" as="sourcePoint" />
            <mxPoint x="1190" y="-1340" as="targetPoint" />
          </mxGeometry>
        </mxCell>
      </root>
    </mxGraphModel>
  </diagram>
</mxfile>
